<mxfile host="app.diagrams.net" agent="Mozilla/5.0 (Windows NT 10.0; Win64; x64) AppleWebKit/537.36 (KHTML, like Gecko) Chrome/129.0.0.0 Safari/537.36 Edg/129.0.0.0" version="24.7.17">
  <diagram name="第 1 页" id="oS1hnIb2pKha_RooXdid">
    <mxGraphModel dx="452" dy="1416" grid="1" gridSize="10" guides="1" tooltips="1" connect="1" arrows="1" fold="1" page="1" pageScale="1" pageWidth="827" pageHeight="1169" math="0" shadow="0">
      <root>
        <mxCell id="0" />
        <mxCell id="1" parent="0" />
        <mxCell id="z-AKncyKRG6QcuSsVURf-11" style="edgeStyle=orthogonalEdgeStyle;rounded=0;orthogonalLoop=1;jettySize=auto;html=1;entryX=0;entryY=0.5;entryDx=0;entryDy=0;" edge="1" parent="1" source="z-AKncyKRG6QcuSsVURf-2" target="z-AKncyKRG6QcuSsVURf-9">
          <mxGeometry relative="1" as="geometry" />
        </mxCell>
        <mxCell id="z-AKncyKRG6QcuSsVURf-17" style="edgeStyle=orthogonalEdgeStyle;rounded=0;orthogonalLoop=1;jettySize=auto;html=1;entryX=0.041;entryY=0.004;entryDx=0;entryDy=0;entryPerimeter=0;" edge="1" parent="1" source="z-AKncyKRG6QcuSsVURf-2" target="z-AKncyKRG6QcuSsVURf-4">
          <mxGeometry relative="1" as="geometry">
            <Array as="points">
              <mxPoint x="150" y="320" />
              <mxPoint x="150" y="390" />
            </Array>
          </mxGeometry>
        </mxCell>
        <mxCell id="z-AKncyKRG6QcuSsVURf-2" value="&lt;font style=&quot;font-size: 18px;&quot;&gt;数据集&lt;/font&gt;" style="rounded=1;whiteSpace=wrap;html=1;" vertex="1" parent="1">
          <mxGeometry x="20" y="295" width="100" height="50" as="geometry" />
        </mxCell>
        <mxCell id="z-AKncyKRG6QcuSsVURf-3" value="&lt;font style=&quot;font-size: 18px;&quot;&gt;数值特征&lt;/font&gt;" style="rounded=1;whiteSpace=wrap;html=1;" vertex="1" parent="1">
          <mxGeometry x="200" y="340" width="100" height="50" as="geometry" />
        </mxCell>
        <mxCell id="z-AKncyKRG6QcuSsVURf-4" value="&lt;font style=&quot;font-size: 18px;&quot;&gt;类别特征&lt;/font&gt;" style="rounded=1;whiteSpace=wrap;html=1;" vertex="1" parent="1">
          <mxGeometry x="200" y="390" width="100" height="50" as="geometry" />
        </mxCell>
        <mxCell id="z-AKncyKRG6QcuSsVURf-5" value="&lt;font style=&quot;font-size: 18px;&quot;&gt;操作符&lt;/font&gt;" style="rounded=1;whiteSpace=wrap;html=1;" vertex="1" parent="1">
          <mxGeometry x="364" y="360" width="100" height="50" as="geometry" />
        </mxCell>
        <mxCell id="z-AKncyKRG6QcuSsVURf-6" value="&lt;font style=&quot;font-size: 18px;&quot;&gt;候选特征&lt;/font&gt;" style="rounded=1;whiteSpace=wrap;html=1;" vertex="1" parent="1">
          <mxGeometry x="480" y="360" width="100" height="50" as="geometry" />
        </mxCell>
        <mxCell id="z-AKncyKRG6QcuSsVURf-7" value="&lt;font style=&quot;font-size: 18px;&quot;&gt;评估&lt;/font&gt;&lt;div&gt;&lt;font style=&quot;font-size: 14px;&quot;&gt;剪枝&lt;/font&gt;&lt;/div&gt;&lt;div&gt;&lt;font style=&quot;font-size: 14px;&quot;&gt;归因&lt;/font&gt;&lt;/div&gt;" style="rounded=1;whiteSpace=wrap;html=1;" vertex="1" parent="1">
          <mxGeometry x="610" y="260" width="100" height="80" as="geometry" />
        </mxCell>
        <mxCell id="z-AKncyKRG6QcuSsVURf-8" value="" style="shape=image;verticalLabelPosition=bottom;labelBackgroundColor=default;verticalAlign=top;aspect=fixed;imageAspect=0;image=data:image/png,iVBORw0KGgoAAAANSUhEUgAAAssAAAE7CAYAAAArcsxfAAAAAXNSR0IArs4c6QAAAARnQU1BAACxjwv8YQUAAAAJcEhZcwAAFiUAABYlAUlSJPAAAP+lSURBVHhe7J0HgFQ114YPLB2W3nvvCNKkCCKgAjZQP8WGvXc/e/3svdffDnYUpdgQRQSp0nvvvSywsGyF+fNkJutl3DKzO7tsOa+Gmb2Tm+TmJidvTk5OivgMRKFQKBQKhUKhUPwLRQOfCoVCoVAoFAqFIghKlhUKhUKhUCgUinSgZFmhUCgUCoVCoUgHSpYVCoVCoVAoFIp0oGRZoVAoFAqFQqFIB0qWFQqFQqFQKBSKdKBkWaFQKBQKhUKhSAdKlhUKhUKhUCgUinSgZFmhUCgUCoVCoUgHSpYVCoVCoVAoFIp0oGRZoVAoFAqFQqFIB0qWFQqFQqFQKBSKdKBkWaFQKBQKhUKhSAdKlhUKhUKhUCgUinRQxGcQ+K5QKCKIlJQUSUpKktKlS0uRIkUCVyOLuLg4oQuXKVNGihaN3Nz38OHDcujQISlWrJgtvyIycPUaFRWVo+3Cmw9tIxQQ/8CBA7Y9Va5cWUqUKBH4RaFQKAo3VLOsUOQAIBzjx4+Xxx57TJYvXx64GllAbl599VV59tlnJSYmJnA1Mli7dq08+OCD8sUXXwSuKCKBTZs2ycMPPywff/yxJbQ5hW3btsn//vc/+fDDD0PKZ+PGjfLUU0/JoEGD5Oyzz5Y5c+YEflEoFAqFkmWFIgeQmJgo3333nTz//PPy119/Ba5GFuQxduxY+fbbb61GMJLYvn27fPrppzJp0qTAlcggOTnZEvsjR44ErhQu7Nq1Sz7//HP5/fffc7QO9uzZYyc6v/76q524ZQRWJ55++mk78WrYsKF07dpVihcvHvg1suCZ9+3bZ9tufgf1evjwETkYlyRrNsfIrMVbZM7SrTJn2VaZsXCzTJq9TibP2SAzF232Xzdh4crtsnpTjBw8lGTqwmfSCCSmUCjyNNQMQ6HIAUAKpk2bJnPnzpUzzzxTGjVqFPglcti7d6+cfvrpsn//fvnhhx8imgcEf/DgwTb94cOHB65mDxC41157zRLmRx99VEqVKhX4pfBg9uzZcsYZZ8iJJ55oyWxOmTosXLjQaok7deoko0aNsuY06YG4Q4YMkTp16siYMWOkUqVK1oQoo3uyAjTcX331lUyYMMFq15s0aRL4JX9hb2y8LF23W9YZ0rtt90GJiU2w1/aaz2JRRaVUyWKWCCckpUjRIkWlZMkomLUkJR+WqKJFzO/FpVL50lKrajmpU72cNK1fWZo3qCplSuXMBEWhUGQfqllWKHIA2A9DiG699dYcIco5jZywpYXcjxgxwk4icspWV+FHOPUbGxsrBw8elKZNm1qiDCJNlAF6mZ9//tmuhMTHxweu5i9s2REr/3tnkrz6+UyZNHez7N6fJFUrVZATOzeV8wceL0MHdZT/nGY+T+8kVww5QS4b3EUuGGCumXD+wI5yVr/jpMfxTaRCdFnZtCNOfp66Vh77v8ny1tezLLlWKBR5E1H/w7BNoVBEHKtWrZJFixZJ+fLl7WYulp7//vtvuxRftmxZq3WeOHGizJs3zy6FV69e/V8khQ2CaP4mT54s06dPl6VLl9prtWrVsp8s6ZPuRRddZIkO5hgzZsyQhIQEqVKlylGkacmSJbJs2TKpWLHiUVpdlsWnTp0qf/75pyxYsMBqxSkPpKZZs2ZW6+jAbzzTH3/8Ycuzfv16KVmypN0Qlh4gSdhtT5kyxZofoE2tV6+ebN261ZbFbSDEPIM00WpTT+vWrbOTDtL2PseaNWtsnXAf95Amaa9evdrGq1atWshkkftnzZpl6xAbcMjc4sWLpX79+va5tmzZYuuT+iEeZaL81LXLAztkbHxdeXinPAN1w3vmGR14ZjTKpH/uuefaDXhgxYoVNg207pQfUB7qg/fCbzt37rT5Bm/Yg+gSD5MZ2hLPghZ35MiRtp1ccMEFaW7+5F1Sj6TPvRUqVLBtkBUAyuDKRn3zO3VAOXmfwXVMHVAGV08bNmywbcyRb2yoqZPffvvNfm/ZsqVtd4A4tDvyCd5YuHv3blv/PI9rY6RN3yF9bOt5Z/QpTEh4Tto+ZaDMaPIxKaIPlitXzt4P0JzTH9xz8Z0VGrTr7rnTwjcTlsj7382Tnsc3kpM6N5bjmteW1k1qSN0apu4ql5PKFcpIxejSUqFcqX9CdCmpWL60VDG/VatUTmpWKy8NaleSujUrSM2q0bJ2c4xMnbtB+nRpaH4vG8hJoVDkKWCGoVAoIgtDRHyPPvqoz5AinyEj9pohO76ePXv6Tj31VN8TTzzh69atm8+QRp8Z9H0NGjTwffDBBz5DCmxcYMiE76WXXvK1b9/eZ4iCr3bt2vbztNNOs7/t3bvX1717d1/r1q19hjTYe+bPn+9r2rSp76677vIZMm2vAcpz4403+gxJ8RnyEbjq8xmS47v99ttT0zZkwZbrpptu8hmy7bvssssCMX0+Q+R8n332ma9r166+mjVr2jIb0mSfxxChQKx/g/v++9//2nsMEfIZUmnrpW3btj5Dim0cQ1B9V199ta0PQ9hSy0N9ffPNNzYNh2eeecbXpEkT32OPPea79NJLfY0aNfLVqFHDZ4ipLftPP/0UiJk5DMn2tWjRwnfFFVf4Lr/8cp8hVbYMhhT6DAHzXXfddbasBK7z+4ABA3yGvAZS8Pn+7//+z5aX8lx88cW+5s2b+wwB9Bmy7Tv//PN9hgQGYvrs81JWQ5R9htTaa4b4+fr27evr0KGD78cff7TXaCu0H56Td0IgD96hIYs2DtixY4fvwQcftOUzpNzGO/7443233nqrzxBl39lnn31U3XkRHx/vM5MsW9+GIPqio6N9devW9Z1zzjk+Q5htnAkTJtj3S5nd++7SpYvPTKR8hnDaOGYC4Bs2bFhqPZEGZTnjjDN8ZnJn43z99de2XRrCavOinKT3xhtv2DbP/Z07d06N70D+xKW/OLz99tv2GvXTp08f26b69+/vM5ML2yeeffZZ+055fspCu+P9msmrvZ/6MJNM246JQx3zXLwD99zp4cufF/q6XvyBb/CdI30X3DvKd/VjP/ruemWi78E3//Q9+cE03yuf/+17c+Q83zvfzD8qvPH1XN9Ln87yPfbeVN/9b/zhu/3FCb4rHh3r+8/do3znmXDSlR/7lq7ZGchFoVDkNagZhkKRQ0BThSYRTRdAk4fWDi0xwRBIayNqCLHVDr744otWG+nifvTRR9ajARo/vCdgl2yIoxiyZuOkBbTNaO7Q2pn+HbjqB9fQsqF5BCyFv/XWW/Lmm2/KSSedJN9//73dMDh06FBrV0r5vVo2NKb33nuv1fxRnnHjxokhrlYrRzl5trRAGqTJ86JFxFb18ccft/ew9G8In/1uiLgYcimjR4+2z8rmyM2bN8s999xjNYUO1BUaRWyp0RhynyHI8sADD1itMGmhpQwF1AUaW7STmImQ1rvvvms1p64Osa91ZcKsBi8nmJNQ1wAtPO+Z8hhyZjdGEtdMaqx2F5vh4HcB0ILiheL++++3GuErr7xSDOmz2uX33ntPXn75ZTEEzr4X0jNE3Na786RBoI288MILYoi2zYf3d/3111ttO1rZjLSkbOIj7rXXXmu1rtg3kxbXDHG2dXnffffZumbzH++b/Hhe6pj3DjDjYEWEd0p7pqxXXXWVrVPKyrOfcMIJ1k7dEHmrgb/tttvkueees8/n+gXtgGf3gvdD3ZKHA/mj8UdDbyaKYiYYcvfdd1tNN++FNsmzuHrjeb788kv7Xkmf1QHKTzpmgmrfLfV2yy232NWEjFCmVAmpV6uSnHFye+ndtYXUr1tVklJ8smXnAVm5MUYWrNghMxdukqnzNxwVZi3aLAtX75TVJs723XHm3ReT5o1qS78erWRA7zamTkqIhLYYolAojgWMIFMoFBEGmtw777zTahd//fVXe80QVV+rVq2s1s0QG3sNoOm65JJLrMbVkA17Dc0mmje0ymhdvUCjR/oxMTH/0iyjuUT7aQhQquYSEJ880BYbom6vzZ4922oC0RSiHfQCTZ4hH1YjBw4cOOAbPHiw1cRNnTrVXnNAi03Zf/nll8CVtIFmD+0iWkCv1httNdpBQ7CsttMLtO2G1PkM4bHPAB566CGYp2/IkCE+QwjtNUA98tzEN2QzcDVjGFKZqlGnPrwgPbSVXlBPDRs29JnJhdXqAkMkU8tjCJi9BiZNmmTfBdddOk6zjMbZEGX7TtDomolBqgZ44cKFVtvZr18/qyl1QOtpSKdtE2i90VijQaVNrV69OhDLj9dff92+P/J26aYHtOtol6l/B+raTIystt4QzcBVP9w7ee211+zfpO99bkD7pW2dfPLJdhUEEA8NMvXt1SDTFs4880xbrzy7F2jaDRG3ZXFgtYX6pn7oAw60rzZt2tjVBTNhDFz12bpHa4zGH608qyCkSVm8KzmhYPTEZb4L7v3ON+avrb7xf+/w/TRzu2/ctG3m7y2+76ds9o36c5Pv20kbfd8EBa59N3mTjUPcH6Zv8/08a4dJY6f5fYNv4E2f+5auVc2yQpFXoZplhSIXgTaQDX9ovhzQyhnSY7+jDQTY7GIHiicNQwDsNQe0hV570XDh7sX2GA0deWDb6kWPHj2sRtuQJvs32jjsWw3Rsdpv3OI5TSZaP7SsmfmTxk7UyBwbDHGy16gPbEYpEza8wR4y2CSJ9hm7VTTdgPvRip5yyinWLtuBekQzy+8rV66016jPN954w7pGQ+OIL2E8clC3DjwjmllDQgNX/CA96pp6QmOKVhW/xWjksSd2GnoHtKRee2JsaKlXNNdOCw3QKKO1RouLVvSOO+6Qm2++OdVeHftdNM41a9a0tuHUMwF7X7T6lB3tOvbnvJeBAwdK48aN7b0OvD/sj937ywjuvXjj8k5Z/cDeGo072lfKwCerE7w3bMS5l3LzTJSb36kjNPTUkwuAuC4PvmcVlBXw/p1NNMCenzJR52widfXGqgNlZMWFZ0H7jy0+KyW0BfYWhFMesj9sniPl8BHzPD4parpTsWJFpUTxYtbTRelSJawG2hu4VrJEcRuHuAC3cy4NhUKRt6FkWaHIZbAMDenxwpFESAhgExNErX79+vbvnACkB+LRoEGDwJV/wHI0hNQREzauQRApF8vtmDxwaAlmGfjy9W5iCweQZrcBC3IXDK5D0CGXjnRRJurPS5QdIE8QN5bYiQfpg5BivsKGRT5Zmg82GSFvR1YdMAHBdOCaa66RRx55xBIrTBEgql6QD3l6N5AB3h/lhCC6emRSQFw27H3yySdy3HHHyY033mjbhAOb1agXiLKrZwJlwLyEZyQ9zBYgebSR4MkT+RJcvuGCjaK8c8Irr7xiTUUoA5+Um2d19QV5p5zXXXedNVlhcvLLL7/Yd5BT4HmZTHjh6g2i7OrMBUxGXL1RX5STNsuhQcOGDbMTKWcCFS6oYaqZtEML/vsUCkX+gZJlhSIPwg2s4WrgHGniXi+B4ntaWkbiOYLuBaTDmzcEj7ht27a15AlC9Prrr1sC+f7771sS6vWaEQ4gXZQhrWflOmWB+Dly5n3GYECOuQcNL/EgRtgQYz+LhhES52xdvQgmyuSJ3TC2uu3atZN33nnHape5F61kWnUWCigzAa0zqwtoQyHz3vSoa/Cf//zH2pNTzy5gF40dMNpT6ou00nqv/EbwtoFw4GydqT8mR64cvO+3337bamyxBQa0B+qK56EtUE+UkRWUtMoWjIzeZ3r3c4+rJwfXRvFjTft0bZQAwacdoIHnXmzoeQYme5B67Kdvv/12OwFRKBSKYChZVijyIJo3b26JApusIG6hAo0wxBKNoPc+tMKYXHjJE4SLv91GLS9YmkaD6uKjxUMzh+lB586d7RL4qaeeagOmDyeffHLIWnAIjSM6lBfyieaYZw0G5ghoLqkPtMwOmDXwPMHAfAWiR5oAEsxmPcpfo0YN+8nf1FFGoP4we8DF3RNPPGHNGiC4aIDRunrrMVzwXikfpiFo9SFsX3/9dSoxxEyAeiGPfv36pdazq+tevXrZlQieh+fj/QVPNDBHoE6zWk42+NWpU8cSSdy8ecvBu6ccvBPqCbLPhOKhhx6Sbt262WdiVSIjzbK3XHxHU01870Y+wLtPaxKVFnhXTkNPeYPbaO/evVPbEHlSfjTlTKL4HZMiTIIUCoUiGEqWFYo8CI4choCw7E/ABAGCCOnFO0F6BBrTBEgr/mXnz59v4+GNA0KAzTEkwWnwMAHAMwX2x5AEiDB5QFo5aY17HamFiEAYsUseMWKEJYz8TnyWrzHFSK9MDhAoSCp2o9gScy/lgdhA/NBKUkauE1hWx/YV0n7eeeeleiqgTOQFucGe2JUDX8t4QOCZsHXODlwdkS4mGxA2ykG98LzBWs1wQNqUuUuXLlajiW04RJPnAdhOo8FH84ldLe+F+LxH3ismHADtuPMG4eJRXkw10KLSZrJaTjTzeF3B3hpbberAvRe0r0wkeI+O9FI2/kZDDuFlpQEzFm/+fIfM0oYxvSEt6pXJTatWrSzxxosHpJnrtHNsoEMFaaDdxsyGOqFMrt6wp545c6aNRz68Q66TD5MniDPlCJWYKxSKwgU9lEShyCGw5M/GNFx+QeAgARBCCAPLwGjvHNyBDWzWQnMLgSJAHjAh4DAISCxmAPyNWzLIB8QV8kEeaH4hOZBMyDEHN0BY+O7IA3HJG+1f1apVbZkgumzmgkBAOEkT4gWhRauIeQUaTDSNkGryd5up+I77Odx7sfztlu/TAmlgT0oabLaC6ELCIYYQJ8qInS6b1qg3lvupE8rLBjhn1w0x5HeIN+mhBcedGyYCPDvuzlz9ZAYImTPLOPvsswNX/Ta/PB8u9JggoMXGDRwHbzBR4N1deOGF9h1RBvI/66yzrGs0B0gjZhNMEi699FJbftKByPLcTADYvMhEAdMF3gHlIA3qkbwJvBfqCqKOuQPvAVKIzS3kjjqi3rAnp3yYQEDsIa/kk96hJA7UN2mj7XamNJBg8qHdQViZeBGPQzx43xB2tLHYetMWKAP1xUoAB+UQn/aDvTn1hOaYMvAs1BVpQep57xBV6oa2Th2QhrPpRjtOG2aihqYY0H5os7wvNmY6kIdLh75HHvQZJh20Jeqre/fu1g0hLgCZmFF2JovUP5tscR9HP0oPK9bvlkWrd0vb5nXs0dbZBfWclJwi85dtktN6NNFDSRSKPAolywpFDgECyWAIAXY2pgzgkAPMFrybutDWQRzQskKguA8vGGjL0O7h+QDiAgHDZ22fPn1sHMgHy/YQCUdIILh8QgTxCgHxxYcvZIBlaJalITkQMogZhI9ykT4klrSJj2ayY8eOlmCA2rVrW5IGgYFAQjR4RsrLJri0Ngp6gWaYNCCMlAsyB+HiGpp0yBnPQ7oQYMqHv9677rrrqA2EkGXIFF4k0KRDFImPiQU+mS+77LJ/2SCnB0gl9Uv+BAfyhjyimaReCBAxSBb1jPaed+UmJ0w6qFevVwruhfgxUSIuBJzJCnVGvffs2dO+J94zExfaAO+K94vWGbMP7qeuef+8e9oNkwfeGfey+gDZpt4oI3XLvTfddJOdHDERwWyDuOnB1QGTNMwoHKhz6gRtsXvf5ENZr7jiCtsWqCcIPs9P/sSDbLJpkXrCbtm1dUfAaVfEIy206ASuE1zbgCDzHEwyeA5WChwxpr6pRzTf3qPkXZ/hvZGOqzc0ydT1JZdcYsk7kx0mODwPJixoualzhkL6W0ZwZLldi7qmjWEjHfghiyhatIgkpxyW+Us3KllWKPIwivjceqNCociTgGSjNYQ0QHJZNg4FEA4IFmTaa++bFtACQtYgOpDXjIDIwJaUtCEfmcUPBvdxP4QPggTJceAZIYjY7/KbV/vugHcDNt6hQeUQE+JDnnhOCFokwbNC6pjIQJC9E5zcgKsP2gATrvS0nkw8mOhQX2iTIw3SxhSD+iV9SLIXEGraKOVk0uRMZtICkwjqlPdOWt64tA2ILs/B+8wqXB58MpkI9pzCpIQ2CHGnDdPWQsHYSSvkg9EL5KIzu0q5sqXsOSLe9vsPgofVf8dxQ++O3bHy1Y+z5PV7B0jLhlXtNYVCkbegZFmhUOQrOLKMP1+0rApFbmHhqh3y5PuTpXSpUlK3ZmWpWjlaqlQsK6VKBDy1FC0iRQ15DibQR8wwy1DLaHvEd0QOxSfLnn0HZPeeg7Jx214pWcwnr949QCqWP9rPuEKhyBtQsqxQKPIV8OmLuzI2nmEPq1DkFg4f8cn85dvk95lrZcPW/XLAkN6k5MPWzKVIVJREGbJcqrghzoYsp6Qc4UOioopaspyYmGw/i4ghzYePSPHiUVIxuqS0aFhFTu/VXOrXqhDIRaFQ5DUoWVYoFPkKnML3f//3f3ZDX1Z9OysU2QUn8O3ed0jWb90nG7btk0PxKZKQlGINMNi0F5+YIoZCS+lSxaREsSirVcZGuV7N8lKnRnmpX7OCIcuqSVYo8gOULCsUinwFNmaxeZFNcqHamioUCoVCkVUoWVYoFAqFQqFQKNJB9h1FKhQKhUKhUCgUBRRKlhUKhUKhUCgUinSgZFmhUCgUCoVCoUgHSpYVCoVCoVAoFIp0oGRZoVAoFAqFQqFIB0qWFQqFQqFQKBSKdKBkWaFQKBQKhUKhSAdKlhUKhUKhUCgUinRQYA4lOXz4sPAoRYoUsYGz+jMD8bkvXBQrVizwLWNktUxHjhyxn+EgKirK5pEZSJvg4nJfZshqmXjecN5DOGUCrn7DQbhlcgi1frNSJtLNynsI952Hg1DLBLzPHGr9ZrVMpB3ue8jqOw8F4ZTJ+8xZrd9QkZVnzktlop74zGr9hopwnjklJSXwLWf7HsjJMSY3yuQQapm87zwchPoevO2V+KG885wuk/c9uHoK91lCBWmH8h5AcNqhlKkwoMCQ5a+++kpiYmLs9y5dutiQGVauXCkTJ04M/BUaaNwXXnihVKpUKXAlffz000+yfv16+71FixbSt2/fTBvetm3b5Mcff5Tk5OSQGylC/IwzzpCGDRsGrqSPqVOnyoIFC+x3jgoeOHCglChRwv6dHg4cOCCjR4+2n6F2OMrfq1cv6dChQ+BK+li8eLEtF0KgYsWKcvrpp0uFChUCv6YN0h83bpytr1AHO+5p3769LVdmdbthwwb5/fffJT4+XkqXLm3rqVatWoFf08evv/4qK1askOLFiweuZAzeXaNGjaR///5SsmTJwNW0sXv3bpv+3r177TP369dPmjVrFvg1fcyYMUNmzZqV6Xt24D1Uq1ZNTjvttEzfQ1xcnEyYMEE2b95s/+7WrZt07tzZfs8Iy5cvl99++y3kAZh+V7ZsWTnllFOkdu3agatpgzqdNGmSzQPx1qpVK1u/mWHLli227/H8ofQ90uY9n3TSSSG9B94BgbRpS0OGDMk0n9jYWNv3Dh48GHLfA7yDUN4DMpD3RznKlSsn5513npQpUybwa9qgH40ZM0Z27twZcpl4f6HKwB07dsh3331nv9M+qKeqVavav9MD74K+sWbNmrDKVKNGDTnnnHMyLRNy4NNPP7X3kNeAAQNsv80M06ZNk/nz54dFVEqVKiWXXnppSH2DMtE2uK979+72CPjMsGTJEpk8eXKmz+wFfeKyyy6zbSQzjB07NlUetGnTRnr37p1pXsQfP368JCUlhVwu2iFto27duoEr6YPnZZyhnho0aCCnnnpqpvIQOcsYE07fo/y08bZt2waupA/GYWQz8or2PWjQIImOjg78mjZoh8go+kg4417Hjh2lR48eIdXtwoUL7fgHGAeQI6HK6QIN03gKBEyn9JnGb8P//ve/wNWMYQRN6j3hhGXLlgVSyBhnnXVW6j3Dhg3zmU4R+CV9TJkyxWeI+FH5hRLM4BVIIWPcddddqfeYQd5nJhiBX9LH2rVrfU2aNDkqv1DCiy++GEghY7zzzjs+M0Dbe5o3b+5bvXp14Jf0YUiEr2fPnv/KM7Nwww03+IxAC6SSPsxEx1e9enV7T5UqVXxG2AZ+yRhDhw79V56ZBTM58BkiHEghfZhB19eyZUt7jyFptv2GggcffNDGD843o2AmOT5DpAIppI+tW7f6+vTpY+8hj1D73vDhw31mcvCvfDMKZlD0/fnnn4EU0sehQ4d8l1xySep9F198sc+QnMCv6YO0DSE/Ks/MghncQn4PDz30UOp9tN1Q5AF9oX79+kflmVngPTz22GMhPbP3PRjy59u+fXvgl/RhSISvS5cu/8o3o0CZDAEMqUyGYKaWyUyefXPnzg38kj4MmfMZ0ht2mzIE096bGXbt2pUqo3iW77//PqRnufvuu8Muk5lI+cwkNJBCxmjYsKG9hzK98MILIZXp3XffDbtMhiz5Nm7cGEghY5hJvL2HMl1//fUh1a8hyj4zMf9XvhkFyvT7778HUsgYlINnpkwDBw6040dmMOTaZ4h1mnmnF0j/7bffDuk9vPTSSz4zMbL3HXfccb7169cHfkkftMOuXbv+K9+MAmW64447QpI34JZbbvGZSZFt74bA+w4cOBD4pXAjdFVFHgczLmZ1BGZSoYDZsrsnnGA6QiCFjJGQkJB6T2JiYuBqxiBtM9gflV8ogWcJBd57KF8oMO3kqPoNNYT6HphZu/QpU1bqN5wQCqhPVybeR6hlCs4rlBDqe6AM7pmpW+otFBCXEJxvRiHU90Db8JaJwLXMEG55CLyPUNs5/c3dF2rfI+1w+x5lCuc9uPvCeefh9j33HkKBVwZSplDeHXDvPNTgnj0UUAYXn2cPte9533moIdT3ENzOsyJvQw08c6hwbSOcd+7qNpxAGw/1PXjric9Q4JW3oQbKFO57oEyhvvOs9r2syoNQ+p63HYYayIcQKpCBrBi6z1BlQkFHgSHLmCDUr1/fLslUqVIlcDVjlC9f3i6lhRPq1asX8nI2Zg7Ep0w1a9YMaQmEJf8mTZrYpaK08k8rkA9L1KGAZRVXT5QtlOUllmCoX+KnlX9agaXyUExVAKYXPDNl4rnNTDjwS/qg3JSHZ08r/7QCZapevXoghYxBfTZu3NiWibLxXkIBy+vkk1b+aQXi8gyhLKmxPEv9uHqi/YYClvgoV1r5pxXCeQ+0DfceyIO+F0o7x7yDe2hXaZUhOLi2l5mJACB/+ht1S5n4HgpIu2nTpiH3PfoRbSOc9+DeN3UcyiCErHF5BeefVqA+KX+oMpBlX8pD/XJvKO2QOJQnHHnA84b6HmjnlInnoA/yd2bgnbt6TSv/tALl5zlCaa88M2WhjgihmCMA5G049eSeOZQyAe7hGXj2UOUt8ULtdy6QfijyAPC8BO4JVd5Sn+GOe/SlUOQBwNzGlYkQSv2WLFnS1lM47w95w3gWCtx7oM3yGYqpA+2Q+OG0c8rEewjVlATZXLlyZfsclDHUtljQUWBslrE3ZBYFeMGhNFhskbADDQdUFw01FMGBXRGzM4AwQHBmBmaN3BfOa2EGzEAUiuDArnv//v32O4MQQiSzTsRMGdtgPkPtOJSJATszm1eALfSePXvsM1OvPEtmgoP0t2/fbusrVCHAPU4QZPYcvDfaBpoLBBTCJpRBGzvOcGzcKBPEnLaR2T20b9JHS0D5IV+hDNrY3hFCLRPvAZLGM2fWzqkfyuS0YU7IZgbqKBybV8pEm6CeMnsPxOXd0a4AhDDUvkebChXkQ/lp5+G8B8Dki0EsM2Sl7wHeQTjvgbSpXwhIZoTZ9T00uaGWibriPWRmewx4DzwzaROop1AUFDwHmrBwykRbCuU90M43bdoU+Ets3whH3oZaJuAIUSj3UCanyaTvhSNvwwF1BSnPrG0A2oaTB0wkQ5m4EZ/3Rz6hgnZIew1FLnvlAe8tVHnLWBzuuEfamdkeA9oF8oBnhpjTpjIb92iH1C9lC6dMyALaRyjAXpl3AXh/7McIVU4XZBQYsqxQKBQKhUKhUEQaOl1QKBQKhUKhUCjSgZJlhUKhUCgUCoUiHShZVigUCoVCoVAo0oGSZYVCoVAoFAqFIh0oWVYoFAqFQqFQKNKBkmWFQqFQKBQKhSIdKFlWKBQKhUKhUCjSQYHws8wjeI9zxLG3OtFWKBQKhUKhCB0cCuT4FFyKQ1/COVSnoKJAkOVdu3bJ119/bU+14bSaoUOH2hOQFAqFQqFQKBSh4b333pPx48fb0wKPP/54uffee0M6JbGgo0CQ5QULFkivXr3sUafgzz//lBNPPNF+VygUCoVCoVBkjmuuuUY+/PBDu2Lfp08fGTt2bEjHdxd0FBhbBWZBaJUJCoVCoVAoFIrw4DVhVXPWf1BgakJtahQKhUKhUCgUkYZOGxQKhUKhUCgUinSgZFmhyAWkpKRYm/r4+Hg1FVIoFAqFIh9BybJCkUNggwSeWn7++Wd5++235ZVXXpGXX37Zbp6YOXNm6oZUhUKhUCgUeRdKlhWKHABEefbs2fL8889bcgxhnjx5svXUMnr0aHn99dflnXfeka1btwbuUCgUCoVCkRehZFmhyAH89ddflhAvXrzYOnmPioqSEiVK2MBm1H379snEiRPl1Vdflc2bNwfuUigUCoVCkdegZFmhiDA2bNggI0aMkJiYGClevLh1v1O2bFl7UE716tUtYYY8ExYtWmQP1MGWWaFQKBQKRd6DkmWFIsIYN26c1RZDhjHHaNmypdx66632JKT7779fLrzwQqlUqZL9jThTp061GmiFQqFQKBR5D0qWFYoIYvfu3TJnzhyrTcbrRb169eS2226Tnj17SqNGjaRZs2Zy3nnnyaWXXiqlS5e29xw6dEimT59uD9ZRKBQKhUKRt1BgyLKXaKCxUyiOBVavXi0HDx60dsm4izv99NOlTp06gV/94DeOEYU4Q6iLFSsmy5Ytk8TExEAMhUKhUCgUeQUFgiyzlF2jRg2pWrWqVK5c2dqJKhTHAnv37rUkGWCb3KRJE/s9GBBkNM1ooCHPe/bsSb1PoVAoFIpjAcwGUeb07t1bOnbsaPmVooCQ5aZNm8pPP/0kf/zxh3XN1a5du8AvCkXuAuLrVja839OCroAoFAqFIi/h6quvlq+++kq++eYbefDBB1PNBQs7CgRZLlWqlLRu3Vratm1rA54HFIpjgWrVqlmNMkhKSrLmFWmRYkwuVq1aZc0wCKyMoG1WKBQKheJYITo62nptIlSsWNEqfRQiUf8zCHxXKBTZBBO1LVu2WPdxmFhs375ddu7caQkx5kH4V+b0Pg4mWbJkiTW9KFmypJx77rl2wqeCSaFQKBSKvIUiPl0LVuRT5MWmC9nl5D7moHxn46nTHFeoUMH+zRHYkGY00PzdvHlzefjhh63NfaSfScm3QqFQKBTZg7qOUygiBIjpgQMH7Ml8jvSiXWaDBNrlFStWyJo1a6y3DLcJld/QRM+YMcP+rVAoCi5iY2Pl77//lt9++83KA4VCkT+gZFmhiAAgytghf/vttzJlyhT7N4SZw0cwzUCLjLkFnxDlKlWq2L8Bp/d9+eWX1jxDNcEKRcEEPtiffvppufjii+U///mPvPXWW3bVSaFQ5H2oGYYi3yKvNF0ILoPeL7/8Ih9++KEkJCTY67gxvOKKK+xu4pUrV1q3cmiSa9WqZU0vOLnv559/tvdijtGwYUO58847rf/lSD2bkm+FIm/gnXfekTvuuEMGDx5s9yiweapfv3529SmSYGPxtm3b7PcGDRrYT4VCkT0oWVbkW+Qlsoyd8iuvvGIJMX+jNR42bJgdGAEb+ZKTk1N/4xNzDO5Bowz4vXPnzvbEP3YiR+L5yEehUBxbMCG+4IILZPLkyfL9999Ljx49Ar9EHpMmTZLbb7/darDvuusulQEKRQSgZhgKRTbAQIQd8gcffGCJsjtkZODAgTJo0CAbB9KLWzg0zLg55HeulStXzvq0xAk8mmXMM+bNmyefffaZxMXF6SCnUBQQYKLFfgbccqFRTg9MmAkZTZQh3qxepXeI0ebNm2Xp0qU2v3CQUZ7IJ8oVDMrCs/GpyBjUr1OaoP3XEHqg/R3rNlYgNMtU5KFDh+x3HgcbUT11puDjWDddyCzLnW+//bbMmTMndTm1W7ducsstt1jvF5mVkTQWLVokr7/+ut3oR7vl2vnnny9Dhw61JDs7z6mEW6E4tmACPG7cOPn888/tSZ2XXHKJ1K5dW84++2xp0aKFjYPPdTTOmGtBCrg+ZMgQa67lsHHjRmu2hbyACLNCxUoU8fDvzkrVyJEjrTkYrik5ge3kk0+2Zl+XXnqpPYqfcnCtS5cugVT9eyZGjRplJ+gXXXSRJfR47CEtvPhgHvb111/bzYmYkTC5hyCzkfn333+3cbnnpJNOktNOO03Kly8fSLnwgnfoeAkTG+oLosx1QgGgXbkGxjACYyPjIe2eUKZMGft3pM2Y0kOBIMtr166Vu+++23Z6GuhLL71kDydRFGzkVtMNJpzkyzUGF2yUGZzosG6Qw+64Xr16IZePtDh5EtLNgAcQBNdee62ccsop9m+XlitLOGkrIgPqPNR6V+QcaNP5qV1zGtqjjz4qmzZtsuMT5BWFzquvvmr7NxPte+65R5YvX25tjImzfv16S4RffvllK1MgWo899pgl3GwaZiJOenjZufnmm63rScgseyRIj+tsIoa4HnfccfLFF1/I2LFj7e9sMsTUy9VhTEyMNReDyP/6669Sp04dWbx4sSXh7LuA2GNmRpmxu4aEI6soG6SF59m6dauVXSgJINRcL4xgDIAYU6f79++3WlHeHe9UZUf2QZuFNBPYLM8qDW2U9pbTpLlAkOX58+fLCSecYBsmwC6sV69e9rui4CKnm653QHZLo5hKcB3hh+aFQchpChhUGIQ4bj2csrl8SA+vGORF+jVr1rSDD+fzZ4SM8vI+gyI8uIHPDXjuvSiOLRgo6YdeLVNebueQWEwjrrvuOqsdfu+99ywBRmsLwbzmmmtk2rRpdnUJgsqgTxwUQBDhZ555xvZxSDfkl02BPDNpnXPOOTZ9NMnIHUgyMumBBx6wk+1bb73Vxq1bt64l2pdddpk899xzdkLv6gxid+aZZ9p7//jjDxsXssw1SDDaZo49xmwMUzLKSjqQefZcNG7c2K6KUVbc4uW0TXZeBRpkJhx4PXGbvIHK4MjCO95Rt7RvVlYgzZg55hQKBFlesGCBJcdo+hjgcN114oknBn5VFFTkVNOlA5I2KxXY/mGTjD0y15jJNm3a1C49fvTRR1Yocp1lSAZDljhBuGUjT9LC9nn8+PH2fgia01SjSULbxMDIYIpgYFAjX1fetKCCOnxQlyyfQiKQKRAaJcl5D5BlVmDQeKJthczl1fbOhAuzC8wtfvjhB2vKAMaMGWM3AhPQ1FJ++jfmXRBnJmgQWK+dM2Mc7ZG4bOT75JNPbDqQaACpvvLKK+Xee++VRx55JLVOIMtolp999lmr/XXXaednnXWWlWmYVTiyfPrpp9t8IOIQY4CMuv76621+kGK0zJSHd8FeC/ZgPP7445bo59V3EWlQR4wPTDbcyqAid+HGYCagjI050fYKBFlm1s5smY5Mw73//vut+y1FwUZONF3XydatW2cHCVYt0BS4VQsGBTxVoHF0gpFraF/OO++8bHVS7kUzgf9VDilxph1ojMiDo7MhcVyHIDCo9e3b1w5kzKjTqo/CMmBFCtQ373vHjh2p+yC0DvMuXJtH48lAiYaJ/pHXwNiEqQN2w5hDcLQ9QGuMFhgijekg7Y/yI18go7TBhQsX2tM9kTdz586VWbNmWa0y5BaTC8Y/4p566qm2raJZhrRi2oH5h2u/4ZBl7KIhy/Xr17fk3pF1TD/wEc2BKpdffrmdrPAOkE88G6tjaLSRYYWh3zAuICsgykxs8mLbKyyg72CagRxgVZYVqEiiQLxZlr9feOEFu4xFJ23SpEngF4UifKD9efPNN62GF0HIYMCyrzPB4BobbPiOcOzfv78d7LIrKMkHO0OWOJ2vZTo8Axc2gwyKaDAg1Bs2bLDLoa+99po13VDvGdkHwpY6hohAUqhPrdO8DfeOWAXivWEOwHvMD6Cc2LVS/mXLlsmECRNsQO7g/o3VpA4dOlgCwPH4HKHP5kD6OxsBkUdMDnISaOtY5nagXyBrIP+YO2LjTJnZeIjchPAzHhcGsPKHmQqrAHxXonxsQf0zYeGduP0BkUSBeLtUEpo1tAsEbbSKrIBBa8mSJXbTHuYXEFVmqLiAY0mUgB2fc/TvSDSmEgwo/J1dkAbpe82IaM9okrt27WrLgBaIQYk8GbhYEsXGEc2QkrusgXpn0EN7D4nResxf4H1532F+AP0azSxgrwP92Bt+/PFHGT58uLVTRrvLpro+ffpYzxRsKh4xYoTVJocqd5ymDWLnBfdDMoLbPH8HX0PmIPPQOFM2tOSuvHyH6GMnXdD7DzLCaZRBQX/e/ALeA++G94LiI5ITZ2WVinwLJ8wjFQDLiJheMCAw8UKTw8YVNuEQbrjhBrvEiV0UQKP1008/2c+00sxKoIND1t3flAWSzCCEXfSNN95ov2MvyG/MoCmDs3X2pqUIDWj4IFqhEg9F3oQjzNj25wew/wECiicMtMRoZV3A3IuVJsAkniX/Cy+8MHXlFO0utsXBbdb1+2BSjE03ebH3wXsPGnmIRSjygvKwoY8JCStceMJw5eU7chFtdEEGdYfpisqLvAnaMe8F5REmdZF6R0qWFYoAIEwMHGhgIKDt27dP3bDnBT5K3W5vbPVwXcgyaaSAEMb+j05OOfCGgd9l75Ir2mc2BeHmCXLNUi32iwygivBA/bF0B7nQCUb+Bu8PLWleNMegPwcP3HhxOv74462dMeYVtEMGeAgtG/f++usvew/aZZ6H0z7RaBLYyMdm9uA2S1wm0dgVQ4Kd9rNRo0aW1GIygQkF15Fd77//vpU5wemkVV6I8IABA2xfef75561iAVJCebClfvfdd235CzJYzeM9IZtVXuRN8F54P8gB3lckoGRZoQgAIe+WIx1ZTm+TAL85cx/iMmBECthbQXpdOXD2j0YoGJBnfKgCygLRZ2OQIjwwSXI2yor8D94jA2Re0y6n1b7QEt93332pbiJZyWLl6Nxzz7XnBbgVK/ZFIHO4xiY9NtdBpiHaweliosUEGzMOjrx+6KGH7OZADjghfWQVh5RcddVVdn8E8oY9EqFOLtjIjEeM6dOnW9d1rLiRFpucp06daol6QQWTBCYGKi/yPng/jIdMbIInfVlB1P/YNaBQKOzSGoeDQFQZOND6eE/Q8gKNDQODAxpoBrxIAK0yWhoEM+Vg8yBLsmkBrx3slkcwEJ8d95iPKEIHg59zyafI/6Av0G9YbWGTXF4AZcIMApnSqVOnVFtlwJ4HruHxgskxE3TILoTUmVph4oBXHDS7TOgh2TfddJOVO61atbJ7HJzHCj6RW8gB0mJCTb5MuEmDE/n4TuA+SHqbNm3sngjy5Tr3IXNwyUr63r7B/qDu3btbExL2UlAeys5+DkzU8KZRUMHGbrSVkC8ly/kD9CnaaXZ9MBcI13EKRSSADd5///tfq3mhW6DNwY9pWiSKzS3ffvttqsDEewabXiIBllrRIKG9gADjChHtclpg0w/2ypSDQQ4/zV6frIqMgSBlFz9mNEqWCw4gy/QDNKbprQ7lRThtOKYUaQF5gNYc0pxZe8XGGc00JD24DkiDOsqufTF5IKcgItklI3kdjAkoMlCqKFHOP+C9MfFjkpid96ajg0IRAJtT0OAABhdIKwfeBINDSrAlZLAhYDfsNuJEAhyVjVaITk450HYzIAUDjSjlc+XAjhnCrAgdaMWou/wKhD+kyTsIpHUtuyC9/DaZgFjyfvMTIMnpEWXAHgm05aG8C6dZT2uygKYtEhvxyINJSUEnyoC2xGQmkv1KkTtgRYCJY3agZFmhCAAhyClYjmhg58eGFdw0oVHA5AH/p2hz2RDDIAShZanUu6yaXUDYWWZ1ZBkfy998843VeEPs0IbiZxmbRZYEicN1Nh4WhkErkuA9U8/5EbRTVkPcIRU8C4EBHd/c+OTm7+yC9sZmMdpcfqkr917z80RIkbdAf6IvKPIXkAUQ5exu9CsQNssMDhwJivsdhDobn9RuU5EVsGTJDnM6F2SEzV8QD1w3QUpoZ16CinaGE604NShSoHNTDjTbaMcA7RqNNiYDlIPNO9gqAwQ42uihQ4faY38VoYO6Y1mV5eRIEMvcBLaseEDBZAeNI3avABeCb7zxhr3GSXHhaIQdyXTfuRci/tRTT1n5iv0rms/8QJp5flaLCvKGM0XuAQVJftjY5/ptXgBlyQv1hbxi1ZWVlqyWp0BoltnNyxGb7BBmpzCnGykU4QLyC1F2S210MIQOG/7QLENY0TY7jTK/QarZFR7p5V52vnPcrMsL0sxRtxxOgI0ybZzrlBlijR9mbLIUhQe0UdofkzcmdQ6uvfAZKkiLCQP+vZmQca93UHEa2qwONApFfgby3XkoyuvAJSCrQMiGY1leZAgepjAXPNYrPNQDE53slKNAkGUaMkvULEkS8pudmiJvAE3uyJEjU4kG9nisUNDR0FIRIMhcY5ZKHDofBJYjXyMJ8sJF0xlnnGHtC901ykIZHIlmFYWDCk477bR8IcgLCngHrr757kJa74Br7jqfacXLLA3g7vXGI7h2CWiPTLL+7//+z654uHbikFYagHj49r3rrrtsewb8RnrYwr/yyit2oyntLXgp2pueN00vXL58uu+hxM8ojqJwAvkcSVedoYCJZH4wwaC/jhgxQu655x67GkrfyWm4vuoFf7Nih9zAeAHynhtlyQi4kSv0ZJmXhbB3UMGqCBdojj/99FO7EcANzhBQ3DdBPnCrROAafkXR5LrlXYQoBwSg+Y0kMPHATypl6Natm93Ri200AfdMeOvAfRRlOdaCKLeB9p9jfzENcKYquQUELlobN6lCY8EkHe0ug2owuObcEfLJIOL1h+3SwCYSrxz85iW4DrQzb7yMTEcwlaBNBBNlFAmsjlAGb158Un4Cz8Xzud8ItDns4b2DDenxG3G5jzSxCySP4HJxjXg8A+nTz4hPWdIiITwbcdBMkTb15n0WReEF7QGvRezZQIuaHQIUKmizuZFPduD6HP0K16ZeGZOTQCZxuA2fDpSF/s6qP0SZvhwsE3IT5O3kdVZRIFzH4RGgZ8+eqQbcLKXjP1KhCAUIF2w8Z8yYYbV0CEWIMW7jsHFC6CAI6CqONDCYv/POO/Lbb7/ZNOiI+CPlnki5kPMCguTIBSQIIu3Ic2EEgyQHN0D4ML1CC8/pZLy/cMC7ZaLkJkmZgThobL777ju7sZMVhnHjxllTCH7DTy1+sbEhp71AEkePHm1/J/7EiRPtqWfEueCCC2w7mjdvnrVBZ2AB+N3FZ23Lli1TBxjaFxs9XTxWPZBxvH/aLnVB2yNP7Jgx1WEyhT9cJ+JZDv3111+tzbtrRxxqgW9uNq6yskIeaJLxoUv7YtWCvD766CO78ZRyu/0g1B2yFxtpBkTKSH9BFpM3HmLoS+TDyguTyb59+9py0G+YYOCflzR5FqfwQGvIKXN///23LSd10KFDB3uABjb5oWj4eGbKyXMU1j5SUEH7wOSMvo6c5kAU/E1Hct9IMJC/EELaeLikzxvf9cXsIL30uE7feOSRRywHeuaZZ6yf7FD6S3rIqOz0a2QAsgG5weE6+PcmP+5D9mEuiIxDltEfg9PISt1k5R5AXMwbs7oJvkBs8KPzfPjhh/blAByjM1gpFJkB4cdRs7///rsdrOnoHAuLDTzkCyCU6egER8aI27hxYytA2fjBdQgcEzYGdghGJEHebFbi4BMGBdw1FeaNS2ga0SxBPCGgvD+EIXVECBW8byYhCHSvEE4PDBCQ2/fee88SdSZYtAXeCwMqG0C3b99uhTLaXWTS559/bssIScSjChMdiCeb5Yj/3HPPWU05PoF5z85lIQdFYPYA4eR+jhdG1tE+IaWLFy+2Nsbky6ltrD5QvmnTpll5yABFHjwXZPbFF1+0JJS2g3wkLukRb9myZXZgIy3aMnnyXGwapG7YRMin8/zCc2Gu8fLLL9v6Iz2IL8/uiDB5E5d0mFB8//33tq+QD0Sa69QlAy1xqRMmLaTJpIA6dV5heAaIPfb5oQ6Q9I9wN/iRNm2LwPNqyFvB9VfMjGgryF/aFm3Ive+MXO9lFWhJ6RuuLYYC+hdxg4Nrv3wnTnpw97v46aXnwHfiIlPYlMuElYkv14LT8iKtMhA3vfy85aGfMH6ywscKLGMTvxPo34yhrIIS15s36aSVflpwcUGo96QHypfVcTPfapZZZmDDFYIdgcusxi07vPDCC3bGSedC2DK4KBTBwEYTksXATFuhI/bo0UNOPfVUqyEMBQz8EBB8IZMGnfeUU06xaUBCCjLob2gVGUjCFVrZAe+J5fknn3zSamy94P3hFQRb71Cc0IerWWYAQDv78MMPWyKIGcxZZ51lv3OsKoSUtnDvvfdabS918+ijj9p25lYr0HYyqYI8P/jggzZfjiSGMCKOIZWkw1HCd9xxhyXY/A5JeOCBB6wWFoEPoYbE4hVl2LBhcuutt9oyjho1yhJw8sKMh1WRV199VcaMGWOPO+YaZBXCC4lGWwtJRyN9991327q77rrrrNac69QxpkesnKBb4V60xJSJ37FlhshSN8jl1157zWqqSQsTIWQ01zjIB+8cXCc+dcOkg0kP5brtttusLOcTN4jkBfmhXzExIS8moaEMWcQhfriaZSYtuIvE80xutmlFaOCd0Hc+++yzf7UD2h9yl1UmPpl8cS0SoO9BzJ3WNDMQhzZLH6WPMfmkPChSnAacFSLaGdfTOimWiTCTTlaamDgi81jVoj/Sd1z75lRGpy2lfF7NModZIduYWANkjFPkIHdo7/zGNXd0OoH0IcDIHsxeHPFlXKRPUvfUBxzsyy+/tOTcKZh4PsY+5Avlpf+6iTP3edNH9rJ6hKzhvALiIY/cu6XeyIdnRiFAWsgpJvmkx7NTP6G8Z9IkfeotK8i3ZBl3XgyKzGx4mTQqB5YP0UDQGBDGLNEoCh5CabrBgo17uEZ7wV/y5MmTU4UHAzQEA81bqN2CtGiDDLBOuwkBo1My6GOS4fL0ItT0s4vgfCMJBhA0jZDEnMwnGOSFIEbQpwXIGVpWNrgxcDIYpVe+rJJlSC4D0eOPP26FL0IdAgtRhjxSL/zGygWDlyPQlIdrpMMgA4mFiGKSwUBH2alPyDjtkiVOTCqefvppOf/88237dCAuWh00sRdddFHqb16yDIlmwIJ0M5BxHbJLXoByOC0yBBjyD0mHeDsNDIO6I8uPPfaY1WojV99//31LfCk7zwQoM95hIPUQY/JDFrPRB4Jzww03WLMZV1+YWpAGJOLZZ5+1AzflZmDkOgMozwm4J1TQv7JCltF8YwLDgKzIn4A4YgrEhI8Jayj9OjOEQ5bJD/LIJJD2zfhAe6S9064pFwSPsYf+wQoSsoFxhzZO+nAaZAyf9CVWbphAMzFm8ks56HNo0Zn80mfpJ8FkmXMDIOTIIkAfc2SU8rCi9MQTT9hryCLy5jdWw8aOHWuJLLKWdEkfmYeMgDAjmzAxo24gsfAu7kWjfeONN9p7mfDyO89JX+Z3SD+yD5mIDHd1CmFmJevKK69MVXSQN6sIyEDkDBMIysx95IkilLwwN8sM5J0dspz9VnSMwEyM2QsN2EuUAcvhXGdwoCEqCh/oaK6z0bEIfOcawmvkyJF2CZ0OioBiUIVYhEOUAXERzmjGWHonLdKkUyNwEHbkiWCDkFEOCJorHyG/gmdnhs/yJAIxtwL9nXpMD9Q1JyxC7BhgvBtPIgXemzOb8LYXNEAMPJgjIMyBayOY7fCde2kDDKiUFRti/BhDiBm4sIVHhtFeiAdZpV0h6BmISYPAdwYo2lt6IB75MEBBSCG6XtLJQOXSI4Dgv4PBczEAQ4IZ9L3xSJtBEe0SWma3j4Q4EGkmLu4ZiItJCnXDc5Iu/ZCJDuY1DPrYhjt76EiQnszAu3HkXJE/QTujvdA3c1u+kh+yickkdvqQuDfffNNOLNkcjlyCREMk4TBM5FhNQYPr2jftD0KIVpp+hMIFGUbA1IHJ8YgRI+ykkrGMSSh9PL3+QV0go5GbwX2aMZHraMEd6JdOXrAqRl6YgFEOCDTPwHOiiXZ7RajzAQMG2HGQZ+YZSMfJa+QM5aO8rDAxNmJihmIB0s0qIVpiDgCjriivkxPUFeVBFjA+ExdFF/XJyi4bvYmT0+86X2/wY2aGFiCtgZMBhBkJm0IUBRNpNV3XYeigCByEEB0N0DkhOFxDI0dnJg0Ixy233GKXmLLaHciXCRqCjE/X0dk8hdCBXLDsjtCATGFLhuYNcgVyqhvmpABBoA0cONBq49IT1DkFiBUa2LTAAHTCCSdY8wg2qLllz7SQVc0yml80RPh2B7w/NDUI7zvvvNO2NQZJ6p+4aG3ZiMc7Jy75QuQxjWDQgcS6NuDeGW0DTexbb70l3377rW1baMxoQwAZhxkM2hu3wQ94NcuXXnqpHWQYYNAI8TfpB7c3p1m++eabremE0ywT16tZRkPFdQY5NNavv/66ve7KxCDJRAFNGe2DgQ+CTNk5hRICzKDKIE1cfDpTTjRJlBk3ibQnyjx16lTbV+krDMJoySDW9NvMwPNlRbMMacC0hcmukua8B9ojS/jYKQe3YSZerOiwAoPcjaTtMqQvFM0yfQOzPCbqrGjTD9DCAtJAS8y4RN/v3LmzXXGBjDL+uL5J+8Zsif7C/fRHJp2QZeQKcZBV1AP9GoKJDBg0aJCVi8GaZWQS6VBfkExnRkFZWaHnN1abIK2A/Om7xEPGEJe+MHLkSKuZJh+eg/vhXphjkQ5pI9/cxJYJP64oGYv5DWUB5UJjjkxGQcCEgfx4JsZH5ArmGZB05ATPjMabukCrzXVkJfKKMRUXeYzvrOzS1zOSDTxHoTTDAFQkgwmNLRh0GgQujUBRMBHcdOlwXKPjMgNmZk5ndiSIjoQAQKBAVgADKRtCsXEDWe0OToCy7AYpQkBwjRk3Azx/e8sBKYBkMNnD/IPOnxNd0ZUrJwDhYTMa2oKczCcY5EV9IiixO3egTrELZrkOgR7KJt+skmUGCIgyhJny8O4YPFitYPCBrKMlZnCFLKM9glg6ssx12gnLkcRDXjnCCUiT8tB+0DSjjXEDohsQyA8Zx6DIpCAtssxqCYSawQ0SwaDMwBfc1kIly5AA+gyDNJsO2R+CJokBEnAPBJg64H3wzEwOIQWhkGUGMp6buoAos1mROuIamndWb7z1lB54vqyQZe6jTZBHbrZpRWjgnUCq6EeQRcAKB3b8mGXStjKaHGcVoZBl125px5B5uAkEz7VX+hhaZfojpBAzMUyWaP8oaugbkGH6G3uw4Df0GzbI0S7p9zwzYxp1AElknGNlCld6mGIhi7NLlgHPSFpubwXkGVnPpN2RVvoVK6fIN8ynUA7wXnhentVLlpFh9HEm/mw+xoMJLlG95BZ5gJxDZqDkxLyC35m8ki8yDHMT0qeu0SYzeedZSZc69KYXDJ65UJphAF4WszF2YXtBpTNIKFEufGD5lo5DB0LY0BboWAS+I2gcUaZDQ1axsaIjEbIKdz/aAoS2WxqHmCNQEEzeclAGdnAjRFghAfltcOaZGKSoP4RybgXcjzEosiIA0CChcYV84isbApuT3nB4T7xrNES8W9oRgXfNO2WAYUmR+kkLCHR+w96O+5jU8clzoB0jAPKhrTBY8ruzf+Q718kbEu4Gj/TA8imDMIMqG2W4n/h8UhY3wJAfASLr2moweG4IPMSZsjDYuzK59NA4o11mYHIH6oQKngXiTVrkwaDJcisDNkvN5J+T4PmZ3FJuxhcNeStAdCDHtEGnSUaGQvRoKzlBlMMBZBYSSztmoy6kF5JH4Dv9hTZGn6GvsNKJHTN9BpJMu0ezihIAcyRWZWjzjBd4uYAcoiTALOKDDz6wcUEk+wVpQX7R6EJ20QBDhNm0S9/MSl48M/IRsz2+o2XmMxjIOq4zOUEOOXAt2ESSuqI9cI36zmnka7IMGDjxPuAF2gc0LYrCAzoTAypCk0EVMsI1JkzMdglMqrhGQFDR+dCKZUQ0wgVpQ9zIl07M34ClI2zssaFHoJMnZaTMEDx2FStCB4MS5BI/oixp4saMjWPYy+YGENQMKNgLop1h0GKzC5pe3jNtwLUr2oEjpF6wmYV2yeYVtKcs/aNpRTuN+QLpkgZmPKTJBlJ3EAtxR44cackycIMI7c3l5wYRyDKEkwEYzRLpkw/3ouVicCcfCCJEhLbIpBONO4M6cOkB4tJvkLM8MwfyUB40WGjdMXHChAQtOKQeeMsUDHeddLFPxjsNG5l4TuoAEsG7ZnLk+pOi8II2gImDM2PCRAdSmRdAW6bPUUZMDFhhYuWQgCKFfogyBZIM8YTwI8OY+NLmmWizuZS+0KdPHytngNvky9iGBhWtNJt2qQfX57MK773kS/9ntQslDiZQ2EljwsVGQmQEz5gVuLoB5JMW8nL/zvdkmUpn6dDZJ1HZLCEyC1UULrChggHeDdCQDJbCmB0zG+c719zAzDIRmsCsdv70gAbP2fGSF0KTZWxXDtorZANBSFnR9kFanJBVZA76N/XJ0j51y8Qnt+AGFwYtBjhMEpz2hc0uuFCCoPI+ietMcbzvloESYk9c3Ft+/PHHdoBi6ZRBEU0TMs2RXUw+0JYzGUS7RJ4QWgZUnt0NquRHm0Ljwid/s8qBCQabcTC1cPnwickGGh9A2VlipQ/xO8SaPkI6lJ/nAJSJstCf0IqxtExa1AFLpuSNDGbzn+tbTAy5Tjm99cB3lzb9Bc0T+ZIe9pF8MnhDMJhYuLpXFF7QL5hM0ndys9+HAtoyBJg+gxIPEwe8uriAzMLsgnEIGUD75ztkHzMH7HAhy/QrCDW/sxqKWQdpci9jCGQZN5mhkFf6Ff2Ofu7IKiBtNNZupdUBP+lMrJEXmH6xSs+zUEbv/eECGeA8cbD5N62+zIoU11E2ET8voUAcSsKgw5IoAxckxNnTKAoH6PRoGlmWYoYOGMzZaIUmF20ZQoUlHgQQ7YR43McnqxOOCGQXpEk56PR8R6OMgEOzgBClXSJ0KBeaMzTLCEFICeWIdLulDAURvC/sUXm32QHCnyU/BpJQ6oqBhwENe11MQTADY/Bm1QJzFEgdAx1pIfT5pC0ysLH0GDwA0CbR0EKYaSvIMkxN2LCHjZ8DhJl4pMVAAlFnMKNdsUHQu0kQAoEWCzMI6ofBlLaHaQhpoKGlvGi2OT0P7RHlpGwQXJcHcTGFoO+g2WZZmFUR92yQa6f1dmVnUMVmnLwA8QjkiZaN9CAU7jpEnmv8hqkI6fBesaskUAaIAX0jXK0Wz0MaeW3QVWQPEL/cHt8ZX7Dbpc2mJyf4DbnESgjElzLSP2jjtFt+Z6UG8kubdOkQD5mCORZxMbei/zu/x0wgMemg/XMdwgkYY1jJQtnCShb9HQLuPZQEUy/IMB4sKBdyiH6KHKNMrFbxG/0TWYA8ZJWOuGyQpm9yjXKzcREijxxjks4zkDYu4CgD8tCZjVButOSsNFF3rDIhc6hD9iFwH/IHWUVcysNvI0aMsJ/0eZRMyGVWwuB3yBaex6XPs1J26o70eS5+ywjIr6zKgwJBlqk4Bh2MwJl1YUepKDzg/bN8y65gOiGdm01KCIbgzsNgDDlCc0cHZWMXnRAykV1QDnbTo61DUCCMsKnDLhp4y4KA5G8EI/chjCA+zjtGpEDaivSRVbLMgARhZWMoGk8GNiZAbvOMe9ekyTuF7DLIB7dH/oaYMjAwsJImA5TTwDiQDgMavxEHMkpetCNINYOOI5KQdwYVR5QBaUFSKQdknoGKwRXCS9ouL/oB5Jc8+GTwZzJHHpBZb5n4Tr4QfUgt91AXlJ169YJnJA3K4MoESB+yzrNxHe0zgzFlo4zUCeSdMnjvCwWkrWRZEQmEQpYdGGMglZBf4tIPGQ8gt5BHzJ+QF04e0If5HbMHNLr0H0xLIJf8Tl+CFLLB0E0oUbJggsJ1xjyUhI4sM5FnPIQs09/pO6wWkS/7eCC05McKKJwJMyxIJOSYMkFMWYGCuBOXjXSUDRJNHdCPMf9w/Yq4mKRBVpEfjGV8khcrpnxy0BHl5tl4RiYTTBr4m/isxGJWhlabtJkUICt4Huy8MfNKiyyzNwmTMkxFcpos53szDAeENEuANBBF4QMd2ksMGGDTA79BegD3cG+kQFqOKHjLkVYn9paDzu+04or8AwQ2YJChLfF38LtmowoDWnqCnHtoM6RB4G+XrgP3ug0vbpB195G2N7675tqhA+UjDdoaaQD+9paLe/jb/c53Aul5N9w4uLLSjl3Z04tHGsGENzhtV4ekxyAP+C34vsxAujyn618KRW6AdgqZxJMD8h3zKkwxWO3GDIO9CZBn14cBfc5NCllhZJKI8o/rpAehROvLJJhVS7dhkEk7cSGVtHUH0iZwjTwgh2heyYNJPp44uB+vFKwkeRU03AMpZUKNWaPLCw0290N4XV6kTd4QdSalmGPxrOyroE87mUAAPAvx8IKBuReknvh408A8BVMTiDLeqbyTf9JJrx9zPbcmwwVCswyoMGZWNCxvw1EUfPC+0egy+6WT0omZPKEZCwZxsVN2G6PobJHyyUnaDOzMjpm5A2b2CLTgNsnfzODxJeuAlhJNXyQRnK/i36DtoN0Ipa5oL06zzHtFQwTcwKfIG+B9oLFDE5feQKtQhIpwNMuA1RIIJwSYsQWSyMoLGlOIIqseDq6tcg/mU6xGBq/ioFFlxYUVGtJjFZJ9CBBY8mFlByLLPc5MizHQmS6hpWY8RFMMESUvxj3GHEwTyReCzv0uLlpYNMSYRWEWwYq9i+tWpADfGecoF/dgUsWEAZJMfsTnPjgaZaF8lJt03fOwKsdqMK7hSM9N2gGcDjnLalqw2Z33WanDzJAdzXK+9rOsKNxwTZdOi1YWG2UOqmBwpLMzY0UweAExYtMQRBWw/IvLMYRCJLoCaTBLJn2EBZ2T/IJJMOSM3dzYb1FehCcbm5jlR7JLKlnOHCwLsqwZKllm2RHbOmz02N2uIjTvgXdCX4IUKBTZRSh+loMBKSM+RJv2iBYWOc/KidOaesFvjBkoXIjjBXmy0kJapElaxHXXvfeQDnIK0zJvPpSHOKTBPZg88TvXKR+KJkCapE1cxinSc3bXjvCStgN5cY97TuICrnEvn06J5UD63Ef6lJ14PBPPRvCCPCkveQb/5uqM9NOqUy/IH4Uqz50VFBjNsqJwg45GZ8U2i06OcMMemY4IGcKGi00LuKWC7NCxIMgsbzHLpUNHAk5wQJbp3GiYIWJcd+VgMwQbK7C3ovMjDFj6woUQ8SKJSD1XQQZClEmUV5inB+IwAeJ9Yaur9Zv3wDtiAMWGEbmQm6AduYk48iW/AqUDMtS77F6YwdgSjmYZOPKGfCcA5H16cobfGLvSI31cp127tPibEHyPSyc4H+JQdkcwXVmIy3cvvHH5zCgu1wne53RwZQkG8cmDcgTnEQz3jGn95tJP67e0oJplhcKApoyNGBsf6GAueOHILDNViDIbKbLaedIDpJxTlNg44YSAtxyUk3JQBr7ziast7LUUuQ/eD+7JmFzxvkIB8VR05k3wXiB5LP0yGOcmMMHCDpMTynCtF2p7yktAbnFCJXIMd4iYABR2ZEWzrMhbQC5kR7OsxlyKAgOEGHZc2GE5jRKDJWSUwHfi0FnYCIr9WKSJMoSLJXq3rE8H5dNbDvKELLvf0EBzsAPH+ypyH7wbluzDIVZKlPMusvI+IwXMwVi5YvWIvp2XAfFDg4wrTa/2jyVtVsCYQLq9F4UdvMu8/j4VOQsly4oCBTYAsJuW09ww+mejBIb/brMPrrc44AGH9pHY1OcFAw6ueHB1w0DNYIRNNBsTWP5hswXlYLMHNtUs40O6iItfTHYns4yryH2wiYR3pMj/4D2iWT4WYBLMZPhYEPVwwYQeWYl3BK8NKpuy/u///s+64kReKhQKNcNQFGCg5eEIXpYVAbt88WebEwMp3YglWE6Wwq8kwGaRpVh2A6OlwS0QBJpNh5BltNCc8Y8WB60FaeCPEjKf27aWCv9kB40ghwDocmv+gpt0MiHGVpkVnGMBDo/gUBYI6GOPPWbbEZpayuZsM9MC5ScupNWtQGW0f4G47MfgPmeDmhb4nXikC4l3q1qAQ5HwrcuEnuOUUTRkpEF1pmTcz3fSJH02dKVXVhcPUE7iub6V0fPlNWCvjBkGMkLlQv4EbTU7ZhhKlhWKCACn6fj5xvE8gwCDFyesMXBmZOqBFvqtt95K1Sgz8Fx55ZUycODAfDWYFBQwGEKWmdg4MqDI24C80McgfYRjRZSBI8vYLeMGC/MqNh1DFDkBkRMeg1cwkBn4mEUWMMEnLoM69+MH1ws2mnFiGlpfJna0T9yTcfARrr2414F27A6u4AAI6oVNxMgXNhhzyATlZbUL12CQZSbqmLDgD3jPnj2pK3D4j2fli7ikwWluHCxBf8F112WXXWYnKQ6UC/MOVtrY8EjeKA3YlwEx5/k4SOJYvqtwoGQ5/4M2qd4wFIpjCAYVNsLgfxfhjzaF40cZQDLTEDvflpyAxCdaIIQyJhoMWorcBRMUSAOrAgyKaMF4L4q8Bd4NE1Iml5jQ4OcV86b0NKy5BbS1o0ePtuWCkPI37YfJNMSVVS5OFoV0AvYpQKxZkWKlCdK/efNmSyg5YQ0fus7tJEQZN5ccEsF9EGNILF518PLD8zvPPqR13333yTvvvGMJHiZgmHqh5ebocIgyB00gu7iGSYY79Y22zyEanL520UUXWbIMWbzttttSjx52RHnRokU2LVbTSNeRX36/+eabLanmGnGZDFBWJhA8P64X8wtZxsUZdYBsV7Kcf5HvvWEc8R2RlMN+9yc+32E5fOSwFDH/JR/Bd2CyJKUkmt85xcn/G+GIicff3MuA5v/b3G/+K1rEf+JLVNFige/49Isyf/t9+0UViZJiUcWlRLGSgU+OdC0hxYsVN7n6vSUoFKGAQQL7PkwwGKhpi+zCZwDE9i8UMAi+99579ihU0mBgwWE7g12wf2ZF7oJ3AyFBy8y7VRx7IJ+R4xBSSGBWNUU5AYgym4whnJBLvNxANjEHgzyi5X333XetBpc2dc8991j/6vyG6QaHLCBTWG3CjAOzLDS6pPfNN9/INddcY7Vjr776qiXGgJPWyIv7IOQc4ID2mdUpAqe+YfoFKUbbjPadvOfPn2/3dmCexqZkJomQCVa50I6jEae8TOgh0/369bOkn3soG7KJI52HDRtmf4fgoz1Giw3JpgxPPvmk1U7zrjgCmvqAcGMrjYKB6/kBqlnO/4Dq5lkzDJLmP0gsZBaSm5SUIPsOxci+A7sl9tA+SUyOl0OJcXIgfr8kmt8SUxLMoJRsyXKKuSc5OdGS5cPmu2uiRwJF9hmifORIip88WxKNvz0JkGKOWYQs81nURHZ3Y5OFwC0qxaNKWMJcPECU7d/FS5prpaRkcRMCn2VLR0uFspWlYrkqUq50eX/6Jl0ENp/aeQonIE8sY37++edWIwwYeBi43MluoYJlfw4pYTCiXSGUOekJm+dIb0RUKBQ5A8gy5hOQVAgo5NcBIou5w6WXXmon2KxE4a8bMooc8ZpnQFhxawlZRUONhhnzCdIfNWqU1cp6wd6HBx98UFgo5hOtMPbIlOX111+3ttzBIH/IOL8R35EItN8XXnihJctogh1ZxoSCiSOknVPaHG6//XY72YfUcx8nqXK8MmYWXIOEO3z22Wd2xQ3XemjJlSwrcgvZJcsRNYpMTkmSg/Gxsit2u6zeslTmrpoqfy0eL+NmfC6f/famvD3uCXl9zCPy0S/Py5eT3pExM0bIxAVjZeGGmbIlZo3si98pyb54KVaymJQpV1aqV60pTRq0kA4tukq3didJj/YnS88O/eSkjqdJn04DpG+XM+SUEwbLgB7nyuknXiBn9b5Yzj7pYjmj11AZ2PM8OdX81r/rmSbuIOlt7ul1/Cnm/r7S7bg+0ql1d2nZuK3UrlHXkpGixUXikmNl54EtsmH3Clm6aY5MX/6b/PT31/LNlPdlxO+vyTum/G+MflQ+Hv+yjPrrI/ltzvcyd/VfsnHnGtm+d7Ps2r9N4g3xVxQOoClhKdNtYEHw444uXKIM0PagseGTySUaZgZKljhVo6lQ5A8wINN38YDjJcoAwovJCLbGuGTDlALXbZhlBJNZNMEcp44NM4cZQWDRTmOfzPVgcA3TBkwkkBeQgq5du1pt7/XXX29toknDqxtDzjh4v6cH4mAaBnn2wq1+YfoBMCljRYb8vUQZYIONnMxBHV2ehFUcFrJnzgkcy3rMlmY5MTlB9loN8V7ZHxdjSePmXetk/6EYOZCw387AShUvJaVKlJHoshWkfNmKNlQoV0nKloo2naa0FEf7azW1mD+gqfWbQdhgtcD+gEbYj3+KG07B/5kL/vPN6r1t5WP+Yf8S3xH/35h3IBzQVicmJ0pCUpzEHtwn+w6aZzu0X2Lj9ktc/AFJSkmQFCOcikcVl2KGcdep0lBa1GsvVSvUkOhSFaRS+WoSXfrYuDFSZB8MVmhVGNxoIwxIDBhofp599llrB8jgyG9oadCYZNUmCqBFQuvkPGqwzHzjjTdKly5d7MDKgES7xBYaLXbwZiGFQnHsgIaYTXxodzmYyAtsgrt37y5t2rSRkSNHWvMJ4j7++OP2EJBgsNJ09913y6effmo3B6IphnwiIzDL8AIbYbS5ffr0sZvzsGeeN2+evPzyy9YcAs1o79697VH8xGFMXbVqlU0Too5tMbIGpKdZZqULu2g0214TMzY2P/zww9Y0BJMLnuepp56y9tJow72YPXu2TQczjcJghsG4wEoh8pp3wljB34rwQV1S/0wGmYxl5V3kmhkGJDIhKUE2714nG3auMsR4rWwy5Dg2bq8UjSoi5cpES8XoqlKtYi2pUqGaVChbyZLjkiU8m5wCufk/0sjaXEr3txwH9Nx+BMF/Ifg3XtrB+P2y35LoPbJz7zbZs3+XqY8YSU5OMuS5pNSt2lDqVmtsPhtJg5rNpFK5KtaWuiDANR0+0/oOqcM8AeKHsMhP5gTY93G4AIOFcz/H8zgfyQjPJUuWWMFHO2BHOMuRwdqkcEF9ffHFF1ZjTX7UJQMTPqNxP8eghZCgLhs3bmy1NwyCx8qvrEKh+AfOGwYkF8LoBStREFVnovHHH39YLxbYK0M4IVIO9H0INOYVmF5gnzxkyBBrDwz5Dd78i3cMbKUJTLZdWsixadOmWYIL6eY0vq+//tpqeHOKLEPy2bPB5x133BGI5cekSZPsoVGYYhR0skw86hRZzXOymVGJcvbAeEjfoF1jEkR/CPWdcG+Ok2Vsinfs3SJLN8yRlZsXS8yBnXLY/Fe5fDWpVaWOVK1YQyoZkhxdpryULllWihSNEt8R/y5yG44J8c0d8JL8GnG/BpzJRFx8rCHQe0097ZadMVtl+54tEp94SKJLV5J6hjS3a9RVmtRuGbB/zr/EmZ3QbBJhlofmlcYbHNhFjOBm8wpalfwAyjx27FhrY8hucYSc64y0Z8gxf3Odv1mGZKMOHiwiAQQAdoZshHFknODVSrhyIIRx5XTxxRer9wyF4hjD2SwPHjzY2utidgHory+88IL1ZIHGmcDkF9tjVoiwA27YsKGNC7Zt22ZtliGsbB7G/ILNfbhiYzINcXZADrDhDnL6yiuvyHXXXWcJhZeYQS5YoRo+fLgluxz1T9qQdQgwm4sjRZaRnZijYZ/NZkanJKFMTCB4dp6lINssU/coTgiMJwTudQoQRdZAvTIOonyD9KKIw/Wi2zOUEaj37JDlDF3HYW6wZP0c+W7KR/L7gjGGMG+WCtEVpFOrntKldW9p2/h4aVS7udUkly1VzjxE8YD5QoAoF2CS7AXP6sw22PzHhIGJRO2q9W39tKjfVhrWaW5q47Cs37lSZq+YLPNWT5P4JAh0BVN35UPqgHkN2NSiFcGuliVFtAZc+/vvv+0uaezn0F6w7Oh2ROcHYOeHFgayT8f0Cje+uw7LdwgzO7vRLEcK1BNaY8gywoD8vO2D764cDJRs1CEe2qfsmIAoFIrsAZkHoWUAx2QLUokiAS0yRBEtLhNrfBJDItnYC8FG1tDn2f/AvbiSY3UJMwaIJ0v49Hc24qGkYGLONczEuAZJxgsPSglWmSgHK2PcA1HDCwbaY9zSsTeiQYMG9jqacIg5dtPIFUgIxAPyjqIAszLKyTN89NFHlmigOfeagaC5xjQE4o83DOJDsqdOnWrLgjIBBQDlxPMHZBx5idlIQXUdh3kckyDeD+8WOe3A/RqyFgB1ST8h0A4xTcI80TtOp4eIu47j0tINc2Xi/DGyYddqqVG5jrRt0lEa1mwmpUoYVk6ZzV2WDodQwMIM+5KpMF60qSsmEtv2bJblGxbI2q0rpVjREnJim1Ole6v+El0mfy2lY7eL4EXYpweEOhpaCHN+AL5A0Xgg3Hl3lBsfrpBjQEdlMGPAYlBhQGRJMdKHiOAVA00NdsqUg+VTzD/4TlnQUlD/DIho9hl00OSgEXJlVSgUuQvIJ94uIIMM5vRXCCab3iCOaICx13XYtGmTvYa2loEc7TLyhU2AkGQ0tu6wD9JDU4sdMt85ihoZhJkYJ5M+/fTT9mASQDnQMEPASRdCTF7IKrTbEFruJW/SI1+016SBzMacA80yni2cZhkTEjTLTAaCNctoi5FXaIwBCgcmBWhj3SQeQgMpR7uNnCqImmX4EHVLXcbExFiNfkbxFdkDdcukhLGQfpPZu4moGUby4WT5be73MmnBD1K1cg3p0qq31KveSKLQYhmip8g+MNugPvcd3CuL18yWWUunSNPabeX83ldLjUr/nIKU18Es2y0t8j0YEDjs0hDaOYFIT9QQhHfeeacdJCC+aEQYBBB8XqBxYVBBe0PnZADhORkMI1Em0mTBB80ydcjMGftFdtN7gbaHAQoNDuUlLgMQ5XXlUEGtUOQe8FyBFpm+ijzhsBC0x/RJXK9BFoMn1WhaJ06caDe/MehjusFeBOIjW7xgsu60tmwuRrvMhJ4DQSDMDmiQIcyYejCZRqONuzfSxNOGA5NxtMjsvyAOrirxyIOmGIUBm5YxzyANnoX8OLgEJYEDigPssdmEyIQeIH/YdMiKI+XkObBVBph+QKoh2flFsxwqWebdMkFBE+02aStyDrQzJmK0LzbQ0k7TA3EjSpanLPrFunXr1eEU6diip9Ukc2CIycofQREx4AWEbrdpx1oZNWmENDOE+coBd0npEv8IorwKtBScxMRyIeQyqBlZcNzziBEjstw4M0NaeWYVCEC0ORwEAhmG/LPciOY8OB/iMhBhk8h3foe0cpBIdstEegjaW265JfU4W2ySWV51eTnwNwMSy7uUl0A84rt4xFEoFMcG9EMGcC+5TA8QMTSRmEKEsjoEGSNeRtpZZAkEO7M0SQsinBPklbTJHyKJP2Zsp/EkhGeO/IJQyDLyl4kIWnc3hhQkuOfO7hgXaVAeFFWstjBJDJ6MOhAvO2T5qFQ5JGTC3O+kffOu0r1tX3uyHSfnmWz8ERQRhT2B0HSoBrWayVm9LpIl62fLmq1LA7/mTSAERo4caZfRIJbYJKfVeZhdo3HOKaKcE0BTy/twpNQtf6YFlia9nRItTKTA4IJQBpSDvNz3YFBGVw7KHclyKBSK7IE+GQpRBhBVtLihmlGRbmZmDJDUUNIkrUgRZcg5xNLJItJGRrES9/HHH9uNyN5DTQoSqGvMWwoaUQaMSxlpbo8lmGTSzkLtO1nBUWR56+4NsnLzImlYo4lt3GxaU+Qs/HbfR+wGyX1xMbItZlPgl7wFZm0szeEejaNaWQZ0AoFlQ4SfM5xHQHOsaVYO5ziWgNh7iSd2eumBpVWvQHQ7ySMByuEGLsrh8uJ7MChjTpVDoVAowgVjBXbQjBWvvfaaPW77mWeesSYemHuwaZGNgAUNjB3IbchyWoqN/Aqei02Kn3zyifWdDWnOS2BcZIJGncNBcqrujyLLxQwr56jnBav/lrj4OClSVJdwcxq8aMjOxu2r7QEvea3GaYTYveFkHyHHcaVudolWAxs8Np1gkoC/X8ARrhDq/AQ6GLZ6bM7gOzNUNvtBVHlH3sBGFbx+8N6IyxJQpA4HIT3IMtoXVw7c82ELCbzlYDaNfSTvCCCove6nFAqFIreBOQf7PZCRuLNjfwd7OiBZmIzhezk/rTiGCmRyQQRkmQkQ49CsWbPs94L6rBnhKNdxyYdTZPG6v2XNtmXWX3CV8tWtGzRO1ctzLC4fw1Ad29io14TEeFmyfq78NnusJKUkStcWfaRxLf8miWMNNn/g0/O///2v9Z2JGxwHnNrjNg6NARs7IJpsRFu4cKG138UMI78BsslmG3auQ1LZbIPZCaYO/I2QgDyzIQZ3SbxDzCXwP8oudKeVzi5IF+0ELvj4ziDDu2AAYubMb9jQ4bIP/6iQdggz9linn376UcuphVGoKRSKYwfkICeO4vWDQ0/YJMgmb47dRlbmR6Icius4rqNsAZEglNzvxhQ++dsFFCkOacXjd3fdGxd444Dg+93vDjwzq8WsHuP1yW06Db6Pv733eeHietN290YCpIXyDtMfxsL0yhEx13EcPPL6949IrVo1ZevOzXI4xScdmnWVJnVbWb/BftJsCmFu4T9FOKAh+b9R5RxSwsa+pevny7qtK6RerYaycdtaObvb5XJqp3P8EY8RaHCYXLAZg5OhvICwIQARfrgE8gKBwswzksQxIwQLgeyCDob7mUcffdRuYOQZEBQ8M26a+BsbbXbd8p1OyQ5yNtWxCzxS5aEcLHs98cQTdvIBUaccuMjhJD9ss9atW5e6sZLfML9AY4Om31uO9ISGQqFQKEJDKBv8uO72lyC/syt7GYdRjLBpEMUNYxJED1embgXUGw+fw7gIZO8N7v+4xpiMmSRjCGCsQOlF2ZxXFFZKIffEQznExnLIMauUTGzIh+B8GTuvT+RLepQFP94odCgDPrwhrq585EX6lJ/nYBxjEyT38zxugpEdoCAib/JIz10f5YmYNwzI8qvfPSRdj+9pyHEVmbtshqzZuFzKl60kDWo2laaGNONzuUTxklKMk+cokLlbiXP6cC8Nt3spKcmy72CMrN28XNZtWyU7922RCuUqSrsWnaVqpeoy+vcv5IzOF8upnc+19+Q2aNDz5s2zHi7wjYyW1QEyhusfTDH4ZKntWMPTdCMG3heumTArQYsMKSYfZ+qA0HEkmk6O9oTZthNGkQLlQMP91ltvWddLqe3IlIPyUAZXNjo/Exh8owZv+ElLaCgUCoUidOQ2WeZeDoHhwCk0uqxkkj/yHxeBjMPOVeCnn35q3fe1b9/euiDkXjbX44oQ96N4HUHhAyDKjCmME3hcgqxyP4eI4VaQ+1EGMb6xCoBfbufHGHNLOAJHuZMHtuiMTawso1zDEwXX4QecKMtKM+MTPOLLL7+0Zo3cj2a6U6dO1j84ZSYu42d2xvPcIMtHmWHEJRyQGcsmSq0ata2P5VpV60q9Wo0s0Vu/fZUsW79QVm5aLLFxgeV4kzl2zcWKFbdaZ1tA/jef/FdYYJ+WZ7bhn6OvU46k2DqN2b9LVmxcJDMWT5RZy6bI1j0bzYstL8e3PMEQ5U5SvXJNMwtMkuXrFkrz2sdJk9qtAynnDmhEaCox3sfDBSfxOSN+SDEaZPwN00n4HmlimNeAT1Q0xm6WjoD0klMEDDbFQ4cOtfbZWV3WyQwsGVEWtN3Mwp2gphwAAYEggyhzxG5aQoD4CoVCocg6ctsMg3txzeqUVqwonnbaaVb2YxLJ2MQKLjKfQ2JwZcoYQbx27dpZN6YQWI5Kx6814wRpEgdlGAemcJ2xnPsJEHxILCQZPoCZH+mQJlplyDvkmMNyKAf7l8aNG2fJKYSZVU02cGIaSBnQblNv5AchZ1Mn4xSaae7Dph0Sz2E3bkzLKrg/p80w0iTLtWvWleiy/tPkypQuJ7Wq1ZGm9VtKtSqG1KUkyqad62TR2tmyYsMi2RGzVQ4cipXYQ/vtb5DmqKhitrD2Pz7TCuY/aGZ+gC3tUeV39jn/kBG064nJibL3wB7ZtnuTbNyxVpabycXspZNlzsqphiBvkFLmZTZr2Fo6t+khzRu0lgrRlSWqaDFLwJJTIMuLcp0soz2lo0CEsU+msTkwc8V5PAeP0KBZ/i8MoOOx1IU3DzTqCCQ6OAKHJabu3bvLsGHDrF1edmfEGYG2BSlHyJA/S2MIY8oBiXZ2gWgEEABplcO1T4VCoVBkDceCLKO0gnyyWR6zR/YJoWXGVAJCCrFlbxCnLLIijDtXvFCh0ELLChllY/jgwYOlSpUqNl2UYNzLWML+FsYv4nFi7LXXXmvzwuSQE2M5Hp2xj437PA/3McYMGTLEjpGQcTS5aKhRHHE4DmSUw2sYo/D3T/k5ih0y/eSTT1rizemWcAnuR7NM+vmBLGdYQioGX8B8QoBrVq0j3dv3kdN7nyN9uw6Qpg1aSsLhOJm3eppMnDtOfpj6lQlfyy/TR8mUBb/KvJUzZNWmpbJ9zxaJiz8gSYZMQgo55OSwj3T9Lq94sHRD4L/II5ByWnnaENCUm2enrLyA5JRkSTLlT0g6JDGxu2TDtjWyaM0cmbHkD/lt1hj5adpI8/xfyvi/v5epSybIpt2rpVKlKtKtfW8ZeOI50q/7WdKyYTspayYg/9TtsXHPR6ehM+Agno7ICUwObNa7+uqr7UySBg4xK0zg3RCc9phjWznZD5vge++91woU7LlcvJyCSx9bMgSetxx8R7gh2HK6HAqFQqHIXcA5GIM4zRGChw0yhJC/+Q1zCVYX+Q4ZRnnCSnC4YwHxMY1AKcN3VjDhABBLJgj8nRaISzwIL5MIV16IsptYsMcHEw5WYCHIbnUUzTP3ck9+QVh0nsrBJANtaM1q9aRDq65yUufT5JRuZ5jPU6Vdi45SrESU7Irdag/XmL18skwwxHHsX5/LyIkfyug/P5UJs0bL1IW/yd9L/7JHPa/bulJ27d1uNbL7D8bIgbj9ctAQ60MJcZKQeEgSkuOtlwgItj3Ew5Lsf8iBobVWm51WsKTXxvLHx280aVj74cNJkpicYL1RHEqMs2T+wKH9Ehu3V/YdiJE9+3fK5l3rZdmGhTJvxXSZsfgPmTT3R/nxry9l5G8fynd/Dpefpo80k4JfZP6qGbJ5zzqRqCPSuF4z6Xl8H1MnZ0m/E06XE47rJY3qNpdyZaID5fe7GztWoLEy24NsQYhHjRplZ40ALSpHmbJsgkeLnj172uuFFa6dMQtnQwJeMagjdz234PJDYCKMKAcajNwuh0KhUChyD2h2IZlOzvPJ33AbzB8ciOdshLMCSLeXaJN+equVDvzGPS4eAU01aUGUCRBlAIH2pkW8rGp4jxWypPs21WKJHxvWoKNlS0dbu9sm9VtKjw4nyyndz5T+3c+Q/j3PlH7ms2ObbtKgTiMpVaaUxCbskzVblsrclX/JH4Z8fj95hHz+69vy1W/vyTcTP5Jv//hYRv3xiXz/5wirpf515mj5Y86PhmBPkOmGsM7CrGH5VENQZ8rC1bNlybq5smz9AlmxcbGs3LTEarKxq15uSO6StfNk0Zq5Ju4smbtimsxeNsWQ3kkyzZD1yfN+tu7afp7+jYyd/IV8N2mEfPfHcPl24sfy9e/vy5cT3jXXhps4Y2TG0j9k8fo5smPfFvFF+aRG9ZrSpulx0qtzfzm159nSvwfPe6Z99tZN2kvt6vWkQnRF0xg4ATHFzJ5SMmx0uQVmovi7xMYVI392rwIaLks3+MPELRq/QwoVfjhB4MKxQl4ph0KhUChyHii3nDaWgLkBppPIf+eVIi0Ql3HdkVZ3L9+dciwzRGKMQRNOnuz9cc9AwKyF8xr4nl+QPUMRAzNsW20p2lpIIeYLbPjDY0aZUmWlYnRlqVezkbRt2lFOOO4kObnrADm9z3ly5skXWEJ9Ysd+0q3DSdKx9QnSsnFbqVurgVSsUEmKlygmKZIkcYn7ZfeB7bJx12pZtXWxLF43R2avmCJTF02QSfN/sGR2/KxR8vPMb+TXv0fJeBN+mfGN/DLzW/PbaJk4d6xMWfiLzFr+pyxYM1NWbF4g63aslG37Nsn+Q3sk4Ui84NijTLmyUr1aTWlcv7nVkJ/QvrfVllPG03ufJ2edPFROMaS45/F9pUPLE6RxvZZSzUwQosuWt6GEIcbouf314D/GOq8QGnbAfv7553LFFVfYJXx21TpgToAfZY6wxt7JuZNRKBQKhUJxbADZxSUbni4wwYBYYq+MLTNEGRvmtEwk4B0QY0wr2LTHZj0AJ8G7BnbGpJ3ToAzs/WFl9s8//0x1GoBGfObMmfZZiJNfkAMlPVr7hU0uwW9+4CeQhOKGUEM2MVFoXLeF/WzRqK017YCQ9ut2uvTvdobVTENYT+l+lg2n9jCh59lyWs/B/nBiIJhr/U4w8U84XU7hd3fdhAE9h8hpPc42955t0iCcadIOaL/Jw+QFMe7Stqe0adZBmtVvJQ1qN5Za1etKlYrVpUzpsqahejV77ln+eR4Cz56XwOyNRsoxozfddJM97c0BO9hLLrnEHmHJwSLNmjUL/JJ/4J2pakg7KBQKhSL/AfkNsWS1F28SbLDDPBJ3cGzOY8xGMQf3gAgHg9ViTDY+/vhj+e6776zHDJRmaHT9fMWP9O7nmvd6Zn87cI1yEdq2bWu9ZLDpj9XsCRMmyPDhw+1+qUJhhhEpOBtiF5x2OuVwst1M5+yUeZnMQCDYpUqWlugy5aVi+UpSuUK1o0PFQAi6XrF8ZYkuV0FKlyprbWyYVRkqEXipKf68AvnZl2zL428IjhDnNyxfvlxwdIIPQ3wcutP3sG1ilyp2yTRe3MTkp9ldQQRueXAF5LVBCwW0S9wKsSyXloZBoVAoFPkTcBE0s3i9gGRiQsmhX7hfY7+RszFmPw2eqzB5cFyF8QBvTnizYuzngDFIt3NBhz9op0zhfrTUjrySBhwJ12/kTzz+ZhUa7xvuPjb+41oOG2XAfaTBNdKHP6HdxlsGhJkDzuAcPMOAAQOse9b8hDQPJenc/gSpW7OhfVmKnAebEdnQOHri53JG50uyfSgJrxQ3Ml9//XXgin9JhFke5JmO5o6sVBx74K+SCc2DDz5ohUqoYInt4Ycftstbjz/+uN29rFAoFIrI4lgcSsKZBxwWwvkHmF2w5wgPEpBbxnPIKPAr9fwKRW+e7juKmB07dtjxgQ3ixHXxgbs/2DTDpe+NB9L728F7nTKQLoogzEGwl4aE4yUDb064PoVMA8qQVUDYc/pQElUpFkDQUHA1xkwT0LmwVWb5Ay8YSpTzFjjJ6KeffrICLRxgx8bJTpjasIFCoVAoFMcGkERCMOnMDhyxhSTjnxhPSMARUgApJc9gguju5eAP7oUHAOJ5Ca67PxhcD46X0d8O3usoXNFsU17MRvDFTP4clsJv/E3elDOr4F7yI92cVPD++0kVBQKQZWySBw0aZO2UnnrqKWvDpMh7oKOnJexCAfdl9V6FQqFQRAaQNvYJYR6RFokMFxBMR/5Im+9ekhwqXDrZIaRZAeMSJoZoxjEhGT9+vLVVfv755+2qNwedYSqS3XIx9mH+gfLIbYTMCShZLqBgB+rLL79siTInvDktsyLnEE6n98ZVoqtQKBT5G8hxyCGyPRKb1zBXgEwyluc20Y0EXD0QOCUQe2WIM6YlnALIajeHqWRXG0y9Y1qBT+ecHEvVZjkPINI2y4qMgd0ZGyaYhXJqERsO6MDYPXGcKJMLlo5YKlq8eLHVEmDrdOqpp1rH717QQREEuPfBTg3/1GyiYNYc7IaPGT7Hkk6ZMsVuzMMOrW/fvvasfzT/HDvOioDD9u3brQcTzDToiwhP4rsTFbGjY1c0ZeUcf44oVSgUCkVkEYrNMoBOYe6AbEfGZ4fkYnvLmIGiK7umCscanOnARnTgDtbiebKiKfeCNDigi7Gb95NRHfFbdmyWlSznAShZzl2wVHbmmWdaG2FOKYTo4s+SzQFs0GBjBZsRcLWDcGSDBLN7NtPhgs8Jy82bN8uzzz5riSrx2GAAceX38847z6bj7MQQCmPGjJEnnnjCntfPjJp47DBm2Y5z8tnk58gyccgPn5ruZCbSxnsJeXKfkmWFQqEIDfAZCKjTdoaDUMkygNgin5H5sbGxGRK4jODyyer9eQkonJxpCvWSXZLsAPFl3N24cWPqwSfpgXrUDX4KRRig0yA0OfabHcavvfaa1eBiSwUx5pCWiRMn2r+5/tFHH1kByBLSli1bbBrs6n3ppZfkgw8+kH79+lkfmMTFJgsCzpITv7kJ58KFC+WRRx6x6WO/NXnyZKvdRrM9ffp0G891dLxboGlG4+z8Y7OJ7+abb5Zx48bJu+++a+NlJrQVCoWiMAJSy6ofJGrp0qUydepUa5LImQIoR3IS5M04ATlkdRFlSFZkNeNUQSDKAHJMvRAiQZSd9wv8SKO1zowoRwKqWc4DUM1y7gKn7PiaxCQCbe4ZZ5xhr6OhZUMk5BUC7VzaQIyHDRtmiTBeKyDD8+fPl/79+9uZKkLYaZABGgjSpyOjTUbLgEb50UcflRdeeMGScQcE+uWXX27jjR49Ws4++2yrTUYzjS9KCDdabYAmHB+blJM4aEcGDhyommWFQlGogRzldDpWCFnuZ9UPOcwKIZ/8DVFDOYG/YWRyOAhHswygVchnfAljmufIYiS1qoUN1DtKKxcwo+Rdo1wK9Z2oZlmhCBNMBLGdwoG6A0INFz1Vq1a1ncoBzQA+KhFy2CUDyDICunfv3kcRZYAj927dullBjZBGi0187NjQQnuB5qFdu3a287t569y5c+3yHfdx+tIbb7xhtdFffPGF3UDCMaEIiUjsuFYoFIr8DogsblGvuOIKq3zAZ/2HH35oVwgxaYOoQl7x6xsuUc4KIG/kidaT1UQ0n8h3L9nTEH5gzGNcZPxj1SBUohwJ6GirKLSABLvThwCdjs6IUA32HkJHBU4r4MhqWqcQERfSjW005JpPNntAjDlmPBiUA7hOHxMTY2fNHGsKScb84+2337anLpKe9/QlhUKhKOzAhy+KDzZFexbLj0KrVq2sO9XcBHIamU25MM0gQJ41hB+YeLCviE8UVbzn3BwHlSwrFFkASzkQZ0w6gkEnRkBCgolHh4aUY84BCQ5G8Fn9EHUIO0eVcqb/yJEjUwPmFpiOMDComZRCoVCItV996KGHMjxw6/rrrz8mRywj/wnIa+S/hqwHtPXgWKyqKllWKLIAtBSQ4Tlz5liTCS/QImMPzXIfWmBslzHNwJ6OzSZeYFKBezqvHRvn70OuSQeNCceUu4BbOogyZDo9DYoi98G7QJjrBEahyH2gucVMjWX5tMCBXEOHDg38dWzgSLOG7IVjBSXLCkUQ0iOh3uudOnWy9sqcSvTZZ59Z0wnsiSG4eM/A08ZZZ51lSTLEt1evXtY8A5MKzsVH8wxR/uqrr+yGQq85CPbOLVq0sBv+8IgBGSc+efz444/2iGtF3gLv/cknn7TvMq8CIo+9X3pgwpbR7wpFXgMyGcUEm7FxtYnJWzAgWHgSSssELrdBeTVkLxwrKFlWFEpAHAjBnY9rkIbg61zzxkfwsuyHlpdPbOHuuusuq73g5EQ8bFx77bVWAwzwh3z++efbDSd4urj99tvtZhR2ZqMxBk67jGb57rvvtkL+hhtukKuuusr6bL700kvlzjvvTHVfB9J7DkXugonSqFGjZMWKFYEreQ9sMmWyBrFPC7TNESNGpEk4wgErKGxSxa5QocgpoEBA2XDBBRfYA51Y2QFs3G7evHnqUn337t2tl6NjCZQhmNfhM19D1gOrtKzoMjbm9pgX9T+DwHeJSzggM5ZNlNo160r5chV1AM4l8OKTU5Jl+bpF0rz2cdKkduvAL4qcAnbCbdq0sW7g6ICA98B1TspDE+zVRHAdrxec7ufs3pzXC1y7QRAI3MOO63vvvdeeUuRAR+d0QE4bclpi0oM0kwa2dpzOh9cNyoGHDEwuINC4jCM++V588cVWY43gpX9iB00873Moch8Qw6+//toOzBxRmxeBBg4/s3hoYWUE7y+AdoTPb7wJYGNP23fuCrMCVlquu+46Owls2bJl4KpCETng4YLDmXDHiXx0wNyC6+z34KRUXL7df//99kTV7IAJJGkhj5HPoQI5jWwn4A2JwEZv911DeAGZhX26OwLcTZBCBeOrU2CFC/WznAegfpbzPyCzEGoEoSMh6QHzC5a7Ib+ZdVz6ICScbsqpf85zhiJvgcEbH9luxSAvgoEeDdzjjz9uJ2YsW9MG8R8O6YBoYEqCJ5fsgNMomTiwoapjx46BqwpF9gE5ggTTTjmsyYFJHv2PCZ+brDJpw/UmG6Kz26bD9bMMUIyQL+Z32FJTdrd6qMgaqHu09Lxv6pWxlLE3lHplDNXjrvM5lCwrFPkHiEzn2QThzXIvPrUxwbnxxhstWXa7tvkdLUiou7e5L1S7YSZaWZk8OcKMts0dn96+fXv7iY/xcEBdoHXzDlaMG0wcmTR6iQWDG5q2UMmGQuEFhy8NHz7cHuzE6ohD7dq17Umn9D2UFQ70T/aHsPKWXYRDlukTaEEpF/2AlUQlyZGFk6tMSNjTg2s5D5VNE/yuZDmfQ8myQpF/AJnF1hyzBgggRBgzDDZkYt6AQEZ2MkAyeF922WVSr169wN0ZA7tiNGGhCH5MgrJqi/n999/LrbfearUyQ4YMkddffz1Dt1vpgfv/7//+z346EsEndcLzu+fgO7b4TCSyOlgpCi84ohqSTN/wug/DtO2RRx6xp53mJMIhy5A4PCFBknPjGObCCmQLygJWXCHLXhmUFoivJ/gpFApFLgGhizbVDYZ8okGCIHOda+46y6/hKB3Qhrn7Mwtot7MCiCskH9s/bOkZcLKTVnC5eG42PLr6cdeoC0eeFYpQQH9iYnrllVfKp59+mkqU0SheffXVVtOc00Q5HEDW2GBIuXPzdLlQUZCIO8+C3GIigzlZTpsoqmY5D0A1ywpF/oLTHAOENmYYeDnBhRXaU/cbwMYu1EEKcewIQWZAswbpDQekP2bMGHniiSes60M2JD7//POp9soM9OGA9KgLzzBiy8/kgQ2n3vJlpbyKwgtOasN7y7vvvnuUBxe0tmygZiM1pDk3EIpmmT7P5JNVJLSceYE/UQbkj+ufkEv6oddVaaRB/ZAv+eQWWMFjUo6/7fTeD3WgmmWFQqHIRUD6sBkmMPA4rQbXvb8RnPBmAF2zZo0lkumBuN57MwqOeDJIcwwsdpwZDdD8hvkFy9aYcDz22GPWnSHEeebMmdZrAATFgXJSXsqdHigvz+8t199//y0PPvigrFy58qjrrrwMWrg/pMyhTgwUhQe0Z9ojLjOffvrpVKJMG+rfv781xWDzaG4R5XAAWaafZdQPQwH9Ki2ymd71YBBv9erV1p0lfY17WN3hFFjqlj5InOwiuDx8Rw6RL/bikcgjM/AsaPJZKQulbrIKJcsKhUKRTTDAI7QJ6eGnn36yLtWCT3HMLjDdgFRAetkElR4mTZpkN/bh8xtPGI5sDBw40GqXIbnYhaKhAQx2bJziyPVwsGzZMhk3bpzVxKUFiMRLL71k/ZOzm12hcKD9fvDBB3LhhRfKL7/8krpCgz09nmbwA46rzbwIiBobWNHeZiQHQgF9Gi9IwaSb/RJcd/WSHigLftORC/RrJvPULVp6rkcKPCuTGbfZmYkzPtafeuop6xUnJzXYXrh6Ir/s1n16ULKsUCgUEQCa04w0KWxC4YS/nDisgyPT2RyYkScNBhLsPNEgs1vfC0eY8THuAGlGC4WJSTjAD/jnn39uzTzSw/Lly+1R8Rlp2RWFC6xi4PqNw51cm6M/4Q//zTfftBM9fNPnVbi+HwpZI643OPCd+3G9yOFW9EGIL9chpPQr6sKZUzi4NFx6pIEWnjrr2rVr6goOMsrd5+K6e71I6xrwXuc7Wn7Kg0cK0iafzp0723xPOeWUf5F9l58LwfBeyyieF/zO8xIyi5sdKFlWKALw+Y6I73CSHEk5JClJsZKcsFeS4ndJUtxWSTiwSRJi10v8vlVyaO8KORSzTOL2LDFhkRzctcCEeeGF3QskbvdCfxoxS02ay23a8eSxf635XCeJBzebMuyRw6Ysh5MPyRFTNlPAQGkVeQksv7LRCI8PaYFBY+fOndKsWTNp0KBB4GpkwEAF6cQeL6MjfXETh6Y4veVrPGuwvO38hKPBYmkTt3LhAEJDXul513AbADl4J1xXdYqCB0ggh+Jgg/zee+/ZtgHQhg4ePNgSRDTN2TkoJy8BsgrZZVWFPubdCAjhoy9PmzbNTlT5jQkw1+k3f/31l9UUE8dpsNEyuziYI2A2xd+cLnvmmWdaF3ZeTbQjoKRH/ny6a4B0uD+Y6PK3y8fFwec15YHUUx7yIT8mzOTv8g3OkzJCrL2EnzRJw+VLO0BrzTN54x0r6Aa/PADd4JeDMAQ4JTnOkM2DhgTHW9LpJ58mpJiOf9iEI0YwpCT44xA3hfjEOyg+c93nw5l8ssgRhIH5NH/76Bu+FDGiylw/bD7pK6HPaouYd06QIsXEZz6LFokyDaG4EQqlTB4mXZNPkajiUrxUdSlWooJElShjfi4nUcVMKFFWikaVlKLFTChawiRRWooVjzbXy0tUcX4rZT7LmfvKmfR1PpxbQJS6AScYaFI5whw3bWwATC9euCBPtDt4CmDpM1KHgDD4oYEGaIm8/muzC1zssXGLw2PZYKgo3IA0sjkWMyEHCBdH/d98880RbXtZRSgb/Lhet25d+90R0GBwbeHChfLnn39aTTqEs1GjRnaiyomXrD7RP8aOHWvzhHRyEizaWiYUmHJBoDGlYtINGWYS/ttvv9nJJyZQS5YskUsuucSahEBmWTVixYiDkzgBlv0KTOwxk8CemVPtTj31VKuBZvWJTXJsAmbTL9eQMWiNZ8+ebYkxh79QD5QFG2iI+2mnnWZPtP3Pf/5jT1T89ddf7UmgPBP3U2YmAKys8YxssqO8aL+pM8gw92G+RTqUA3MRyDJHlzNpYmOnh64eBeIzsWcfBHWaVt1zb3Y2+Olx13kAvFg97jorMDNcQyrRBkN8k+PNLH3fajm4c57Ebp8mMRt+lT1rR8vuNd/LnnVjJWbdj+ZznPkcJ/s2jpeD2/+SQ7vnmDBPEvYtlcOHNsmRxN1S1BcnxaMOW2FTskx5KRNdVcpVqC3RlRtKxarNpEL1NlKxZjupVKuDVK7dSSrX7SpV6naXqnW7mc8TQghdpXKtzlKx1vFSqWZbk15rKV+1hZSv1EjKVqglZcrXlLImlCpbUYoXM6Ra4g0/jzHl2yxJsSslfs98ids125R/psRu+VP2bvpN9m78TfZtnmjCH7LP/L1v8++yb8sUUxfm+faulMSDWyQ5cb+ZBBywE4QihqQjTqxQSUOwKMJHWgLaAW0Kg8A555xjBXskwYDH4MmAGikwuKHlufTSSyOu/WUDEINkjx49AlcUhRl4TaFPQLDQMtMusLW99tpr84w2Ge0m5BVNaXr9nOtu1Ya+k1Y8OBUTRQgzq1AQvPHjx9u/eW7ygYS6jcDUC3lCmCHYGzZssGQQcgmBxa/7ggULrCcbfoNwQgbR6kKcX3vtNTsh5W/KDwnGdpnNt2jumYigrYaYtmjRwhJSNgaynwB3bG4yS14Q+LffftuSbcpFudnXQHn4GwLNM/AsTNw56p5VKZ4DW/O33nrLpgX5ZTLxww8/2Lw4cZEVMSYj0FGeh+egLkmbPROYrpF2eu7hqA/Ga1bZUPKm9470uOt8DtUshwbfkRRD9uLkyGG0wHGWBGLSgLlCyqHtkpK03wiWRBETz2puDZkuajpxyVJVpFS5GlKirAmlKkpUsZJSJKqk+SxlQmkpGlXC/F3MdDhcfJlgPs2NJrB7n05HFzHB9hTXXdzfIPVLmAh0aPvhOrf5POpvgyMBLbbVOPvDkcMETEZMXaAxNwSYvzEdSYzb6Q/xu009JZmkoky90JfN85hkixaPllLRjaRkuXpStkobKVO5pUSViDaPXMoIvTK2bhQKhSK3ANH673//a5fn2XwKocpLiJRmGbqF5hciiptGSN5HH30kr7zyirz44ovWzpeJNcfPQyQh1sSFAEMguY62FTth9h1AKDmu/rbbbrMbH/FCQxkglV999ZUly6Tdr18/aweOqQvP8MADD1htMiQYsoytOPc/99xzlgDjiYTDlNDsQ9Yhw5jIUB4IMyQd0s1qGZpt9jtA6CG9lOe+++6zAQ03JJ/Nmexh4B1DWJkUoJXGLtudvsjBM+SLSRublTlwhvbAytbUqVMt4eY0xrR4KeXLac2yrtEq8jSOGBIYv2+1xGycIJsXvCVr/rpbVv52jSwff6FsmH6v7Fv/vfgSNkl0pZpSu3Efadrxcmnd615pc9JD0qbPo9K696PStNvtUq/dJVKj6QCpVK+HlK/VSaKrG5JYqbGUjK4pxUtXlmKWLJa2pNmfcYqR4AkmxAc+DQk3ZRHshm3ALMMFEzdLIXA/aaWma/IgL5tnIBDH8HFIPGWE2FJmyl66UiMpZ56lgnmmSnW7S/UmA6Re24ulSddbpVWvR6XNyY+ZOnjQhPulaeerpF6LQVKlRgspkrJT9m8cI5v+flRWjB8qKyZcKWv+/K9snPuyxKz/xdplMyFRKBSKnAZk55lnnrHeGvIaUY4kIMeYH0DmIIeYJTgPNpijUA+cSIeW1H3H9h8NO98hwVxntYfrpAcJhPRCRjF7gEBDOD16UAv+hmiiyUU7DGkkrRNPPNGaXKxYscIScdLKCKSDdtaV030nUB4HnhGijSkIn0OHDk09yRRii+kGmmx+R/vsCC6mZJh/kBYTBYg5BJiyHUsoWVbkOaAhPbh7kWxb8qGsm/6IrJp0s6yfepfsXfOFRB3ZJ1VqtZKG7S6Qlj3ulrZ9n5IWPe+zBLFqo75SrkpLKVGmmhQrWd5v24sWGXtgm7AhqEeRXQgrWlvCkUBAwLiQl2DKQ9lSy2nKTNntM3nINn8b8MxFi5WQqOJlbF2UKF3F1E1zqdKgj9Rpfb4063antO33tLTseY80bD9MqtVpL8WjEiV20zjZMO0eWT3pFlk79X7ZsuBNid0+yySrXgsUCkXOAXMMt7m0IAIyiEaVEwnRnmNqwjHz2Buj7YWEOkLr/e7+Tus64G/INBpb8iAtyGlagIBWr17dklyXBmQX8k3ZvKQ1I2RUHgfSwRwFzTPknY2/mNkQnzJCmMkXEwvyBZQPjTmfLn2eDQLPPccSSpYVeQZHUhJl39apsnryfw1Zu1l2LX1fjsStlBr1O0vzE26Tlic+YLXEtVqda7WoaIYxo/CTXRccmSQECGaeJL85icDzuuc/qk7+qSs2B5au0MDU5QmmTs+RJl1uMuT5AWnW4w6p0bCHFEneKrtXfCJrJt8qq/+83dqAH0455M9CkSkYsBiA0hu4FApF4QGEb8aMGdYsAkJ46623WhMD3Dmi5c2unPBqddODI7cOEFoILJ4n0Fp7bYKDy+P+DoVMA/KhTDw3xJd83L18umtOW57Xkftk2dRVqJWtKDxIjt8jG/5+2pDk6yUxZp7UbtpHWva6X5p2vVVqND9DylVvLSXKVqPHijVVQIMK6StUJDjSgEibOrTaaVOnhkxj3lGuaiup0WyANOl8s7Q66VGp1/psSTm4WtZOuV3Wz3hMkuJ3Bu5XZITJkydbG0A22igUisINyCPeJCCJw4YNszbDmE3wN5PqYF5EfK4Fk2BIa1rXQwFpssHW+UWGpHJqJ3bK2Bw70wrSxl6YshGH8nEf5DYYjkSnVR601mxkJD/MTig3+RLcqaO402RVwUvi8yJynywzPufxSlHkLvBosW76gxKz+itp1P4yadvvKane+DRrToH7NL+ZAWYTSo5zFgHyHKhv7Lcx36ha/yRp3ed/0uyEm+TAlgmGNN8jKckHA/co0gIyjoMF2N3NMqtCoVCgUcb+FtLMQUK4b8NVHGTUASKJ3TFklYN72OiHOQPEk/vZAMgpeWw4dJvZIKzBvIq/g69DaOfNm2c313GSKJ4n3n//fWsqgYs5ZxqBLTGb6pBd5P/jjz9av8+OGAPSglxTHtIhHuVx+bq42EdDxNnIiMcT4s2aNcv+TRxc0fFsaZUXpHc9t5G7ZNk865J5y2XCmD8lZve+f82kFIUTB3fNl91rvpMGHS6TKg16m3ZhmmXAVMD0kEAsRa6DunfvwaBC7S7SsMMVsm3pSInd+pe9pkgbyDZ2nrNpCTdpCsWxxpEjPkk5fESSUw7bkJh0WBISUyQ+MVniE5LlkAlx8YQkOXgojGDicx/3k44NJl3ST0r250W+lvAEylJY0bdvX6tNxrMDE2kII0SSjW+OMKLJ7dOnjyWumGzgfQJvHNhzsxmPeKxYffjhh3ZzIJpgyLW734HrkGt3HZnE3+QPCX/sscesdw1WwPC/DFnmHZEvLiPRKuOhgzj4eEYDzIY7yDwgPbxskM8bb7xhPW9gf+zKg3kFdsbchxcM7sNrBvni7QL3eLfccot06dLF5sXv5B3sLpB03PMdS+Sa67giRYvIYdNx3njqQ5n4wxR58p37pUNX/xJEqLDk2vx/xHQ+/4EOgR+OAVxZeKaiUdmbcxR213G7Vo+y3hgadLhc6rQcYl25Wfta1SLnEdDW2XWdIrs3/CXzfnxQ2g/5VGq0vCTwu0KhONZIggQnHzGfKebTfE85YkgqBPmwxB5Mkt1742TvgQRLag8lJBlSm2LIMoQ2xZJZFw6n+OSwJVf0fP84x3hnPiygDH7W4BPDv834VcQQvCISVbSo/SxmSE9xMyaWKlnMhtKliktZE8qXKyFVK5aVyuVLGeJTzMQrav3IFy9u4heLkhJ8N59FDVfIa4iU6zi0sfhDRjNMHI7y5lASDgKBiOLhgvswd0Bbi5s5XMxxIiZ2zWyE4zqmXfht79mzp9VK42udg1zwm+yIMd4j0PpSJkgo2mncx0E8+c4hI9yLP2TK4eymuZfnJA+0z/yNRwrSwGMH+WI2AYhHeYjHxkG0yGiXMa+g3O4UT9LA7ILnwewDjTSkHQ22M9/g2agbCD33Au5Dw0798ByU3UNZU8EEg/LlpOu4XCfLzz/4loz/bqK8/Onj0rlHh9DzMM8eH5cgc6cvNDOPktLhhLZSzHS4tCoup0Fnjjt4SBb8vcw2ru59OqX5ckJFYSfLB3bOlYXfn2YafJRUbzJIqjfqK2Uq1DdtxrmwMe/Yvubcf9eFFrY9B9q0aePxB7fK7o1TZNuqcRK3Z7O0OeMLqd78Av/vBRDOng5H/QyUCHkGFgYKXC+hPcGxP9cR8uz0ZkBBmDts3LjRDgxoVhgcGAA5yY8BhnS5H+0KfzNg4lIqXEFO3gxU3Mdggl0g5UYLRXqc8oW9IEuvDKhobfBVinsur40hcSgb5WUQZ/c6cSgnGh80WOTDde532iXkN4cQ8Ml1N4gqcgZoaffGJhjSG2/eU5LEWS2uX6sbsz/BEuL9cYlW44u2N8GQ58MB5VLRoj471qDcsQTXfJYwYyiENcp8L2baQ1HILp8m8DuB3+zvUSz3+7XThyHhRi4ctoTcrzW2f5vrR8zfyaY9JCYZ0m6It89nrpv7uA4J95nvNL2SJYpJ2dLFJbpMCSlXuoRUqVjGhNL2exlDsstw3YSK0aUswS5V8thpFmn/9FXvJrVgcD0zsgwgdvAWAvXMJ/2JPuT4EPdyjXoF3vgE73XikiZyxF0H3E9w14mHdjatNLnmvTc4f+K4T28+aZUzrfK4eIBnJB2u8Z17AH9TPm89AOKm9XxehEKWAWQ5WHMdKnKULFNgf6FNBVLJpvO88JAhy9//IS8Nf0w6dW+fmoc3rvnL/OvvVA5UxvJFq+TmC+6Tk08/Ue568kYpYToPnRX477ff7N+AR/M8nh/mZwSFP14grzTi/as8njglSpaQpfOXyz1XPi6tj28hT759nxQxwsRnBEVWoGR5viz9cbDUa9ZTdm2cK4eLFpcqdbpJhWptpXTFBqa+K/iJs/8F+1+J/x9FxGDqNlC9pqGbvndEkhL3SsKBrbJ/5xLZu2WGHEmOlaq1j5MtayZJk5M/kGpNhgRuKHh46aWX7PInjvkhoGhh0G7gngmH/pBQ4kAgIdOQRBzr44jfEV6WMEmDwPGyaHmuu+46ax94/vnnW7tBd+oWS7EcKHD55ZdbWRcqGMCvvPJKS2I5VAD7R4615QQ+llUpDydl4a4KTRPLpMR79tlnrVYKoGViCfXjjz+2v5M/n5BflmBJB+LP8cOUneVfBh2A7eE111xjDxBgaZhDCRTZwxHT/yCdaIb3H4yXLTsOyJadsbJnf7wlytt3H5TtMQfM5A3zBnzeRkl02ZI2lC9XSsqXLWW/lytT0kzqikkpQ4hLmDj+UMyS1OLF/eQ4VaamhaNErPcPzz0Z3M5PEGm03Gi9Ic+YZXg/Mfk4EJcgsYbgHzhkAkT/YKLVfEcZck6ZqxkSXbt6tFSuUFoqGeJcs2o5qVsjWqpWKCslSkAIDZnPYW003iKc7bCfF6QNzCkgd0w+M4qniCwg2ZBl5Gl67wiyjgLB6/EjHOTYcdcUNv6QmQHHmE6+K8YMvMkSZWawsybPk9XL1slpQ06W2vVqppLQQ0Yo7N9r4u7cKwcPHLJEGTJMw7O/x8XLhtWb5ZfvJkrDZvWkbceWZqZxxKTpX7ZJSU6R2P0HZe+efdYeOtlUWFHzG8s9DpQJE479+w7YfPbt3W8qNtnm4Y0H4kwZYnYTJ9aS/GKm05IXZUkwz7V21QaZ+MNfUr1WNenU4zhJTgzECcyewgHlKszHXSfFbZPda76Rph3Ok8q12op544agLZC92+bIHkPSDu3bZN4bGyDMpAsRzP9mgmFP2KNT2EBK9h9FhnD1FRgoTUDzwxHYh5MPSeKh3RK7a6nsWPubbFs1VmI2TpWE2LVSvlI9adj2TClfuZHs2DhLKtUfJGUrtwqkWfCAjd73338v27Ztk7POOsu6eeI4aY6FZdMLy6homCGTnLrF32xeYbkUIg1++eUXe3QtG1hatWpltU3Dhw+3BDMuLs4ScQgoBwJwL9pfiCla6FABAWeDzvz58+0SLCdlQbhJf9SoUdY2EW3LXXfdJddff70ls5zshRxjNz6DDMQaks3zEY9TtyDKX3zxhX3+QYMG2SVWCMPnn39u8+VetNo8PxuV7r33XjsQKbIA8y4OxifLvgMJsmHbfpk6b6P8MnW1/Dh5pfw2c638NW+zrN60V3buS5DDR4pIjarlpXWTWtKxdV3p1r6+dG/fULq2ayBd2taT41vWlRaNqkuD2pWkVrVoqV6pnFSqUMaS57KlS1iijIYYOWCyte0gtGCLGQhp/f7vAOkHxcy4D0knf8pRuXwZqVq5rNSqGm3L2bxhNWnbrJa0a1ZT2jWvJR1a1JYOLWtLy0Y1pH6tylK6VAlTN4my0Uwalq/bIzMWbbFh6vyNsmDldtmy64DhAoetFhxAnv0KscgBpR4TSLSb6ZFgtJ5MmtFcejfsKXIWtDVW+pjkIw/Tej8ujtfmOlzkiGaZwm7bvENGf/azTJkw0xDdQ1KpSgUZeF5/Wb5gpfw5frq8+Mn/rGaZ7FctWyvffDRWli5YZeNyrUmLhnLhNYOtqUZsbJwMf/NrQ7Tnyprl66VqDSMIDNGGqF5716VSo1ZVGfvVrzLxxymyc9tuS5xLly0tp5zVWwZfMkgqVi5vakskIT5BJo+fIeNG/io7Nu+0S1plzCz8ilsulFMH97GNHZK+dMEK+Xb4D3YzIjP8SlXKyyBT9lMHnywlTcf94OXPZObkObJuxSaJrlhO6jWuLVWrVZbr77lM6jepa/MPB6pZnifLfjpHju9zixQvXdG8qyOmDuMlPnabxOxYJgf3b5Hk+APiM/VUokwNKVOhgZQpX1dKlK0uxUuUswdv2MM3TCjKUc0QwaPVIgaBv4MvW6R5MR8gSCgc9WewwOBvM4ClGFKccsgSY0JyUpwkHNxp6nqTHNpvZuVm4kK8EiXLSvkqDaRS9dZSsmxlU7elpUix0pJ4cLssmPSqNOr9llRreo5NuSCCDSiPPPKIXHvttfZoWbe5BO0xR75CICG+7BwHbOTjoAE2sNx55532GkSSvyGdQ4YMsRpkNMrsMmdjD+6jAHKWjS6cXvbtt9/KOeeEXq+cugWZZ5D47rvv7MYggCb83HPPtSYZn376qd1sCDCzYFMOzwOZx84RuQcRxlbQgTJB8pkEsGMfso8GHc04x9dCrtEyo1WGhKNzQemgCB2Q411742T9ln3ylyF+m3fEmnHgsLXbrVqprNSoEi3VKpeT2tXLW20xWlZ+g3xCCBFbhpaa8dJ8mn/cZ34FHAfuYP9z382nNfkw7REtNZsGD8UnybbdsbIz5qDsNmH77gMSn5BkbaMb1q4gxzWrIc0bVDZ1V9baSJNGdkEfoa9hjpFeO6fuMX9Cu0xfgVgrcgcoClBGsPqX1vvh3RCnadOmWSbLEZdu2EPt2Rkjbz39sYz8aIzUN0TyrIsGSPuubeX3cVNk7oxF/o7uwYxJc6y2uXPP9nLusNPlxP5dZcnc5fL6Ex/Iti27bPzyhpRWrFzBdqASZoZQuVpFqVSVnZ7FZPeOPTJ+9ET7+4Bz+soQCHKl8vLx619Zkw+AzfSkX6bLS4+8IymJyTLo/P5yzsWD5LgubQzhKmaFDpW8cM4yefbeN23+Jw/sKWdfeJpEly8n7zz7ifw4coIcMZ22fKVoqWDSJ01U+lWqVTJlqZiqeVZkA/ZEvSOWnEVXaSwNWp8ubbpdLa26XSGNWp8m5StUkaQDa2TXmnGyfs5bsmrGi7Jy2vOyZtYbsmH+x7J56TeyY83PErNpmsTuXGwI4EZJTtgnvsMpJlkmf5jtEHhPgXdlJbNpk/8KVmL/O1jimV7IDGndEwhp5WVDGmWz9wD3HEz0CIdNSJbkxFhDgDfLgd1LJWbzDFMn42Xzkm9k/YJPZM3fb5k6e9HU3cuybvYbsnP1d5K4f4WUKxctDVr2k9YnXCatu18j9VoOlHKVG0jxktGmGEbABE4HLAxgcEQe9OrVK5UoAzbDIIPYle6IMmjSpInVXLAZJSMgH7BvZiOMA8KbDTakm9UjXckfDbUDeUCEsaHkGRwYMNhUw6CPbR/gOSHKmFqgOcc85L333rNlQUPmfKuilb7jjjvscueTTz5pTx+j3Ewg0iMQ6QFyD4mfNm2arWtAedDEoxFHM+6A1hzvAWjI8ztYDV23Za+M/XOFvDR8mjz6zp/y8diFsj8uRdo1rysXDDxebrukl1x5Tlc546TWcsJx9aVezYpSIdpvs8tYiN2wfwOfIZAmvcPWZtivzc3PoPg8x2HTHqz5hnk+zDX4m9VjtNPly5WUmtWi5fhWdeS0ni3k4jM6yS2mvi4d3EW6tKsvB8xkY9TvK+TJ9/+S5z7+S774aaEsWrXDev3IDmjfaIzpo+mB31iloR0X5JMI8xp4L/AwNP/pvR/6Blr/cOWUF1m/MwNM+mWaTPl1hvQ/q7fc/8LtcsM9l8ldT94gF147xBaaJRP3UAjK7id3lodf+a/89/Hr5ao7LpE7H7teTjn7JFmzYr3V8pYtV0Yuuf48ufrOiw2JKiaduh8nD5p0b3nwSqlWs4qUM2T2pvuvNNdukxvuvVyuu2eY3HDfZVajPPX3WXZjIaYUkHLMQYbdfL4p0+Vy1Z0Xyd1P3iRdex9vyxW7/4CM/HCM7IvZJ7c+co3c9si1cu3dw+TeZ2+R2g1qyc/f/S67d+6Vy28eKlfdfrGUiy4jrTs0k4dfukNueehqqV6rqt1MoYgA8IbhgkHJMpWkYo02Uq/1IGnRZZi06Hq5tOh8kTRsdZpUq91KSpYoIvH7lsuOVaNl0+LPZN3c/zOk8A1Dol+T1TNfkVWzXjdkergh09/KtpU/yPY1v8qu9X9KzJaZErt7mSQc3GZJdUpCrJlMYXpzUA4noX2NlyPJCVYjeyQlyQbfEReSA4GjSgmBzQoER8Qt/H/zmz8OhBbyTvCnccSk59L352XyNPnaMiQdMGUixNoyUlbKHLNlluzaMEV2rJ1gnulH2bJslGxYMNw875uWCK/m2c0kgrrYtGiErZtDexZLiajDUrVmM0uMm3e8UFqZumzZ9TJp0O5sqVyng5QsW8XfP496B97nKRyAJAdvuOMay33YCHvBdQSxI37pwQltiLUX/E2dZ1UbRZpeUg8BJzBop5WXt5xoZDDlQEuMiye06h988IG1fQ4eXLBNHjp0qPz888+WxKIRdzvXwwF+Zq+66irrcgqCATD5QJsPISdvgIYbG2niQuTzKyB+y9ftlrdGzpJnPpoqn/2wSHxmAjrgxFZyzXnd5Jpzu5nvLaRZg6pm4GcDmBkbzT+QRxf88qPw9UPAY/Ps3vqwwVzD/KJBrUrSp0tTuWJwV7nugm4y5JTjpHqVSvLLtHXywifT5aVPp8usxZslwfCArIIJZWZkizKyggSBy+pGMkXoQBbzXtzEPj2yzHVkZHq/h4KIkmVmvQf2H5TZUxdYbe3ZFw2UKlUrSUK8GfwP+6TbSZ2kXadW/+r0Ldo0kYZN6xkiGiPrVq6XLRu2WzMKsGvbbkGDS6XgLYFBuwiG/2Ym4QaH6ArlrN2wqQnZvH6LNdUgz+gK0RJjyK0dGMxvpcuUlOSkZKvF3rZpu5kBJtk0y5Q1M44iRWXT2i0ye/p8aXN8c2ncrL5s3bhdNq7ZbPNu1rqRbF631WqxMcXAPhlQ+cVLmrKY583Oi1BkAtoL/n45MMOQt+Ily0mZCnWkUu12Urt5P2nUbog07zxMWne/Tlqaz+adLjBksK9Uq9VCostXluJFEiTp4FqJ3T5LYjZOMsRxrGxe/Kmsn/++rDFkevnkx2XZn/+T5VOflpUzXrJEc+3sdwzR/Eg2LPxUNi7+0pDwr2TTEhMWf21I9yjZsnyMJanb1/xibXx3rv/DeozYs3m67Nnyt+zdNteEefb7nk3T7W+71pu8Dbnlnq2GtG9ZMcamtWnJyEDaX8lG87lhoSH88z6UNaYMq2e+bjXoK/56RpZNfsyWlQnA+nnv2WfgWfZs/ENid8yyWveoIockOrqCVK3RVOo36yXNjz9fWna51GqLW3S5TBodd47UbtHf1N1xUrZSXSleiuV303bdwS+evqnIGeQF0uPkFdpcNi1ig/zQQw9Zm2bMQbCfDjbFY/MMS8zIXog9GuKsAK8ip59+uiXfjswz6GFGgg24s9uGnOBlBLMXtOf5EVt2xMonY+bLk+9PkUWrd0v7lnXluvN7yPkDOljNMeYWkD429EEAFeGDevN76TgilcqXkXbNasmZfVrL9Rd0l/49WsiuvYny8qcz5eUR02Tx6p2mAwZuDAOsqMAFMuq79Ckmf5g7EZ/Jana0mYr0AQdkpYxVMlzapVfPvC+UHpDl7CCib5GGcjA2TnZs2SlVa1aR2vVrmgbsn8kdMQSnREkzC8B8wUMqecANhqR+/dEYeeHBt+Xhm56Tu696XMZ9/avhRIZUB4THUQTbfHj/xhYZTfa7z30iT9z5stx3zRPy7H1vyKZ1WyzRJh6z9f5n9pZGzevLR699aeK9Ij9987shxNtS09mxdZfdaLhy6Vp54q5X5eFbnpNHb31eHjGfc6YtMEQ7RZITk4/KG9hyev5W5ALQdkLs3GlzRaOkWIkyUjq6hpSrXF+iqzSRyrXbS83GvaRui1MMmR4szToOlZZdh0mrEy6Tdj2vkTY9rjFE8j/SqPVAqde0l9Ss38EQzMZm0K4mZUznKl7ssBQ5vFdSDm2ShL3LJG73PDm4c7bs3zZD9m6ZYkj3b4b8/mTI6hjZvuJb2bbsK9my5FPZtOgT2bzwA9k4//9MeNd+59qWJZ/J1mVf2rjcs2f9zxKz4TeT1p8Su3W6HNjxtxw0eSTELJXkQxtN3vukpClD6TKlpHz5alK5RiOpWa+91GvWWxq3GSjNO54nbbpdJW17XG1NJyDEzTpeKI3NxKFey9OkVpPeUqVOR4mu2tiaU1A3xUuWtXXlJ8ambxZizXFhB3IYuYXGFpvlp59+2to5Y1rBJkWuBQMSjZkEWmi8aeDxg42J4QIfq3joYOOkU3pg5oFHDUxAvH5W2QhJnpi+5Des2rBHHnn7D/ltxno5qUtTuWnoidKnSxOpVb28HfucmYEicoA4WxMVS5xLS+c29eSqc7rKuaccJ2s3x9r38euMNYHYoYN2Goq3F9osJgG4amQiyCTQrfyw2sN71xB+oO6YrKCxp06ZjDBxZ2KSGf/ivYXrljMYkZ3ymEaSnIxD9BRDTk3DQBPsnsF88jyQZgeILNrkN5/6QD55/WtrYtFnYE+54tah0veME23leOP/G37S/cdPU+Xpe16ThbOXScv2zWXIsDNk2M0XSL1GdQyf8p8axIyzY/fjrEkFNtSbN2wz5PwtefHhd6x9MmXBPIRKr1K9irRo20RatGtqPptK8zZN5KTTesoFVw+WGnWqqalFXgSNyxI/824g0RBBqyXlmr8R+n2NFreHnrARsETpClKuUgOpWKOVVKl7vFRvcIIh172lTov+Ur/1IGnY7mxpYsh0s86XSEtDSlv3uN5qrlsbkt2av01odcKVJlxhSLjflMEfhvlNRTpfGgjD7DV/4PfLpVVXc4+5r1W3K006hux2v9qQ92tNuM7m1bzTJdL4uHOlfpuzTFlOlzot+0stUzbKWKVOB1vmcpUaSokyFeyz2Gcyz2a9hICj6sNbF/76oJ3TT7Ut500w2L711lvW+0RObhSiHaA95hN3V3zHRhlvINgTI4Md8Kf88ssvW5/QaKCxVaacuNDjE7DBhk2NmGlkZpLCwMcg6AX5efMEkA/i5jewAe2Vz2aYsbCk3HhRTzmxYyNDmPw2x4xHmQ3wiuwD/852MmKoQptmteT6oT2kS9sG8s7I2bIIDXOYwJuCm9xlBNosk01cmWHmxD1omSF5aEM1hB+oO/zYQ5axC2cywibjjEAfY8ISjoeh9BBRsmwLVqqElClbWmL3HZC42DjbaAAG+gnxSbI/5oAZr/0uwDjxZ96MRTLt99nS/8xelshedftFMuTigdKoaQOTnr/RBcNeMf+wmfCAyefHb34zZMAnt//vOrn5gSvlkmvPkV6nnCClSmOb949AIi1ODbz5/ivlybfulTOHnirTJv4t3332k3VNh40zaTZv3VhuuO8Kue3ha+SWh66y9si3PnyVXH/PMKnToLYl1amgMP8uoiLPgvYQCDSwVALpAuQyOEA20cL6nftHFStptdjFSpaTEqUqSskylaVU2aomVDs6lPOEo36raj1McC+b50grqjibRwwhCJQhJSlRfvhtvoz6cY49ACe1bEeVleB5HhtCgOkH23fGymvv/y6/TV5qBm5zXxr9rDADogdJDSY07nowESRe8PW00oCMBps2AOJy3d3PgSVsops5c+a/CKUXpJ1empldJy/SxmUcS5p4tHjhhRfscbR8YpdN+ZGbbLh79dVXZdWqVXLbbbdZzS/HeOMxAy8cmG4ATvN6/PHH7QEnacnuwoSxf6yULTvj5JKzOlmvFmg6g5qTIhfBBAWPGWec1Eoa1akin/240Jq/hAM0xBDmYLmQFmj/mC0xgcQrDZ/YM2vIeqAOIclok5FJocgYiHZ2TTBAZMmyIaYVKkZLw6Z1Zde2PTJryjzbqNAwcygJm/WWL1xltbiOZO7avsfM/A4bElrTupdDOG/dvEMW/L0kIKj9aUMESIPKSUjAbtWvhTh0KEH27YmV6ErR0qBJHXOtqMTHJ8iiOcusjTG+nUmCcsQfirdu3UqVKSXtOreWodcMlsrVK1nbZMwv6jaqLXXq17QEHttntOPFTcCEIzEhSfbu2W/LAbBxhjhhG23LYn3+2p8UBRrmZSMoU4MjrVkNnrQCbYt2tHPXAbnvqe/k7v99IytWbxcx7ThiMP1v87a98sQrP8rY8Qv8hErb7lFo3LixJYMcQuIFtrbY1Dpfyg74IcYlG6f1OWBjSxr8BiCkXbt2teYEfPcCrxXEJX3AUbPIPw4zyYgso63CHKJLly5HaWRdXj169DgqL+LgNaN3796pG5BwZ8fGPgZ23Nzh2o5r+IDGbzTaHI76xT4ZbfKZZ55p7+N+iHPfvn2tWy2WRCHLHHFLvoWdLC9Zu9N6b6hasYwlaopjD5RnHOLSqF5lWbJ6p2zcypgeOmjT9Gf6RKiEmUDfgtxhX6sh64HVL+fDOjP5wvtBPuIVKBKIrJ9lU3aE8eRfp8uz975hhGkJufDac6QBm/e275aJP02VxYbEQjzxs9y1V0f54+e/5H+3PC/NWjcx5HWIlCtXRuZMmy+/jp1sSOwOq9G9+PrzDK84IhvXbZHbL3nYmmtceeuFUq1WFWsW8caTH8rMSXOsxwxMLXZu3yW/jPrDkt46DWrJxz++Zpdifvx6giHcZsBrXFeKmnIunrNUhr89UgYM7iu3PXKNJcYjzN+fvPalHG/SOeP8U6RilYpWQ84x21WqV7YePXiudas2yYM3PGOI+n656YErpHK1StZcA5tsr3YpFKifZY+f5ZLR5krmQqhAwwiBgwfi5ZX3fzMTv2S55aq+Uqt2RRE0wJGAmVDOmr1G+pz7klx67gnyxlMXSolSxc1Ikkn6RaLsoSWFwc/ysQTy45577rGmEOPHj8+St4msANdxuL6DuHvd4oUKyD0km8EM0o1GpzDj9hd+kekLNsmbD50jpUuWCIlcKXIWfoLlkxc+niTbd8XKq3efJq0aV/P/GAYwseD0TEiwIu+BvoaSAKUH5huRQORP8DO31Kxb3ZJeiDHa5YWzlsrC2UulfefWhtxWl5hde6Xv6b2keu2qUsmQUTxozJ25UBbMWmI30kG623RsZQj2HkN+20nrDi0E22M0wixJz5+xUObPXCzrV28yhPt4S8bRWM+ZttDks0SWzV8lbTvhTqy41UYP+k9/U7AiMu6rX2X05z9b22YOOCE/DkYZes051u0bpiL1G9exmu+Zk+dZrx7kM+OP2bLblPmkAT3sBkEUgmy6oizkBymHPB9/QjtDqCuFTZbpwIX7BL/tsnvV11Kr4QnWxCFksEJBY+HDrlZ4QnDTdXGDQVx+88Z3aaV+NzMs97dDZvkBbgmOF4x/5eX/zumVJ3VvIf1OxJtH6aOJLFFS45oQrHlM/Z1y83fg0yVhftuyda8M/2aGtG9dVwb2bXv0/oL0YNLhIJMd62dIpQanF+gT/I4lGIghm/h0ZsNdRprlSIJBBWKe1SVLdqRzUAsadrTvhR0Tpq+VFev3mG8+qVu9ojUBSEsEKHIHjLMJicny17x1Mn7qSqleqYwM7ttSypcNY8wJADtY7JDRdDLeZ6blVOQe4K28Gyb9rHJF6t3kyAl+CHe0DBxPvXLpWuutoknLhtYW+FBcghyIPSjVa1aRkqVKWoLK8dYrFq2WjWu3WM3scYZUY2/McdP8Xb5itK0AHhqCumTeCuvmrXaDmnJ8t3ZSyqSD5wtOACSv5m0aG1LbQGL3HrBmF5B32AKbCVctWWO9dUQVKyb1Dclu0qK+VKj4jzYYm+XE+ETZsGaLjZuQmGTL2rR1I6lavUqAVPjLgp3z0vnLbdxaJo+O3Y6zLu9UsxwewtYsm7aflJRi7W5ZUqtaqZxs2b5Pdu32n8dfq0ZFM+HzH2BD3MSEZNlq4pYrU0KqVSF9P2j5u/YckDjzvmtVr2BXDJiUbduxz5agetVo2b4jVnaYdHExWLdWRalWrbwhjIdl45YY2bHrgLle1N5bu2ZFk58/XQvzTtkotWX7XlOug6ZN+KRKpbJSr04lI2hL2MzJn7wOmy/VzDNgGrFn70FpVL+aKWc5U+b9tipqmHJYV4UUyvQX+zzb9knMvjiJN8Kf42zr1KokFSv4d/smmrrZufOA7Nl3UOLiksxzFTd1Ul5qmwHbkuaAZvnk8162muXXnxyqmuU8BFy4YQrBSWAtWrQIXM37gORPnjzZetPg4JPCjntfnSBrth6QhIQkqWnkzqk9mkvDupXtsc/0fTq0/1ORE7Di2Ahl5DKHuGwx8nTizNWydM0OqVSxnCQlJMir9wyQukY2ZhXOhtZvMuodABTHAo4oY3qBCV0k30mOkGVAISGeNnnzv3XhZgZjyo62l134LmvINfH52z0bP3E/5MVLPr1x6Q3OtVyaeZlPknMb8vwnBwbu5RvxzHfy8II8IPFuc6CtcPO/9awRuBekVRbv76FCyXKYZNkQ17Vrt8vND35lN86c3LOlfPzlVFm2epscjEuUbh0byeP3nC0ndmvGy5NFizfK9fd9Lv16tpJH7zoj1baTNvjwc2Nl0owV8tZTF8rxHRtLnCGgV905QpLMbwP7tpFvxs2ReYs3SWJiigzq10YevP10WbZym7z6/u+yyghdnNx3bt9Ann5giHTv3CTQcM37NJPCr0b/Le9+OlnWb+RUNkOIzYB59SW95OqLekl0dCkjrJPlmrs+lX2xh2RAnzby3mdTZOmq7fLio+fKVUNPlCvvHG53c7/+xPlSq3Zl0wBNH921Xz75eqp88d0sQ6732fxKliwuD942SG66qq9toyPHzJY3Pppo88X8CDdKHdvVl//990zpeYKpE9O2lSwrFDmLe16ZIIelhHRoVVf+nLXSTH73SsvG1aVDi9rStH5ViS579IlwWRk7FEfDW5/IXOTzhi0xsnjVDlm4cqslUj07NjHy/YhMnb1cXr93YLbIMtyEFRUO1HG2tIpjA/oP+yjQKEfC+0Uwcmx9j4JDRhzZtd/5NH+j7fUKBv/1f34n8J14fHrhjevIa7p5mU+v5wp/2oF7XTxzLRj8xn2p8cw9xPWWGbjfbLxAWRS5ACMPIa+Q1R9+XWRJ6aB+beXVJy+UYed1k6l/r5WnXv1JYvcfssTwYFyyLF6+RTZu2YP8TAXva4O5tnTFFjl4KMnGhVyu3bRbfp+yTD77dqYMOLmNvPy/82Xgya3lu5/nyw33fi6vfzhRTjJE/LVnLpJLTX7T56yV517/xdoZQ5RpD599O0Puf/o7qWrI/MuP/UdeffwCad6khjz24jj56vu/bTnIf92mPfLXzNXyoSH7vbs3lyfvPVvatqgjSabtr1y7Q1aaZ8QXKxv89u07KE+/9qM89tIP0qBuFXnmgcHyhinDlRf2NIOAmSyafDmhcua8tVaD9eR9g+XN5y6WG4f1kVnz1tsNfTF7D9rnVCgUOQ1OmDtiV6jO7NdeBvRqJwcOHZYxfyyRz8fNlR//XCZLzAQ/9mCC7e/IA6uXMf9oDw0drs4AioG4+CRZZ+T6H7NWyxc/zJOvf1kgazbvla7tG8t/BnaSFo0jtwcAhRneMbCNxZcvfytyH9Q79Y9by5wgykDfrCLfAvmYaAYZCPK9/z1DLrqklzx295nS64QmMm32Glm9fqclr8TDTSGrBcHgmn+FIHDBIMpci09IlguHdJE7bx0ol17WWx675yxpUKeyIeJr5MQuTeXJ+4fY/B41+XY+roHMWrhe1m02ZNyQ2g0bd8vL7/0mzRrVkDeevEAuueJkueiyPvLCw+cZ8hwtX46eKbv3HLArHRzVGmNI/Uk9msvzD58rd98xyH4HRU2hKJ8tm/lnwuSl8vGX06R/r1byf89dItde008uuuhEecKUbejZXewAi1nK7Vf3k3efv0SuuLqvnHdBD3nElLGPSXPu4o2yyhDwiHrWUCgUGcJ6YDB9rkXjGnLmye3k9JPbS4UK0TJ32Vb56ucF8t43M+S7CYtk7tLNdtOZJc+G9EGZ/fIJGeCXA/+WYIUDARFo68HJRT5RgB2MS5JdMQdlsZl4jDMTkfdNfQ4fM1smz1knh31FpE+3VjL4lPbSoXU9KV2qhFWIRBq4WcRDDmQN23/8glNWJkCqRIssvHVKPVPfmH1R93gpySnoqKnIt2AQat64utX+SooRgGaQqVGtgrRvU8+SXdyvZQUI4Pq1K0nfE1vSM0UOJUnj+tWkQd3KUqVSORnAhrgyJWx+mFY0M2WIj0+SmH2HrD3wjDlrZdW6ndKhTV05ZK7Pn7FK5s9caQfBGtXKy9oNu2XLtr2WLCO4K1csI4MHHC8lo0uJGSWlKK4WPaMiQvewSee3KcslwUwObrqij9Sqb2bP8cmmbInWrKl8Bf+mLGzqG5hBGSyft05mTFoqk2eslBRTP0lJh/1l9CauUChyHIgR/Cyz94G9Ayd2bipDz+gig/q0kzq1KsuWXQdl7KRl8s7X0+Xj0bMs6ZthJuBLVm+XDVv3yt7YQ5KUbGSc6buWLAaCn0QHh0Cm+QSU1x+Ofo7g50Qux8YlyKYd+2T52p0yx0wuJkxbKZ/9MEfe/mqafP3zQlmxYY+Ujy4rJ3VtKRcM6iKn9GwtjetVtSQZGZiTxBXvC2g1mzZtmqrh5JQ5NgM60z9H9DSEH2gD7gQ/JifUL/VMfeO9BxObnESO2SwrQofaLIdps1w8SpYZQXnmsDelfp3K8sOnN0uZMn6fsaggHn52tDz35ngZ9cH1cuZZnWTG1JUy6JLXDCHtIO+/OMy/SdMAM58r7hguP/62UMYOv1lO7NVKYnfHSt//vGJ+OyxjR9wo9RtUhz1LsiGaZ1/xtrVXHvXhddKxUxMRzCMM2b3+vi/k69F/m+vXS99Tj5Nnnh0jD5gyNKhTSSpVLGs7uh9FrP1cBUOKv373Gjnh+EbSe8iLsm3nfhk3/CZp2boe64g0CNm/L076mXJgszxuxE1SsXxpGXLlu9Yue9Kou6RpE0OIzeBxFMyzHzYDAqT6WzOALFu1TfYZcpziO2ImDrGmHCKfv3mVDDqrs8yaulxtlrMA3iUbNzlBiu8e8amIACAckIuCsJx9zyu/SrKvuJx6Yms7sQ+GJYX2i59M7zeEeLuRPzv2xMqumAOyb3+8JCYlS+mSxaRq5bJS2UyIy5ctZT5L+7+XKy3RZtLOeQAmKZuWf58O5JL0SdyfjxOpR5ciqEzmz6ArYcFmF8jzaPxz0cVx/YYP04vsJ/+4asL0jBW3Pfvj5EBcot2LwufeA/Gyc89BORifKMWiiknF6NJSrXK0VVrUrFreKjNYGUx9FpNmIMlUoJVeaiYhkbBZzgy4lmPDLp/IDTiVyozwQRtmwgEhRkZAmJETuQkly3kASpazQZbrVpEfDNEsYwYRCyMnjyLLZ3aSmdNXysCLX5OzDVn+ALIc8CxhyfLthiz/ngZZTjFkeXhoZPkGQ5axm7Zk+ZR28uQzo+XRF8fJf0zevbo0tRqlVJhOX7F8KRlwclupXKms9DWEdbcZGMd8cpM0b1Hbn2YQWf7BkOVyZUvK2Ze/I+s27paJ3/5XmjShXEFkOaqoTJuxSi6//WMpbmbgmKe0aVlbKlUuJ+989If8YCYFn791tZyuZDlsMNhxbC2O8SHK/I3o1IEvcmBAdIMhmiP8NDMgWrKXD5EZWQ4Gz+nMC/Bow0pUbFy8HDCf+wxJxHMPm4HZEwEhLGHkWClDpEuWKGY11mVMH65gyCOEukJ0SUOmSxmiberTxMMMDSJtNbWBT2+98tXmb6/7v4eMACHlEV2fSO0W5pNT8lhBYwM836mL5JQUiU9MsQR4v3m+A3EJ5jNR4g4lWfttzFD4zl4Sc6eRZ1HmuUpLdUOKK5UvY+VhefOsFcyEoUwpvw9r0g3lRL7cJMuKggM1wyigYBar8AM7XjshMYKXpTw7GpjBA3vnffsPWcEextCQCYpInRr4KBdpa8jvTdf2l9tuOFVuu/6U1HDZRSdKjRoV/GUJAQwELCPi/g1ivXlrjCXUgVHtn+9mQBozfr5s3LxXHrh1kLXjPmNIF+nZvbmUwV1VaNkpPICY7Nu3T1avXm1Psdu5c6f9G20Ru98hzhoiE6hP/Nbu3r3bHg/MqYB4GSgssox+jkxgkxomWphnNa5bVTq0qie9OjeVM/oeJ+ef3lnOHdBJ+vZoJS0a1zYT7vJ2QnEo8bBs3XVAlqzeIX/OXiPf/75Eho+ebc0TXh4+2YY3PvtL3hs53ZotjP59sYyduFjGmDBu0hIZbybPbIibOn+dzF6yWRYs3yoLV4QW5i7bLNPnb5DJf6+RCdNWyA+Tltp0CaMnLpIvf5orH4yaIW9+OVVe+2yKvDT8T3n9i2ny8fez5dtfF8nvM9fI/OXbZMPWfZYwFylaTKpVqSDHt2koZ/RrL0MHdZGhp3eRwad0kD4nNJdObRtI80Y1pUbl8mYiUMzWFwqJcI+uVijCgZLlAgiE7ltvvSXffvutHXQKNUxd4JGiohl4lq3aLivX7QqQS5/MnLNeFi7dbHlmxNiykdedjmsgNapFy4+/LZKlJn3/dfPDEZ9s2rjHkK6dfnIbIri1RNlS0qtrU7s8+ZEZAPfsjE0tc2JisiX9uJbbaz7x/Vwe+2fySEiRuXPWybTZa227iNRjFgZA0vCjykld+BBmpc2v/fO7jNQQ+UDdEpikQJ6RX+vXrzcTXdO+CxGcphQSCBnkO9rVcqVLWr/qDepUkc7tGhjy2EL692wtg/t3kP8M7CIXGFJ50Vnd5DxDqAf0biu9u7SQjm0aWN/t7OcoXbqUJCQekW27D8rmHQdk/bb9snpjjCxatUv+XrzZEO318stfK2TMH0sN0Q0t/Dh5hUyctVamLdgo81cYGbthj6zbul824aN+zyFJTPZJubJlpHaNytKsYU1DgutLr05NrT3xOad1lIvO7CoXnNFVzh/U2f49sHcb6dmxqbRpVkvq1qhoJg1lrZs9iDHy1ZJjE6y2GuGoUOQCIn+CnyJsMEhE8gS/lStXysUXXyxjxoyRBQsW2AGfHaNsNshpI/isIOwT/KKKyu5dsfL5qJl2Ke7ic7pK8RJGkALDBidOWSZTZq6WC87qIi2a17RLkStXb7fu4LYaAZ4YlyR/zVglX4+dLWs37LJLiEMHd5X6DapJ4qFE+fjr6VbDc5FJt4IR1LDVI4d98sX3s2TX7gNyweDOUtv6PTZ3mt/GTVgoi5ZtkQvO7iKNG1eXSqZMBw7Gyw/m+uKV2yTuQIKsWb9bJvy5VN777E9T/Cjp1KmRpCSmyPCR0yXO5HnRkK5SpWq0P03THjh45BNTDgbJoYO7SEXzWw1D+tdt2C0//bZQ1m7cLTF742Tpim3WFR1LtMcfV1927DwgP/6+SHaacvoMsf7bTAg++266dUOHY/5zTu9ozT02b9otHxvS3b51HRnUr13gsB1/FaaLIoXnBD8OGdi6davtO44kExS5B1ffaPEhy2XLlrUmGvkFE2asMfPXKGliiGqkhlKSIS0b/JdSQXX5JxxFrHlGdLnSVlHASlejulWlcb1qhqxWlxaNakrrprWti8rWTWtKqya1zGct+9mqSU1paT9N4FoIgXvbGmLbplkdE0y6zQl1pJ1Jv435xFVbswbV7Ua7+obk161RydoYYzJSyshmyptW/0p9zkCIFMgH7xmbtu6WgSc2M1wnd21fFfkTqlkugPjmm2/scibasJ9//lkeeOAB+c9//iP33nuv/PXXX9aJer6GEZxoGZo0xENFpaOFrPkN92wtzCCAXRvkk6Ojb7/mFDm9/3Ey/e9V8virP8qHX/wlndrVk/PO7CRNG1W3R9EikRHcjepXkUYNqlgNrZPS5IGHjCaNqkopiLmT3ibrWtXKS7MmNaQsHjIMySa/O67tL/+9vr+s37hLnn9nvDzxyjhDlCdbV3HdOzU28fy7e/Gw0aRBVas1Sh39zCe2g0eVI+Ww1DeDzfMPnmuJ9dS/V8tzb/0iT732oyXl1h1S0aIyeGAHuXJoD2tb/YR5zjc/mSjNzPNdbO5pbgbCsmVMnZiyM5i2MH/XNGUPHqQKO1ASQJJ37NhhNZxaP8cW1D/24hs2bFDzshCBeHLaacI/ii8/mQYoBAxFleJGlpYsUdyaepUrg71zabuhONRAfO7D1AvyS3pRUf5DvdAA22DyIpAnssqWy5RJFXKK/ALd4JcHEOkNfiwWDB8+XDZu3GgHey/YOHPqqafKeeedJ507d7ZuV441GQh7g58BwjYhIRllpxXyXnAUNkt1nGwHObUwnwdj42XZqq2yOyZOmjasash2dSPI/cucCHnsBOkN8QlJ9hYItLducEfHwR8cH+3drY8ZBAOBS8PCDEhoo7dsi5Hlq9FO+qRRPUN+DeG1m+kC3Q7XcuRAWd0gBrzlsPm5cpj0U0x+HGayZv1Ou3GnZdMaUqtmJf+zmjTQSi9ftU22bt8n9Q0Zb9Gklh2U2Djj6oQBi/qjvJQ7JBSSDX4Qs+XLl/+r7yiOLWjDderUsSd05QeEu8FPkTtAzuoGP0W4UDOMPAAIWSTNME488UTp0qWLHVSY8LBhxmlk2MW/bNkyGT16tMyZM8eea49pRuXKlY/ZEmfYZhgG1BmmF2gxgoFJQYmSxY4in7BPNL516lS2WuAqlcuZNIr+EzdARvlw6XrutuBacRMXbYwXxcx1bxoWpuuw+7xChTLSpFENadq4hlStEm3yM4TW069S8wrKLN1ymHuLRkWZ8kdb93FNGlWXCuXL/POsJml2xtesWdE8Z02pXrWC/Q1S7K0Tykp9EDdkFAIzDAgyk0yW/Y/1JFLxbyC/OHggL5qTBSMnzDAU2Qf9Ws0wFOHiH/WYosAAx929evWSxx57TD7++GN577335JxzzjEEqmbqIAOJnjp1qjz66KNyxRVXyI033mgJNLv9sdfMF2AESmsU4hqanOCfuH74iD/Y3wMhWOvjrgcjrbggs+upeZoQnC5/B19zSO83rpHWUc8S+A3we3Ce9p6gePZv7wUFWmXMlxR5D5AcvGbkezMyhUKR76BkuYADMws2+0Gav/vuO7nhhhukXbt21hzDgQ2BI0aMkMsuu0zOPfdcef/992XJkiV2Y01GYOVBVx8UBQkQZbSXqlXOm0DeMKFR22WFQpGbULJcSMDSZffu3eW1116TsWPHypNPPilnnnmmVK9ePRBD7KZANgCiZUYTjYXO+PHj09Xk/PHHHzJ58uTAXwpF/gZEDM2lTgDzLpjEMJkhKBQKRW5ByXIhRMOGDeW2226Tjz76SD744AO55ZZbpHnz5lK6dOlADL+2+fnnn7cmGtddd52Nhy2nG6Sw6Xz55ZflzjvvlFWrVtlreRbY6RJUW6jIAJgfobFUrXLeBu9JN58rFIrchJLlQoyqVata7fJzzz0n33//vdU2d+vWTapUqRKIIfYErVGjRskdd9whgwcPtnEXL14sU6ZMkYkTJ8rcuXPlrrvuspsI8xwM6UlOOSKbt+yVFau2y/adsao1VKQLNvc5n8qFEXh4oX/kZS8gvBvekXoqUSgUuQklywqrUW7durXVEmN28c4778hFF10kzZo1swMowE5w3rx5dkNg//795corr0y1acas48EHH8xbG6PMoJoQnySffjNDhl7/vvQ55yV58tUfJCEhxa9ljjRUc53vkdeJYk4CEoqXHPyyM/H1ukbMa+A96aRXoVDkJpQsK44Cts0cYIKfZjYFPvLII9azBqdnMaAySHFYA6ebecEGwVdeecUeUZsnYMjrxKkr5P6nv5PklBS5/tJe0uW4BuIrEvlB1nfEJ/v2HZJdu2MDVxQ5DZbiY2Ji8sxyPH0Dgklw3/kMBtfcdffdG9IC113amaXrjeuFu+79dHD3ff755/Lmm2/Krl27rNccbxzg7nUh+HcHl543vhehpnOsMXPmTNm/f3/gL4VCUZihZFmRJnA/17NnT6tJhjTjIWPIkCFSq1YtiYr6t29eSDI2zAy4eQKHj8iESUvkYFyi3HvTAHn0kfPksgt62KOvj3Lzxjid2Vht45h/0ooXVVRWrt0uV90xXEZ8M8N/LRKDv83T//Uo2Ovmn8yycPdnFi+fAhJD22QVhInbsdQIQ/awdUYji10/J80xoaRPBBNBbP0dyed3zJzWrl1rTwxkpSY4Pn+z6ZD01q1bJ//f3lkAWFF9Yfxju3thYYGluwUJSZEysAMTsVv/dit2I3ZgA4IoqITS3Z27CwsLy3Z3L//znfcGHiu5LIJwPxxn3sydO3dmZ+787plzz927d69+5bHSWcdmntyfeTJ2Oq+J5VLCeWZmpu7LY3E787D2Z/4sOzv4UvxCxN+OsaY5Z/5WOXie1nlYaSj+tsrCfHksTlY6NrazsrIQFxeHmJiYg8pyuun555/HHXfcgenTp+s5GRkZnb0yg5KcBuJLpDoHJaluccAShpu7+OKLdc4oGIdyueDLkbGbmYYuHMeqqgxKckTZ3Sx+mrQcCcnZuH9EP9QOD5I3+b4D7Mg0tHjxFufLvpL1S8X1HBWPc8IYhwvkb0e5OmPDpjg8//bvaNq4JoYMaGdLx2fHOsahZOXr+IzpOplb5bHKRlllobiPtX/lYNLWMS12rFzeE9FpNCgJQe6NN97QxhkjuHBAHd6n/v7+9hTHL8tafTyd/GgZJfxNmzYNX3zxBSZOnIipU6fqM8L1derU2V8m1qf0/2eZAwMDMXPmTN2HIR25zAZAo0aNNKwj0zJvWnmZJxsFjIP+119/KYwzX/YtYBq6T7z33nt6PC7zuixfvhznnHOOppk/f74e5+eff1bw40TYbdiwoW5funQpPvroI92X13XHjh26DxvMrVu31rIQssePH6+NZvZv4PmuXLlSj1+vXj24u7vrNWO6N998U+sHhp9kHwf2b2BZ+PdhuRj3/aefflKXjz///FMbOh07dtRrdKxiuR07JJ8Mvfvuu/p3ZBk3btyox+OXN19fjjJ6dJlBSU5P8T41g5IYHa8MLJ8GOt1h2RKBhMMA8+VNMD6UaFGyXtT169e3rz2yqhWWBQ5jd6fir7lb8PeCrUhMyUFIkA9Sk7LgLmAbFGx70e2SNH/+tR7TZm/C8jU71Y2iVqgvPDzd7JDKUHpFWLAkCjPmbMLf87di+eqdyMzMR1hNP3h4uaOoqASLlkTrcVaujUWgv7y8BVJ3x6WjXnggtsckY77sH+jnCV+ZNF+Bi+zsAsxeuA17E7IQUTdQR/rj0NZ/z92MpOQclJdX4NepayRNJEKDfRBc0x8lsn3pyhhMnr5O990SmQBXFyfUDPE7AHYyi9ubiakzN2LqrE1YsDQKW7YlwM/XAyEhct4n+jhXAyzTwsiJgFTVifUSYWzChAkKfbRS0m+eQEPgZThEQs3x6nhhmaBIq6gFfxyKuV+/fgqYjBpDoOQgP+3atVPA4nlzHTvG0pJM6y3DObZp00ZBd/bs2fr8cBh6ukEQnukWQfgmTJ5//vkKnAzXyOfw3HPPVRCPiorS49OaTLhm/4PGjRujZcuWCngEXF43fili3iw34Zxl5/F5zrQYc2K5GZu9Vq1a2uDlMi3ABGC6JXTq1Am9e/dW0I6NjVXwtvo8EK5pdf7uu+80L/5d2HBmWs75e+TIkcjPz8eFF16oZQkNDdWOxi1atDima27pcLDM8+Q58Frz78hl1lW0uLMhwInH57nzHqI1nRMt7/wb8FowVCZ/07WMy8yD15gNHc6ZF8t8tIaZgeXTUwaWjaqiGvLi2f8YJ2fGY9Rvz6Fz+66oG9ZAKxyjky8ngZCConxMmTsWF3e+EQM7X2nfcnqJLx2GnKOVysPDQ1+OrHjolsE5X8IEar7ELr30Uo3TfCzQkpuyDtumX4GOfR+Aqzth9gTeLG4u+HXKSjz7xhTExWeiuLQMoQLLvt7ueOmxS3D9sPOwakUMXnr3D2zYEgcfWV9YRDhywk1XdcUT9w0UsPWSjGrg82/n4cOv5yrIMl2aVLA8xwdG9MOj9w1CTnY+7ntqPGYv3oas7EL4+ngomDaOCMXPn9+B7ycuwzufzcT3Hw7HhYPaC40JSbu6YJsc9/r7vkZ4WCB+++ZuuHm4ISE+A0NuGC1l9UWjBiH4/e8NNEXi49eG4fJLOuOzb+bh8x8XyAu+CN7ebsgU4G5YPwQvP3opBvaTxpVc/83b9uL5t37Hqg2x8BWYr5D9CwpK8cqTQzH8hl4k1RMD5hrOKC5Iw4b5o9Cw9ycIbXKFfcOxiSBDWCLo8TpWVbzXCCy0flb+PO7l5aXDvV933XUKZISxYz0W86RVlTB1LODG+56Ay/u8a9eu2kGWYRkpQjLdkrj9iSeeUBcmwvg777yj0EXofOqppzRkI8tHK+xrr72mVuNRo0bpdlqcad3ks8TY5wRllpFwTiB9/PHHcc011+h14DKfNUatGTx4sAIerzfzpsWYIM8RPPnM8hjskEu3DD7L3MayPf300/st0wR87s93AGOzsyy33367DnBESOS29evX6yihLBMtyNyHQM06gpZmXo+LLrpIoZVi44bnxjJyACReY27j9WZ9cqziK4vXjdZ5R7EctMCzsc40LCOnoy07rrN+c6Ll3Cq7o3iPsZHB6ED82hYREXHI++WJD2aidJ8rBvZsJfkaWj5dxCH/t+5IwpLVkRj95BDUrXX8DWujs0/V+I3W6EwXLTC02t1///36omeoudGjR+8fHXDWrFn64iYg8IV4PC/AapMA6Xmdm+CTN4ah6zkN4e/rief/dxHGfHAz+vVsiYQ96XhGQHr95ji8+uRlmP3bY5g54SH0PLeRgPEczJi3VcFT3pYoLinFbcN64K/xD2DmL49gynf3omawLz79bj6iohIQ4O+NZx4aoj7Rbq7OuKB3S3z7wS1489nLERTojfzCYmRm5csL18GfVrLmCzk7pwC5eUU8jIrvUvpXL18bg91xGQrYf417CF07NsQf09fhpff+RKP6wZj87d1a5s/eugHJKbl48d0/kZqay0zxzbjFmDp7Ix64tZ+Wd/Yv/8OkMXeh2zmNThyUq0n8pE1o4if9qk7jxo3T+60yKFO0HNJq+uCDD+Laa69Vyyev98kQAZMuBgQlhmAkNBHYONHySZAiUK9atWr/lxhCGNMTaGm5tayehD8CGMFx69atuo55s/FJCywtoQR5QjiPQ+hlOqshwHNs3ry55sFj8Li0TnNOqzRdO2iFZ0OF1md22KUVm8+0ldYCPus3J1rAWX5+JSL4EhS5H2Gc1uK+fftqmRhOkmIeBGyWhZZsysrPqg9oqebEc6WYZ3WIx6XVnV++fvnlF22U0GWE7iv88kALPS37dP9g1B/eJ6yr5syZo+4WCxYs0GtOtx66kx0KlCneY9yHdSD9mnn+RkZGZ7YMLBsds/jpkZ2qCMic04I0fPhwtbDwpcmXMl/6/OxKP0a+6P91CTSEhfmjf+9WqFPTH+6uLuh+TmP0Or8tatcNwtSZG7Bk1Xbce2tfDL+hJ+rWC0bzdg1w/4j+8PH2wG8CpkqwMt0n0PnYA0PQolV91AkPRrcuTXDp4A5ISslG9M4UuLi5oH2nRujcoYFCS4Tk379fG3Tt2gyu7pbVnb397WVzENPTwmHJWnIRqLhneB8MHtIRHTs3hr+/Fz7/cSH8fDzwisD9OZJ3eHgQLr/4HFw7tDPWb9mD1RtjUVZegZ170uDl7opzBbDrNQpDvQah6HpuE7RoWvu0AGXq32pAETbpxkCgJNxVt/i3Zb4EUIIxfYgdoZzL7AxLazA78RGKLRjlc0H4tL7cEW55P9DyS7CkOwAhlhBGMOPgQbT6MjIN54xUw2PzHK08rf0Jnjy2ZR3lMQi7n3/+uVquuT8Bj2EgLbClmNaStS/zpKsIy1O3bl09l8rp6e7BZZbV2kbRWs0vTFZeFN1GCNCE1WeeeUYbPYR3Njqs8zgRsQFxPD7rPGblqTLYH06s52hp51cDfr0wMjI6s2Vg2eiYZb1MOD+tJS/nirJydUOg6ANM021pfjHWbNyNstJyZOUWYsxPC/HlmHkY8/VcDTPHs9qzN132lwX5wfOMjk7Er7+txOhPZ+KFN37HguXRujmv0O6zLXlr/iL91CrH5bqqwGlZ+T40aRCCjq3r2fPYh527UxEVkyTg4SqQH4OvpKws87djFyMuIUPPZccuAXfZ3lWgvVSO/+bHM/DLhCVIic9ERXGZPffTQ0OGDFEXiZtvvrnKk9VAO9R9yM//hLLXX39dYYwwQyvqyRAhkKDHZ4KTo1g2TgROygJGytpWWcyLYl4EXk6ENvrz0sWBE625dPm48cYbNaSjBajMz9E6TPHYmzZtUrcKWk7ZefDKK6/EPffcs9/N4nCy8mH+TGe5XFWWdX6VxfSUdd7Mh8BN1wxGmGBZ6Uv9yiuvaNmOVJZjFY9Jn3HGiOcxeJ78Cvbwww/j0Ucf1XuBkM7GAl1n+GWM14YjlbKDJN1NaAhgZ0dO7HfhKJ4rGzkc8ZRf0+hSwr/H4a7Bf138e//zb37oe/dwOnQeRkb/PRlYNjprVFRciozsApQKiP46bS3eEQB+/4tZMv8b309cCifhHXYGlNodxQKZY8YvwU0PfqMuEN9NWIpFy6OQkWn3Z60CDB9J++RfDZloQfbyYidD2wHom1xUVIq4+Ax8NGYu3vvcVua3P/kLy9btRFgtP4EEeYxrOOHWYefhzpt6Y+OWeDzw3ARcf+8YTPxjFfKlkcBzOtUiVPBrBP1KCSZVnQgp7HDGT/2WaFGlny8hmdEm6MPLDm4nS4RAgjmtyrRg0yWkMhSwkxi3sbMc01rgyM/7tBhb6TknKLODHtMwPa2yPCdOBFxeN4Ifp/vuu0/n/fv33w/YlcU8CaB0jWK+t912m7pG0eeY+9FKfDhAtcrFstAPmmWh60ZlX25up9Wcf1fmxznXOaapLH51or8yrdx33323lo3+17x+JwqdbGTQh5v3F/3F6e9NH3H6U/N+IRgTkOk3zy9jBOcnn3xSRyDltSEE0zecw/vTasyOl5ZoPWZD7ccff1S47tGjh33LmSn+DYuKCpGXmyX32IEOr2VlJSgqyN9/Lx9OTM/9uH9RMb/sHP6eMDL6L8jAstFZI7pEuMjk6eGKkY9dop3wxn1ym07jP7sNf/7wAN5/6SpA4HPxih3qD+wklT7X0a956vgHcet1PZSTj/ayoPh+YbLKaXV/csoh3h+VQcPFlSAMnNO+AX786FaM//R2Le/Yj2/DpC/vwrQf78eVF58DlJQhrHYg3nn+KvVTvvKiTojakYh7nx6noxhqGSrlfSrEqBABAQEnNPFTO+GFfri0UNKSTACiXyotl4zg8G/I8iemywR9ZRldgcBG6KPbBX1f6S5BiLc+6/PvSysrO8IRmGkN5cSQa3SXYKc1RpagNZywz2gM7LDGfXg8y3pMX2L6DR9JhHJCLvez3KK4T3R0tLo/VBbLQfhmGh6DME33Eroc0F+a5aAsSzojXjDsHBsMjABS+d6tLF4LXhfuS2hmx0UCKYGZ17A6RLAn4PPeYEOD153nzXPj3+VoZXQU07IRwMYKG2B0ZWEkkH/LlehUqoZcq+UL/sKXH7yIndGb4OziqvfDknlT8eOXbyEhbtcRGzfOzi7YsW2j7P8CVi2eKb+PHzVYBna8NjI6HWTuRKOzQwKLDAsXUTdEgIDhy/ahQ6eGAjKN9k8d2tYX0AoD4zGv3hCL1LRc3HVzbwwY1AEhtQLg7e6OxORs2bfi0C9dUjDXc5NTDXh70poIJKZk29bbfZQTkrKRkZ0PZwef5X+IeVXsQ52aAQgO9FYLc7iUgX7MWt5zGqFjh4Zo17q+ho/TA0m5XKUhcF6P5vjkrRvxyevDwOG92emP4eqs458JIvzTusfP+JMmTdLP7PST/bdFX31+rmfHRUaWYCcxQjKtpexYxg53dJfg/WI1mrjMDmT0RWaHMnY2I4ix09vQoUM1ogbTDBw4UM+JHdaYH/PlRPeSTz75RC3XVr4EmcqNMkIiXS8I5ezoxrKxUxvBj77IjrDDZbpJ0BJudXgjULNxQpcXNnLGjBmjHSwJyOwYxzIwlBrLTFcRAv3hysJycj+eB8vB82fMaPp8s6MjGwmV9znVogWe58iwfAMGDNCvA2eLGKEpJmojFs6ajOTEeG3glJYUY8ncafhj4jfYuX2LrU47jJycpDGVuAcLZk4W2N4iSY8fNYqL8pGTnSH30wFfeCOjUyUDy0ZnhwQ8nVyd0bd7MwT4e+GrsYuwbvUu5OcUoUCmlMQs/DZ1LXbtStWnghZovrx3781Abnqeplu4LBrT52w++B0habw83OTlUEMgOEsBOz/PNuR3o4hQeHq4CKxuQlwsR0QrQbzMJ/yxClk5hUe0zKgEOurXDUa/Hs0QtSMJX45djFQpZ0FuEXKzCrF5c5y6k9BvuVSmTdsSkCRlyMsqQEF+McLCAtTXmW4aWubTi0VOSLQeMvwZP6PTanoqRCgkzPLzPaGYHdfo88qJoNytWzf9rM+OdwRJivcUoYsWyjVr1qhbCWMpM5oEh5mnGwGtoExPyzKjenB/DijCtMyb4EvLOi3szI/WZna+dfTN5noCKn3EWQ5CNoejJ/Dy2vH4tAjzWFZa+vvStYVAzeOsXr1a1/Pc6KZAa+0PP/ywv8z0h6ZbB6OOEMx5PayyMK2jmA8t0TwP+gOzLIR2Wq7vvPPO44Jl5vVviL71nM4GS/KhRMuuk0Ayrzf/Nm5y31567Z144Om30ar9uTrM/5HE/Wz7Hx9mcL/szDS1ak/77Tv9QnLUutLI6CTLxFk+DfRfibN8slStcZYpeZdWlFdg2D1fY97iaEwbez+6nNtEO98VFZbglQ+m4pNvFyC8dgB6dmmqQLklKkGtvV+/czM6dmmEJQu34fZHf0CqgPIlA9rBXdJE70hGcXEplq/dha/fuxm33tBTYTkxMROXj/gUkdtTMLhfG9QPD8RTDw5CSWkF7njse/w9dyt6dm2C1s3CEbs3Ddm5ArqRiWjfqg7+Gv+w5O2GvXHp6Hbxm2jSIBS/fHUXQmv62zr5CbRv2RqHu574Sffp2qkhWjevo7C9bvMedGkXgS/euREFcl73PDkOO/ekolOb+vrZc8nqHWoJf+WJobjlup5yWeS6nsilPcE4y6e76CJA6y5dAo715cwXOye6YHBADsYw5r60DnMiNLIeZRrO6UPLcHaERYIiIZkwwKgSTE8wI3Q65s1IE3SDIGwSiGktJqQzLatvRsWglZluB5WjQbAsdOVgVBD6BbODGoGYrha0ONPNgKBribGXGfOZZWB0G5aRx7DKwevDctDSzDKzHARkq8zMl8c7VFkY/o7uJhychO4e3Jd5sAyUw6voiGJZaI2m1ft01nHHWZbzotsXz4/XghP/fry21rXh74O3O8vc1hnUErfrftY+8pvH53pWAI5pKa63Jm4j3LIR9cUHz2PqpG/wyPOjcf6Qq1BKFxpXdvR0knu5TOrYA3zgWC7Kzc0Ts6aOwwevPozLh92NW+97Tn2YKSut7ZrYzpH7WeXisWN3RuGhmweiS8/+ePTFj+Hp5Y1yuWes/FkGDuYkK/if5GHLj9fiaDJxlo2qIjOC32kgVhz/hRH8TpaqfbhrEe/dHIHS8DpBapkNCPBS9wqGe+veqRFqC4xm5RRoRAkCcXiYP267vid6CVQ7y9+jXlggIuoFK9jGJ2ZJRS3wfXkXXDKwHbwEbs/v2QL1woPVYu3r64F6dQLVVSIpJUsHJxnQu5UCb7sW4fJi2Ye0jFykZ+ShY9u6uOfWvggO8Ea7VuEa1s7JWUBK8mec5U5t6ysQu7u56ouAU81aAejBdFKupNRs7InPVNg4r3Nj3Hljb90urV49xu74DN2ekpYr5Q/C/+68AFdd3Fkt5SfaBmEnwtNluOuTJYZJcwzJdizivUZwpQWY/r2c2EnPESItkKArAn2GafGlny/Bl+BHSzEhoTLIUARTQi5dHeiP7WgRpngcgqMFz47ibwI7YzMTkgm/TM+0hFmCiiWWkRZeHoPnwOM6loe/acVnOQi5TGudlyWW63Bl4TqG02PetJrT7YNQfahzPpyYJ49B6/Xp7hZxPCP48TryjktO2IMNqxdh/apFiNy0GsmJcfD1C4S3/A0rpB5J2LMTG9YswUaZtm1chcT43XIdPODjb2s48O+ZlpKIzeuXS53ABmAh1iybi3WrFmLPrmh1p/APkHpr//1tA+i42O2Sbh42yHHjdu+QPD2xI3IjoreuQ/c+Q9CwaSuUSaNu1/Ytsn4DfHwD4OZhG0GR4JqekoC1KxZgnUwxUZs128y0ZKxcPAst2nZGx3N769+ZU3zsDmxYu1TOczG22c+RvuY+cp4EYrp/bF63VK7BQjmOv4CyD9KSEuU6yH3lKfW4lD03O12vw9oV8xG1Za00FtPgK9fAw4NfV458sXmtzQh+RscrY1k+DWQsy9VsWbbk6sKLC2mJKNTuF18ULk4ozC5EamauvHydUSvED84eAqilDve8rC8QAE7LykOgnxd8A+2flhl9gulo+bUkMJqbVYAMpg30lgrYPhSvrK+QtIkC0c7yIgur5a/r5K3FN792zFOxTALyuo7lrXwJFHb3ITUtB/kFJQjw9UQAI3dQVjkkTU5WvkI7/aHDQv3hwsgajud0IjrDLcusCmkdpgXVESKrQ3xBW5ZlDozBiB5dunQxdexxin8jQjcbGATt01nHa1kmAE8Z9wWiI9frb7ow0Hp75yOv4IILr0Hszkh88/FI7Ni2Ac7SYCgvK0dBfg7ad+6FW+59BvUbNpcqywXz/v4VX3/4Arr0GCBVQzm2bFiJ3JxM5OVkoUWbzrjz4ZfRtGVHKZPti8fa5fMx8YcPsXP7Vri5uWus92YtO6C0pASb1i3DQ89+gP4XXi3HysU3H43E8kV/46lXvkCLdp2xT+A3NmYbxo15X8tP9HaVPGrXayiN+HAsnvsnLrvuLrUs83h7BcS/eP85BXeeH+G4qLBAzuE83PHQy/AVkB8z+iUsnT9N6rIMuAm0e/v4ISikFh546h00b91JGgixmPj9aKxeOkeqSflHi7L869ZrMK4b8YimZbkOJ2NZNqqKqveNYGR0OonQWVx6MChTCqTl8PRxR/2ImqhTJ0hePgKvlaFSXkZevh6axtdfXszyW6ciydMRlCn57evviYiGteCnw2XbJeudBGLDw4M1WoWKw16zXBYoUyyTte5Q71UeT9KECgA3aFATAQR3rnMshyz7STkjZHvd+iFqRa82UD4LRHCgtZLzkyXmbX2GNjp+EZbpNkLr+JkiulLsFnj8evSLiNy2VuDyTrw2eqJMEzDi/uelURyqMJiflw3/gFDc/dgbGPnBeE3T/6JrsWzBDCydN13Bmn7GJcXFyMxIw1JZ7+bugcde+hivfTgRAy8Zhi3rl2Pm1PFSjZUqrO7dE4NvP30Vu3dG48Y7Hscbn/yKZ18fI/VIiED2in9AZ2FBHrKz0gRyS6VB7izLGZjwzSgpw3QF+lelzK+MGo8OXXorPJeUFGuZLOXn5SJQYPbex9/Aqx/+jJGStuf5l0j5p2HxnD/VSj7gomG4ZvjD8nf2QJMW7XDbAy/gxrueRK3a9VFYmI9JP36MeX9NQp+Bl+v+Iz8cj+59L8QsOa850yfa6lIjo2qWgWWj00j/MkAQogm/dhA9pKw0x2AZOmxa5m2B7TFkc1hxX+ahxzj4JbZfVhkI5CflpWH9jU5G3qdedDUgiDl8cKtWdejQQUOm0Y3gZB3jTBYbGXQrOZNgmdbf2X+Ow+6YSFx10wO46uYH0LRlezRq2gYXCAy37dhNrbyNmrTG3Y++hl4Clw2btlaQHHTJDdJID8SOqI0oLiqUp9Pme8zHs069hrhu+CNo1e5ctGh7Di66cgRq122IbRtWokCglc/y4jl/IHbHVlxy1QgMveZ2OWZrtOrQFdff8T80bNJKfZMdRZcLwr0saKNvq+S1cuksnNtzgOzzGJq17oTGUq4rb7hH1yls229zumAw/weefAc9+l6EiMYt0aLNOeg35Cr4BQYjcssatZi3bNcZ53TtJzDvgpCadTRtt56D4C9pojatwcJZU9DlvAEYNuJ/aNq8HVq06oQrh92j58vQdrk5WaYxalTt+gcsV+w7MPKZ0b8rViZOTraRr84qScXG+66kOJtmFvtKo9NO8ncqLyvW+qGG85np50cQY7SI6hbBmHBBX2UOmEIf5OPx1TWyXUNa/tnQOFNE+MzNzsCmtcsQFt4AXXr0h4uLq1pkS0tL9B5hGsrZ1Q3lpcXYuHYpZv05HhN/+Aizpv2sVl66MpRXCNjaGZGwSJcFuiSUFBcpbAcEhwp81kZebo521qOVOGrLOvj4BaBTtz4aS1mPK1NIaB00bs7RCQ8emXK/JH922IuJ3oSiogJ07TVInh1/3ZfH8/L21eO7SpkdO93RxYN+1PQ3nvnHOPz8/SgsmDVZy8f9CPt017AgnftqZ0I5N2JJ5Ja1yM/PVXeRFYtm4q/fx2LGlB/V15rKTEtBVkba/mtmZFRdOuiO8vLwhpe7LxJS9hzU09Xo5Iq9erPzMqVCAGoF1rGvPXvk4RsBV886iI+eg5KCTNaQWhkbnSbSF88+lBblIHHXYrj5NYV30JnZCZVAy8557ER2MkQfZXbONFbl4xcBkJ0b2RnsTBH9Z/NystWnmO4W/gEcWfGf717el3t2RuLz91/AZ+88rT67swWU2UGO0VTUeut4S8m18vB0HOZ9H5zlOXZxcbMZw6R6LS7Ml+NmwMvLF/6Bofvf+bw3ea3pe3w4Cy3X87gM8UYDT2jNOpLvwY0/VzeG1LQjhmRTQ3CDHQRZ/s/ff1bPYe60idi+dT3KpGGgiY4gXpfsrHT1c16/ciHGfv0Oxn/zPsaNeQ+//PSxlCUDPv6B2MfrZ14fRtWsg2DZx9MfvdoORtTOLYjavUVbdGyhHe6BMToR2T+XyX9pmSlYun4emtVpj0a1z7wIA0eTq0cgGvd6B3mF5di28nskx61EUUG6bGGlLreoXifeg+Y+PPmyX2u97jZILi7MRFrCRkSu/E5eVjmI6PoSPP0b2pKfgaIrBoHZ6PQRAY5/F0YcOZNEvrXer4RA9TvWXwdE6y471/027lMsmj0FXXsNxGMvf4qRH/6MB596F4FBNQ8J2LbcjyR5B+2zhYuzWbDtq0W83rRs01f6cNJqgguSVgdq0rUHRJi2vlLTYlxQkItx37yLlUtmoXuvQXjqtS/wyuiJuOuRVxEYXHO/Nflw4vF09EhpyPa/6Bo8/NwoPPD0u3jQPj39+pd46Jn3EVq7rlxH89XGqHp1ECzzhu4tsDyo01XYsG0NVm5ahNSMRH0Q+UDbHurKj4TR8ejAddyH/MI8bIvZiDnLpyPMtz6u6XMbvD0ODuZ/tiggvBdaDRkPr5B+2LlmBiKXfYu4qDlIF0grzE3GPq1I9dUi/xmArh7Zr6FOrAp4LSvUMlOUl4aMxE3YGz0XUSu+R/TKKXDx6YAWA39AcP3+9rRnrghlDOfGZ9VYgU+tLFBm+LszyVeZ4rn5BQQhOLQ2UhLjkBAXq766lpGKlll2pEtNjsfWDavQqFlrXHPLg2jWsj1q1qyjgFko7xGNOXwconsDQ7LRmk03kIS4nfbj1hAgdVFLd0JczOGjSki5XVzdBHI54E4ZYmO2ykq+26S8ArTFxUUa+YJuGbJSyueElKS9eg4t23bBlTfciybNbedAqzI77tnei/+Urua1kHLVDKvLo3AFWnfohg5demk0EE7tOp2H5q06wsODHazNM2tUvToIlikXZ1dcet7NuLn/wygvAhavmYtl6+cjPmU3iooLbeCsD8WZ/bKsTlnXy2qtZ2SlYkPUKsxf9TdiYqPRp/VFuG3I46gTHGHf4+wTAa0sPRuuSf7wTG8Ip9xwZCakYE/kAuxY/xtiNkxG/PZ5yEqNQklhFspK5F4sK5b97NYI3o+2WtU+GR0s+3VxuE685hVlJfKyKtRrmpW2HfExC7BzwxTsWPcLYrfOQere3UBuKLwyGsA1PhDlGbn0JdAcz2TRDYMxhQnNJ8slw+joYr3JeNAE5dM9VFxVRBhlLGH6/HJo579+/0EgMwYlJUXaYS9ZADM9LUlSyjtEgLOwqABZ6akKl4ynPP/vXwV2M+FU4zC+xYcRw615yPVs07G7+inPnTFRYzgzlnJ+fjaWzPsT0VvW2euKf4rvMkJ101YdNG7z/L9/05jMpVIv04d50+rFGmOZ4t/Q4gW1khfkITMjVdLlaxi4xXIsholjdA5LbBQxMgbdPHKyMvVa0Ee6VbsuCK0VrqHlGNOZfte8FgyLt3YlYzxv3H8sI6Pq1EGDkjiqdlA9tGnYBf5ewdixNwpRsZuxNzkW+YW5+pDwvcsWr7MTW6MHPxBnsywwtk3SFpFKpVhgJLcgG3FJsQLJq9XNhSN+tWvQA1f0vBXntugDD7cz70VwPEpbNgWxPz0Dp9IihHe/AbVaXYbgur3gH9odLq41UVQgFWJWPDISt6i1OTtlO3IyYtQCuq+iVF86FToXeLYDdA12TnG0QuvEDfZl2w/79F+TQ9kPOr9K5wuOjFWGcoHi8vJieRkWoLQ4F4V5ychI2oK0+LVI3r0WSbGrkJkUJesLJYsw+IX0QljEVahZ/yL5O/SHX83WyN+5GsmLJ8LJzQPeDdqxEGe0aNWjRZM+shyZjv7Gjp3yTH1XvXK04PPaszMf3WE4eMl/0U/5WAcl4bmGhUcgJWEvVi2ZiS0bltsGH1m9UEfQCwgMUSjdHROlHdn27tkh22Mw96/fNPQbQ8oFBtVC7wuGqrV4+7YNWLpgukbBYAg3WpF5DHYCXDTnD2RlpmLQpTdoh7zg0FrYExuFNcvn6X7xkt/C2X9g6/oVAqzuCuLdeg9WizYNPexURyvy+YOlbqhdV0GZlunVy+ZqPOekvbGS11wsnjtNgTcjPRkt29gGJWHHRXYI3LR2KeL3xiBeGgVzZkxCkgBzfm6OWtcZz1ldQqS8WzaswtaNK6VREK8RO9jpsH7jFnqfMMbyxtWLEB+3EzGRGzD370mYM20CGjRpiQaNWx50L1UWn1szKInR8eqwsEx5uHkiolYTdG3RF7UC6kltxpssCdG7t2JP4i5k5aajmL1n5UVMizMDolufjw41yW1qy/g/LjmbQ54fJ/p4FUqLOTsvC+nZqdidGIPNMesQuWOLtJCzUcu/Hvq2vRhX974d5zTtAX9ve+zds1glmUnY8dld8G/YFhFDH4RnzfpwdveAs4sX3DxC4OPfFAE1uyK49gUCcefCw6Ou/BF8UZifg5z0OKQnRgr4bUNWajSykrfKfAfyMncL+KWguEDu0cJslJXk7bdEEx4JkbYQSCyB/d6Uv9/xTQRT7lp5/fFMFtweYz5WWR0+M1ZUCMhJI6OUIFyUjaL8VBTmJiE/ay+y03bKtdmsDYy0hA1Ij9+M1L2bkbY3EgU5WXI9vOHh3RIBIT1Rq/4VCGtwlVzn3vALbAU3z5rygvOSv4Un3AJrIqBFV5TnZyNpwVj4tegBt4Az36+XzzRBjaPVMb6v+kzKpJ/HHeZmOvGJcMVrzCG9OQQ2Lfucc9t/UccKywQ7givdEzw8PJGSkqAQmJmeguBadTQEW526DTU0Gq2rCXt3IyV5L0Jl26XD7oSbQG29Rs3Qqn1XWXZDXk6mNu7adOiGiEbNNX/ex3SXyMpKQ3BIGDp17asxmL19/dGsZUf1l05JTlDYpXvFxVePQGMBZHbSo6sDBxjR/TPS4OXjp/tzZEFub9qyAzzkGUlPTUSilK1QoLz3wMvQVSAbFfvUGtxAIJcdBiMatlBrcHJCHJIS9iC8fiMMvuxmeHl5o17DZmgj58COgrwOwTVr6/ESpUwsX3sB7qCgUDRs2gahYXVkW6o2KpgP2aR7n8Ho0edCPa8jidfCwLLR8eqgEfyORQXF+diVGIWdAiixydFIzU5ASUWxvFSd4e8bqMNkM6qGt6cPfLx84S7AzZuTo9Rxbk3/kJTiSJ0J/l1JGW2zg8QrxVY6y2kbNahCOzEUFOUhrzAXBQX5yCnIRk5upn4uc6rhAn/PYNQPbYz60uhoXLsVwoLC7bkZWcpY+xdiPr8PDa58FEFtemOfVIx6Qxwk2x/Ddu/IxLn8LYoL01BSlIpimUoKU1CUt0f+JjlSseejrDhLQJL3pqswKa0V9LPzEMBxhZOzK1zcvKQC94aTi7u8kGWdiwucZVsNWebvGk5u9nWc01dS7mFbKRSS9oOurrHEssmMxbfmB8m2Yv9q202ljU2u1fVyXgT6inJphMrE0FAK+VyWF1ZFeal9uQSlJQUCyoUyscFaqi4V+yqcZLK9HKU9DFd3AoenzAPh4VUX7l61ZDkE7gLDbIzUYLhCOaYef391sL+E+1XDxQ35cZHY+P4taPHI9wjpfnaNNGmpsLBQYYTX6jirT6MjyGp4sHHyXwVkRx3vCH40NPEaZGWm68AfhD6CLcOvsX5g456wTP9lijGI2bjQL2hyH3IbZbuOHDqdIdgOdpnSulDqLKa17l3my7RpArvFRUUIDg2TBouvfZuTrc6xf1FhvlznuL+t3DWQkZaC3Nws+AUES+MyWGsQfn12LAePRQs1rcWsO2vWDFc414FLHM6BYtq83Gy1TvsIVwQEBet6lp8uG4X5+UhLS9SqKiioFnz8/LSsR3smzQh+RlXRccOyo4rkRZ2em4rM3HSkZiVgV1I0EjN2I7coW7ZKm5rWAnnBspXoKZMCtLcffDz9ZD0fWlvlwAeKcxtIyzr7fD8YHeLFXT1i3hThhKAi//g5Xy4JoZgtXNunV9vn18LiAuTmZyOvIBdFslxYZPPPKikr0V7FjCYS4BOKBrWaITy4Afx9ghDiVxP+3kH24xgdSllbFiLqgxvhHd4c9S+8G561GmhnDr01j3J78j4htEr1yR9qPa6oKJKJkFkoUCnLdveDspIcgZx0lApgFxdlyPp8yaFcDsHQS4RN28Tfeucxb7kv2XeGyywPG0gsk+3elPVyj/PYrOz50qLvIOcEUFb2WnyNXS7HUau2vDTs95M2vGQ9E2k63veal6ySw2goJt3GuWwntNewQXwNyLKzgL+LtwB/kLxwfNUK7OIeIMt+apV3dpZ0kobrWR5nF08pE60o/ALC49rKcETpsyjXVV5CxdnJ2Pv3t0hZ+itaPfELQnqcnbBsZHQsOl5YtmR7F0olwNpG64kD+yooynaq8rYTEwGU9agtznFV8rXKre9OKdvhdDznwHqVhrZD5WnLx9aosuVzlLrMLgPLRlXRCcFyZZXJCzWnIBPFpcXqp5uamYiU7EQB6hRk5CTLtiyUCriUyPbyfWU8un5C8uBnXldXecm7w90+cT1Bm51r+EDoZH9x84HkMqmCj5yCCtfrP3lwZOKDw1OzTbKsFY8dPEQKwQIqZVIxsDduiU4sW5G6lvBcOGcAdablkRij0s3FA55uPgj0DUGQb00EegfDy90H4SENEOgXLNtZ/iN/BjI6WPm7N2Pb21fDzVOgjte2bR/4RLSCR3A4XKVhZYl/Q9vCkW5Z2z3CuU56X3BR/i+7EU73yb2nrhh6j/C33BP2ue1+kXujrEhgu0D+9vL351ymCvsy4Vv9oyUfArB2lIMt1umBY9uWtaT7y8u8mUgqbHbIEfDl1wchXrm/BWYVfmlV4ySw6yoToVcmJycPuc8Fwpm/3Pc1COUK5rZ9hYolW1lvfwnpuerRuWCb2x51ToeRlp3Fs805KyvMQ1FGAvLjtiFj0wKU5WWgMDUezR78FsFdLrKlMzIy+oeqCstGJ1cGlo2qomqF5aOJ49Fnycs2g9bovDRk58uLtzgfhSWFAqmFKC4rkd85yC3IEdimdVAARv4daLESbss0H9tIgxXa6uQnGaahhZqv+XJpZeqnH84ljZykbBMYETDhZyQXJ1v4IbUYyzYLhL09feHt4WcDdoFidrrzcPeCn2cAAnyCZQpBsF+owLFjsHejE1Ve7EZsHz0cTS66Bzl7o5C1YzVKCwvgXa8lfOu3gEdofXgEhcNZ/j4KgwJ1Co1y5yoQ6h18PLex7Ks8uB8LHfTPNUdXVR+hEzuWbUn+v3/V8ZTjwDWwifkQqCtQXpgvgByPorQ45O3eiry4rfJ8uCOgaQf4hjdHzNTPEXHzGwLLl9j3NTIyqiwDy6enDCwbVUX/Kiwfi0rKipFflKvWaRvw2vydOJRnKX00BaiZpkzmBOejFl+giiMXucrL3tXZVeduAsaEZgVou9WanRO93X3g6eEt+FAViDGqqgjL0aNuQfOr/gdXnwCU5mUiPykWuXu2oTA9Hgx37+YTBI+Qujq5B9eGu39NOHn4SEOJPsbSSJK/nw38HO6H0+vWPnWyW4wp3ttsYOgoV/RFlIZneVE+irNSUJKRhKLMBBSm7EZpbgb2lZbAMygMvhGt4FOniVzzUEmXjOhJ7wksv2lg+TQXP00XFxerIYGRJY4mpmcfDHa0sz6TG1VdBpZPTxlYNqqKTjtYNjr7tB+Wr3wELl6+CnQE4Aq6xuRnozQnXeB5JwpS96K0IEcBjy4Hrn4hGjnDLag2PGRy8faHk6u7TB4ysVOeO2rYfeNtst/qMrMtHeHWP2jTEdKdVDk02o7YfrM37/ansS/QUkwYZhQQhj6ja0lJscBxLkoyk1GckahgXJyRoGnZ4HD1lAZjaF14hwkc+wXKNQ2Ai7unDa4l35KcNET/+r6B5f+AEhMT8fXXX2v4tVtvvVUh+EhatWoVZs+ejYsvvhht27a1rzWqqqoflumjK8+6Nn6r7lt8tsvAslFVZGDZ6JSrMizvtwiru4UNdNWfmC+HslIUZaWgMHkPirJTUJqbibLiPJQXFwLOrnAR2HN294azlz/c/UPg7O0nqwWe3TwE+mSbpxec3L3grFEwBKi1Jzb9hx1o9GDydJBtneMWlvRQKY9F1oPH/Q88hFaOtjUHbav0qLLTHeiSJDBcXlQg1yBf52VF+agoKdL1ZQUCxgK4ZXlZsk2uk2wjQPOa8Fq4Cgy7+wbBq2YEPILr6DVRS73DdbeOy+tkYPm/o82bN+Oiiy5CixYtMGXKlKPGKn788cfx7rvv4tVXX8Wzzz5rX2tUVZ0My3JKwh7E7opCWVkZmrVoj5BajK5UPXmfLTKwbFQVGVg2OuU6LCwfUnbLijVJWnZCKy3IVqsz4bDMvlxKq3R+jgLkPmE/RoOgpVlDxdHdRq3QjCrhal+2bbNZpa11MilU25adZaqhUSYEsJ1tYZRsLiCEy2N9lFhum1+9EK/AKy1EMpWWoIKdX2W+jz77jF/OOV2SGKpJJs41XjQtxFxHWBYwJggz/T6ZyuU3nS2c3Tz1erp6BQgU++nkIo0IXZa5i6e3FEXKzestk60qOPw5GFj+b4mwTCsxYXny5MlHheXFixdj5syZuOSSS9ClSxf7WqOqqjphmX01tm1aiQnffojtW9fL7xq47YGXcP4QDuLBrz7VJ+2YfMQ6+L8tA8tGVZGBZaNTruOD5UNIKne1hOrcBtEE0HJCJkHSbmVl/Ga1thbmK0iXlxTaJv6mNZbpy23RLejPu49ZCSAy4oTN2splHscWfYVzNf0qwNuOf2yizzDPkfMK3U0tuLKO0CxvP3s5bGWpIUkZ+9nFw9NmFSe4S7kI9E7ungLFXnLdCMA+Cva2BoGb3aJOwPeQdYylbAdinR+wGB+rDCz/t+QIy7Qse3iYKD3/pqoLltkgz8vLxafvPIklc6fixjseR+OmbRAcFo56DZqwGqlG7UNmWgqyMtN0EBQPaVCfaYhgYNmoKjKwbHTKdcKwfDgJhVr+fRbIyhoiqgKp7dane4fdxUPm8j/beg0fJ7BKVwfuIevoQ11RQqDmxPTcLunLS3X/45HGB3UWCLfDuEZ0oQXbjeHj6BpiKzchnb8J5hoikekVzC1gt4M6t1nnRum58Ty4aF8+QRlYPrpSU1OxY8cOpKSkaMdk+gu3bt0aAQEB9hQ2X+KYmBikp6fr75o1a6JZs2YIDrYNukBx3+3bt+vn9gYNGmD37t2IjY1VcGrSpAmaNm2qnfG2bt2q26iGDRsqGFu+yRYst2rVCuPGjcOePXs0D94P4eHhut7L68Aw+8nJydi7d68ej2VhGVhOdhLk8Xbt2qX7c0AWDkHN/Stbq1neyMhIPRbT8dxYJo7Ed7apumCZg5Ls3hmFV54YDi9vb7zx6W/w9Q2Q61tsf7ZZDdjrAlnWNbLe2mbpQF2o/zGJPY09D7m3SoqL8P7IB5CekoDHXv5cgLkBykptdaBtf2sfB9mPSx1UHhF/c5kTlx33tdZTXK0N+ErS7Uxn/105j6rIwLJRVWRg2eiU66TB8jGJlbF90a4DVfMx6DiSHlbHcLr7IdhRuurfu1YGlo+stWvXYtSoUZg7dy4KCgp0nY+PDz766CNceuml+pKnqwN/c06YJJASWC+88EI88sgjCqBUfn4+br/9doXOyy67DDNmzFD4zc7ORteuXfHKK68ovH788ccKuBkZGQq0XM/0hGqmHzp0KCIiInD55Zfjxx9/RFxcHHJzcxVi77zzTtx///0CXvLMib744gu8/fbbeOedd3DFFVfosR588EFERUVh+PDhmDRpkoIwGwS1a9fGU089hdtuu20/nHNkw++//17zSUhIUNDhwFTMi/7Q9evX13Rni6oLlhm5aUfkBrz29G2oHd4AL7z7o7SzpRHNRrKI15mRTMql0V5WUgoXN1fYRuqzDaTkKI5wV2offdLNnVGhHDt91kB+XjaefeBqbSC98PZ3al1m3tYxqMqRUpgXQZfHOwC/NEDsUyMA3USYH+8TlksS6dcyRrgqY1nkn6u6u9m+flmyHbNcyluqrmnO3J8ucpWOf7wysGxUFTm/JLIvGxmdEpVkJSN9+RSEtOqufsGnXqywj3Fi5X6i06Hy/cd06sWXYXlxAdK3LUNA+wvgFd7cvsWIQEnwXLRokYLlk08+iWuuuUYtsITVRo0aYcOGDZpm/fr1eOihh/Dwww/jyiuv1Jc/QTY+Ph7nn3++wjPhYsyYMVi+fDmKiopw4403Kjz7+/vj999/x4oVKzQf7k+gbdmypa4nQNOaTEindfvnn39Wa3BmZiauvfZa3HvvvejTpw82bdqEX3/9Va3IHTt21HMg5HMdwb19+/b74XfZsmUK4wTuu+++G507d9aoGatXr0b//v3Vek5g4jk888wzakkntN9www0KSN9++61u79ev3wmDzn9Js5bHoALOaFw/1PaYV1ELZ03GvL8nYWf0FpQUFSI1JQF7dkWidt2G8PH1Q25OFhbP/RNTfv4KC2b9hvUrF6nVuVbt+gLObmRTuZ+KsHLxTMyY/APmzpiIJfOmYuvGVfDw9ETNWnXl7+KM9asW4oZ3V/IAADxuSURBVO/ff0Lk5rUoKsxDbnYmtm1aDW8fXwQEhWL6b99h+7YNqBvRWEfl5d+U+0VuXo0ZU35Q4K0dHiHry7F66RzMnzkZXnIfLpz9B3796VMUFuShSYt2asGOjYnENMlvxuTvsXTBdMREbbYNky3H4T1CUE5PTcDsaRMw9bdvsWj271i+4C8d/rphk9bSWGA/kaqJeadm5CEuIQ1DejaFn8/p8M4xOt119tRcRkZngPjiO5myLENGxy5a3AiVS5YsUeswo0kMGDAAF1xwAZ544gn07t1b3RN++uknrFu3TiNN0CpL0Bw4cCDefPNNhV76FS9YsMCeq2VZq9BttOAy/aOPPqqwSqtx3759FcoJ2IRw5rVx40aFY0vcn+4ad9xxh0I1gZXg/cILLyjIjh8/Xi3IFI9HS7DjPUBwoQX86quvVsDnsQjc119/PXbu3KkNAIoW8M8++wxhYWFqXWcUDkL5c889h27dumHChAnaGDA6fu2I2ohN65ajWBov2VkZWLNsDjbzt4BzQX4efv72A3z78auI27VdP3TFRG7AV6NeEID9HuVy33GEz907t+GnL9/GlvUr9H5gY2zxnD/xyVtPYkfkRrVUx8fFYO3KhcgXIC2UfDeuXYq1y+ciLSVROxPPmTYRc6ZP1G3ad0NEyzH3nzz2c0RvWau/2bbfsHoJpoz/HBN/GI1ZU8dL3juRnLBbQLoC2yXdp+88jll/jJMGWb7kV4D5f/8qZXlMGgSbNA+e59cfvoyJ341GWnKiWp1TBZ5jZHtpacnJrwiNjCrJwLKR0X9ENog54OdndHqIvr60KNepUwc33XQT3Nzc7FtsfzP+pmV3/vz56m9M1whHCyutwIRLrqN7hiWCLt0levbsaV8DhISEqDWYg4wMGTJk/73Aznt0w6AV2oJfitY/Wp0HDRpkX2NTjx491JeYPsn0oT6cuD/9lyvv36FDBwVrumRQhPTo6Gi1oNOHmpbnOXPmqPWZ58dr5AjxRseuYSMexYPPvI+g0Fpo2rIdXh09AQ89+wFCw8Ixf8YkzJj8I7r2GYRXP/oZL3/wM55/9yfUi2iCPyaMwa4dW/S+8vH2w+XD7sIro3/GyA/G47XRv+Da4Y8gMT5WrdK0fPcfcjWef/s71G3QFLXq1MejL36MkR/+jHO6nY9S9tWQ+1H7dfxD+3Qb+39Y4m1ZVFiA+NgY3PHgy/j0p7m48qb71TI87ut3kRQfhzsffVXOZZKUeyJue/Al7IndjmmTv1ereNSWNVquc88bgFdG/YwX3v4eb30+Ra7F/+Am9z7vSyOjf1MGlo2M/gMiFO1JTMH0RauRlJapL6Pq1qYduzFu+gLsTU7fD2FGRxddFAiD9erVU7g9lHJycjQN3TIcO/tZoisDoTIpKcm+xiZCsWMnOv5daBHmesvX2BKhnNvpB+0owq6398FD9NPVg+UgXFv+1YcSoYRpK3fk4/EJYbSYUzw35kX3kAceeECt0LRk09WEriQsKy3URscvX/9ABAaFyPV2Vp/d4NA6CAyuqTA6569JCAqpicFDb5S/sR8K8rMRWqs2zu05EFkZqdgZZbPUhgs8D7n8Jvj5B6GQoTZLCtGgcQv5HYyE+F1qkfaS/YMkXxcXdjh2UZeI4NDacPf00vuA99ah6wVr/YFtVroefS9Cp279BHA9EBwSplZoWqx79L0Q53Ttq+UoLS5Eh869FPAZFi8jNUnvKz0m+0mUFulIvh7untJAqKs+3Er3Rkb/ogwsG511sir98kNaSU4/OUlZywSAfpo2H3eO/Bi/zl56mJdW1WRdj7+WrMWj73+DTdtj4exg+TQ6sginfLEfydplXWO1zh0iHdczH4Lwseh4/v6OVmxL/BRPn2SCkaMlvKqyjkGXk5dfflndPKyJbhlffvmlGRWwiqp8b2lnOplnpiUjKcEWdeSvKT/iyw+ew5gPX8ZXH7yAdasWqrtCTnaWrVFTXoaY6M2Y/tsPGDP6Zbz90n34/ovXkZubhYpyWz34z+PYOu7J/+xrjl3s0Eiobdy8nYC3raMhp13bt6r/9J5d0fj+szfw9agXpcwvYdyYd5CRlqL+17k5mWjaoi2ayLR47u/45M0nsWrJbIH/NJtl+zjufSOj6pJ5IxqdVWI9m5aZjSkCnGu27LCvPb3FVxWBuU5oMJo3qIvaIYG05dg2VqMKioqRkZWLEgEpo2MXLbehoaHqfsBoE4cSrbi0PB/O7YHrGQGDLhPVrbS0NM3bUfQx5sSoFoezhh+PaBmn9ZlWaPpYszOhNdHfmRE66M9sVF2qoT7LZQLE7PS3JzYau2K2IXZnJHbtsAFpmw7dEFKrtoa5XDpvOl5/5nZM/eVrJCfEwcfHHxGNWsHd3bNKMHywDlUX7dOGmLtDbG/CckFejizVQGZ6CmLt5eXE0HhhdeqhZdvO0njzQO3wRrj7sTfRqfv5OhjL28/djVGvPaI+1ydeXiOj45eBZaP/lAiNtHoy/A8tJpUtbPu3y5zbOXeUq7MLlm+Mwk0vfIi5qzbC1cX5H1ZU5mnL/9B5WLKlY1lsE39b+1YuF8V1jmU/XL7W/gfy4jon3HRxP/w+6hlc1r+b3UfwgGxpD5SF+znqwPYD88pH12vn/M9ranRkETbZ2Y7RJ7766it1y7AsxYylTH9lRrFglAmGVPvmm2+QlZWlaTgRlNkBjjDJToHVKf4tGYuZkTLYqYvAwtBxjLvMsrAjIv2gT1Rt2rTRsHezZs3SiZ/RrWtAX2b6NFviKIGjR4/+h8uJ0fFoH9w8vNTFIqJxCzzy3Cg8/873eOatb3R67k2Z3voO5/W7GMmJezHpp48Umu985BVJ9wOefOVzXHbd7RpNo3Jd8k8JnDIsnNQZDPdWecTA0tID8Z4P0iHqES8fX81nwCXD8LyU71l7eZ9heaX89z/5LurUbSj3TwlateuCh58dhf+9MBp9B12BDasX45uPXkJK8l6tw4yM/k2ZO87oPyFbtbsPWXkFiEtOw/bdCYhLTEF2foFaXrmdn/4yc/Oxl9v3JGB3QjIyJT1FaOBLIUO2J2dk68u8qKQMqbLMfSrslT3T0bKanJ6FmD1J2JOQItt5jH0HwSXTFZeUIiktAzFxiepPnFdYhKLiEqRl5urcellY74wcKSvLtmNPopQ9FZk5+WokOZBvDSlXOdKy8pAveTH/uMQ0yTsVpVLe0rJSmSpQVnrwy4plKSwqsZVF8t65N1HLUK6fVzlQCbRsVll3ypQi510q27mv0YmJrhO33HKLuiAQhO+66y68//77Gq/4vvvu085/7Aw3bNgwDB48WEOpMQTbBx98gLfeekvTM7oF/XzZcc4SQdNy8XCUBaFHW885J/6N6Qbx9NNPK6TSl/jrr7/WKBUstwUeh8rXWldZTMP13E7Ras6IG3yuGBGE7heMt0yXDJ4rAZmi6wfXf/rpp5rWqGridacfc606EUhO2IPsrEz1MQ4MtE1+AUEC0x5w9/BERloSUgSYGzRphfZdeqm1l/GNd++Mlv3SFV5tstVxjHShI4jKP/pJ8/6hq46Prz9ys7OQkZ4qjX5nvacZDm7PzkgpD++Ro9Qlkk+9hs10v72x2zXmclBwLVuZpeze3r7q28ywcIziwcnLyxvn9hqEEQ++iC7n9VdXkqT43abeMvrXZeIsG51yHS3OMuvFMnk5LNsQibe//Q1vfTMJP0ydh7HTFyBNoO+8Di3gLpX5grVb8OqXEzHqpz/x459z8eO0+dgWE4dG4WGoWysYe1PS8dKn4/DLzCUCpLkKjzOXr8fG6Fj07NAS3p4eyBZw/knyfV7SfTXpLz3G5h2xqFszGOGSB0W4yMrNw7dTZuO5T8fi819mYNLMpQKoOQKqSRg19nf4+XihdeP6AhUCGwLxKzZF493vfsMbUvbv/5iLcTMWYM22HQgJ9JOyhahFl1buzTt24+kPv0N8SgYid8bj4Xe+wqRZS3FB1/ZYtG4rXvpsPOqH10TDcFtsW1qDd8Un4wsp68gvJ+DLX2fiJ7k2S9dvQ+fWTREWGohY2f7h2D/xxphJWmZeu9nLNyBQyti4fm24yMuLWrBmMxbLMa66oAdaNqq3vwFhycRZPrxonSV8siMfw8NxgBLGMiYYMGoFB+QIDAzUNOwIt2rVqv1pCCIctGPEiBHacY4iiBKgaZFm3GTOKUISLbWcc6ATR6swYyzTin3JJZcovObl5alVmdE0GPLtr7/+0vB2dBUh2DPEnaPbB91IGN2CQM+oHYRZ7s+OhzwW55bYoY/HYyi6du3aKbzQusyIINu2bdMoGDw/Ws2bN2+uUULoqsEBVBhijgOrMITdmQw91RVnmdbjzPRkLJg5BT5+Aeg7yBabmy4UBYX5WDZ/GrIz0xBaq65CLgE4ctNqrFj4Nxo1a63+6YxTXFiQj4hGLTRMXEzkJkz77VsB3SjUjWiKfpIn66oKmVYvnY04Wd+kZQeFV95rBGXC9eplczTGcmhYfe0ouFKOMXvGLxrlomPXPur6wTKsWT4P2yPXo8+Ay1GnXiP1NeafmkAcvXUDNqxaBE8vH+28WJCfi9TkBCyZNw1ZAuINm7ZGTNRG7Ny+Reu4goJc7fRHv2UeZ9DQGxAUGqbbqiLecybOstHxyozgZ3TKdbQR/Fi5TV24Go998A1KiksxqEcnhIcFIyk1E8UlJXjnkREI8PXCPa9/ju2x8ejcpilCg/yxJWYPfiNoduuA70Y+pNbVj8ZNxXyBwtVbdqBN0/poERGOxgLTT4y4Eq6uznjzm1/x6c/T0EPgubtAeGpmLibPWYaagf747tWH0LJhPbX6vv61QLkAaKeWjdG7U2t9ySzbGIVde5M1WsXbjwzH/26+TC3FM5euw8PvjZFKv0gq53MQLuCdkJqB6YtWCUy5YPSTd+DCnp3h6uaMWUvW4Zon3tY03p7uaFK/Dny8PPHIjUO1Y99zH/+EH159GNdf2FdhlnD+0NtfYtn6SPQ6pzU6NG+kFunIXXvxxPAr0KtLG3w/eTZGj5+K9s0bomHdWsjJK8SEGQu14833rzyM3rJfqZRz5Bc/y/lPwvg3H8MV/Xtop0JHmRH8jk0EQsYUZgSKxo0b/yOSBEW/ZaZjyDeC6aHSVLcIwgRi+k8zxNvJ+pRN/2hCMhsFHFabkyW6aLBR8N577+mgLWeyqmsEP0bAIDy+9uQI1K5rjeDnog1lxiMeN+Y9zJ3+C7wFaOs1aILiwgIkJ8ahW+9BGPHAi2oFHjfmXfz+81cICA7VwUzycrNQO7whtmxcjiZN2+Cl98dJA81m6WcnwG8/fkXA3F+Pd+HlN6P/RdfqYCUfS92wc/tm1G/YHO50A5EyeEu6dSsW4cY7H8M1tzyE0uIijPnoZcyYMhbPvTkG5/Q4X63EUoPoPbdhzRL88Nnr2LljMyIathBgDkJ6SqJcozLcet9z6Nl/KKb9+j2+/vAFAfkmCtSMtZybky5lGY7Lr79bIb6q6EIXNDOCn9HxyliWjU65jmRZpo8v3S4eeftrpGfl4L1HR+Dx4ZcLAHfC4B4d0a5ZQwT5+2qlXVMA+caL+2HYkN7odW479BbgpdV40dotGNKrM5o1qIO+ndvBRyD0z4UrcfdVQ/DuI7eid+c28PX2xOwVG/DCJ+PQr0tbfPLsXbj4/B4Y0r0DXJxrYLzAZZC/H/p1bYd5qzbh+U/Hom2TCHzx/L24QY45QAC+peQ/X7YlCiwP6dkJ3dq1QEpGDh55d4y6abz18HA8fduVOL97Rwzq1hG1Q4MwadZiJEuaAd3awdfPF7viEvHb3OXIzM3Dk7degZfvGYaBkt5PwGvZxki1/l5+fne0bdpA3UXe+W4yJvy9CPdee5EC+iX9umGgNA56dWqFWiGBcJeXqqeHm+TfHrdfMQjnyzZuZyimX6UhQRg/T64TtWC1sSxXh/z8/DREHH2ZDxfdgqHUCJG0th5rBIwTFeGdlt+goCBtgJ4s0VLO8+L58Vo4ivGXd+zYoeHlWI4zWdVlWaY7BBvVBNc2nc5DHZnzr0dY9PT0QvM2ndCwSUv4+PhJg9sN4fUaod+gq3D+kKvVIkxAbdS0te7vZbfm9hlwGfpfeI2ub92xm472x/zogsF0YeH1FYYZy7l9594ICAxW146mLdprODket37DphhyxS3o3O0CNG3ZFq3anQv/wBAtLzsQtmjbCc1bdVQLMs9Cz0WOwY58Ldp2lnmE3CvuAvl+aN3hXFx0xXC0bt9V700vb18NY+fm7glXAeNmLdrhwitvRa8LLoWHl3eVQZkylmWjqsj4LBud1mLFtnJTFFZv3Y4r+3cXUOymlb92VpLtjeqGwc3FmQnRs1Nr1KkZjL1J6dgeswcJyRnq5sAoD6kZWQrUbm4ucGF6ET+Re7i76VRSWoaZS9Yir6BAKtDOkp0zdsbuRXxyOppGhCPQz0fLQT9gQmVmTh5uuKiPQGuElKUEpTKd27a57svyaWUu+W/avgsrNkXifIH3y/rJi4Bll/LQT/DSvl1xXvuWWLNlu/pg8xwofvZsJhB7hcA602uvcim3o1j2PUlpmL54tZSvDu68apA2Fpg3LcsE8UBfbw2P17xBuLpkZGbnIyY2HlE74xS+WU76ZpeUlR3N29DIqFrE0QdHjhypbiJGxya6MBBw+w2+Ct16DtA60RLrCj+/IPQZeAVuuvsp3PHQSJ33v/hahNSsrfUQJw4lPXDoDRh+33MYcf8L6Cvpa9eN0I5z5/a4QNLYfM/1WH6BGHDxMNz+4Iu45a6nBcRb7fcvb9q6A66++QEdROSGO55A247d0bhZawy5/GY0bt5WymP7GtWqQ1ddF1IrfH/elliehk1b4bLr7sKIB17A7Q+8iGtufhDtu/Te7/ZRp15DXH79PVLW53HXwyNx/R2Po3ufIfD09jnMwChGRidXBpaNTnPtw+Yde9RloFOrxgKNrnCMC0pXAcvGsG5bjPoF3//G57jhqXdx7RNv44/5KxWS6fNMWS8Pa9mynuYVFCE2MRXFAs30/73+qbcx/PlRuP7pd/Hip+OQlpWDfAHRQpliE1Lg6eam1t0ye1mYD63goYH+cJGyquS4O+IS1RWD7ht0p7B1upNjS3nc3V3RWmA7Ky8fSQKtPFdSK0vUqF4YfH28NL1jmfdLYJsd/9hRr1Xj+qhbM0iA/4DbBPdjmfjJcW9qhvoqP/r+GNzy3Chc+dibeOXLCXrtaGH+R95GRidJ55xzjo4GWB2xnc8msb5gqDiObldZBFSOsOfi4gZPL29pSLvqb8eOmUxDVwh2+HMXIC0rK9Xfh8qTaQm4Hp5ecNXR8g7AaVlpqcI6j8PGNn8zLw6QwrklhrTjOgueK4v7cZuHh5ceh3UQy2zVRXQJ4XaWl5ZpHku3G1A2OkUysGx0Wou+fnmFxXCu4QQ3F5t1tTLaEU4jd8Xh/je/xGcTZiAowAdXD+yJJ2+7CgO6tldoPBoP0ppBeGQnu6b1a6Nd04YyNVBXiy5tmuGOKwfj6gHnaWcZ+kmrVVrAvXJh6Lu8X3JQwjehmfnazLcH76BgLasOcnmQRc37cGI+MjECBqGY4E4LdGXxBZObV4j3vpuM/733DbKyc9V/+6HrL8FdVw2Cq5zDPy6mkZHRf1LaQU/qscqW3AOyDUvN6WgitGpeh0i7f9vRKtWjyMrncHkdbbuR0b8pA8tGp7XorlArOECgsxSJabb4tdZnSP6fVmNq6oLVWLkpGg9efzE+fvIuPH771Rh+aX9E1Kmp+xxK3NW2N4fvdYO/t5cC+a2XXYD3H7sN7/zvVp3efWQ43v3fcAHmgQLJTho1g6HhaNW14hmzTBr2LTPH3jHOtr5WUIBU9EBiagZKSsok3QGrMz9tMoScj5cHQgJ8uZLvMxFDOFklO4SYRhoRAX4+Um4XJKSmI7+gcP+1oFgelnWrNCLob92jXQt8+vw9eOme63HHsIvRvV3zA4czMjIyMjIyOqwMLBud9urcqol2wJu+aA1i4pLVImob3MMJBQKthND4lHSFxRaN6sHLxwv7SsuwY0+Chmyj1daBI9UqzHVFJfZYyPIfI0+0b9FQ/X1nLl2P0vIy9WWm24ezqwtSMrPVkusloEy3B3auY4SO3MJitRpzit6TqJ0JaQ3X4wmkt2/WAPVqBWunwI3Ru9SSTIhl+TftiMOiddvUgt20fh2aUmwFPAbR4tO4XhhaRNTFusidWLBmqwIy8+fE8vG6pAu8Mxxek3q1ER4aog2Hgpw8zFy+QSNgOF4Xo7NDHNFv586dGq3CyMjIyOjoMtEwjE65jhZnOSTQV624Uxeuwp7ENG3i0cq8fEMkFgoktm/eALuTUjF7+XoUCOz6CdCywxxjLS9ev1WguBRXDeiBFg3qqiWVQzpPmr1EO/X5+3ojOT0bdUICtIPc8k1RmLdyI4qKBTYFJumfPHflBnwzeZZ29GNMZII1RwFk5IhSAVK6QmyIisW3v8/C2m2EkBIM6N4B3do1V8jncVj2aCkTQZYDoayQ47z34+9ISEnDkyOuxHkdWglA19BBRX7+e5EOaz2077l6/oRgMi2PN3flJu3k2KZJAy0HOzf+tWQd1kftVBBmWLgtMbvx+/wVCAsOVOD/a+ka7IxPRlCAr1q+f5+7AlPmLENyRpY2RAb26KjwTqBfKLDPaBitGtU/2DVEZKJh/PdFP1YOCvLhhx+q/zCjVhidHFVXNAyj6hXrUxMNw+h4ZWDZ6JTraLDs4eaGNo3q6eh1MwT8CHWL1m7FjMVr1Q2CUFk/LFQjVxBsGXOYESsCfH00tjDXD+3XVa23tPpywBAOULJIQHvJum2IS0pRX976tUPRpG5tRO6Ox4wla3RgjzmS3zwB1PoCyZf26wYvD3eEBnAgkVBsFiidvWK9APk2TcOBS9o0jcDG7bGaX7e2zdXXrmXjerrffIFwWnQXC5BOl7LTDeOpEVcJyPfUGM8EVkbymLNio8BqPQw6r5OevwXLa7fFYH30LjnfrrbQbgLHTeqHIzjQDys3R8v1WIMlG7YJPK/VxsKFvc5BKzl2Wfk+BW2GnVu0Zoucexou6t1FR/Pr1KIx+nZpq8detWU7tuzYg8sExptJw8DA8pkn3jM//PADpk6dqnGOOViK0cmRgeXTUwaWjaoiMyiJ0SnX0QYloei6kJdfiMjYeGwSGC0sLkGD2rXUqkyfZrpWpGVkYfmmaAXhemEh6C6wSqVk5qBOaBB8vTzUskzATknPwtKNUQLSGWjTpB56tG+pIeXoyhGfmo6N0buxa2+SWmYJpi0ahMPfl7227fAqU2xCsg5uQqt347ph6hf88YRpeO3rifj8+fswfOj5alUmiNLnemdcksJuZnaehnZrJyDfQACd7iSEGObJAU8SUjLUjzksJFDLbyk9O1ejctSW9fSvtp2LAGx5BXZJWTZE7dIBUYIF5nldOHIh3UgYOm+jbCPEMyLHuW2byvUIlkZCGvy8PVFTrh9hnHlnyDFYNj9JV/mvYAYl+e+LDTTGOB47dixmzJiB8847z77FqLpVXYOSGFWvzKAkRlWRgWWjU65jgWWK0MmKjsNHs2uak72znDXSHIFaXYVlf25jcHz+x/XsfOdoKWVeTMzbn3ZbxiOmuD/Bm7IAlsfkvoRSS4RUV8mXRWEeHFErIzMbI14crSMETv3oeXQXeLbKRghnOfjS1GNKnsybeTo+glxH/2ems/a1xDLruch6x5cv9+F65rNP1vM387fyZvl5PRipQ7fJPy5zmGuet3Veh8vfkoFl2z3BibGvj0VMq/eH/Z5ylBW79ljzOh4dLm9HWObw1z169NAycj0HR+H9YVQ9MrB8esrAslFVZNwwjE65juaGYYnQYcGm/KcA6wjAut1hmy2dQC6BxZ7GkrVN/tO5o6x8uZbbrGNSrGjTMnOxbEOkWqIJmBzUIys7B9/8MRtjpy1A386tcdvlA2zh4uzi3vvLzt/2fA8lltfxvCxxHz2XQ+x2pLyZ3rouus2+bMvLMd3h86fOZjeMhIQE/PLLL+rCMH36dOzatUtH4Zs2bZouN2zYUMGUQ0r//PPPSE5ORkFBAT799FO14DZv3lyHmS4pKcGyZcvw008/aX5///03Nm/erMNdc8Q/NsIodsBjPhx8x9FVgvszvwULFugw2Rwum8NLE345lDVH6fvjjz/2l3Pbtm0ICQlBcHCw7k8w5v48Jt0wuM+YMWPw22+/YcWKFQr1HHmP86ioKIwfP17Po0GDBgeBdHp6OiZNmqSj8bVs2dJA9iFk3DBOT/FeNW4YRscrA8tGp1zHCsung5ydnHXo6qdH/4CJM5dgxYZoeSmux9dTZmHKvBVoGB6Gl+69XkfgOxTw/pd1tsLy3r178eSTT+Kzzz5DTEwMMjIysGTJEqxZs0ahlGB88cUXK/ASHu+77z5ERkZqGsJ0dHQ0Bg8erDD89ddf45lnntFtBE7mN2vWLCxcuFCHoiZUU4sWLcLDDz+sw0X3799f11F5eXk6At64ceMUdjlkNAH9zjvvxNq1a/W4hFiWef369Xp8AnOnTp0QGkpo26cQvXHjRri7u+PHH3/Eli1bEBsbq+BOCCcst2rVSsv26KOPYuvWrbj88ss1vSWW795770VgYCAGDhxoYPkQMrB8esrAslFVZELHGRkdh2iZo4/0xb27wM/LCzv2xGPLjt3yMqzAiEsvwDcvP2h3vzh0bGej/5YIlx999JFaea+44gqF2vnz5+O7775TiytBWYdet9MQ57T+Ll++HP7+/pgzZw7mzp2LFi1aKIy++OKLav0l7BI4ly5dig8++EAt188//zy2b9+u+TBqBfPlIDiVxfUM+2Ydk6IbxapVqxAXF4fPP/8c8+bN0/xvueUWdbdgBAzmRVCg9ZrQzfLcfffdmtYqR1JSEt58802F7datW6Njx45qCSdQW+IzQMAvLCw0oGxkZHRWyMCy0RktGxzYAKE6Xuq0Fgf4euPRmy/D1I+fw5TRz2LyqGcw/ZMX8caDN2sUC8KE0ZkhWlxpqW3fvj2eeuopREREqPtF165d1dpMa3Ll+4q/aRF+4oknFJLpokGrLF0aCJivvPIK+vTpo/kQqG+44Qbccccdau2dPXv2/jwOd89yveWuYYn3HF0tHn/8cXTr1k3zrlevnpa5UaNGajEmAFv7EbSvv/563HzzzWodZnkJ1rRW0yK9cuVK+Pj44MILL1QQJ1hbYgOBsMzjdO7c2b726OIxCeyOkG+tq/zMsLFg+V0bGRkZnWoZWDY6Y0XQYDSK9Kw8pGRkobC4mCvtW6suvuppOeY7P8jPF6FB/tpZrlRe8PT5NTpzRL9dwiFjEhOUHUWXCQKqI/xRBD9CcuPGje1roK4b69at0/W01jqK92mXLl3U4kxQPV7x+Dwmj0f/YUfRtYMuFbQYp6Sk6DqmJbxXjoTBDn48T26nHzbVu3dvzZfW8czMTF1HkGYjYsiQIeoGcqyaMmWKuqisXr3avgbq4vHQQw+pO4gFzLm5uXj99de1UcFlIyMjo1MtA8tGZ6QIIAw1N3bafNz0zPu47JHXMXn2MnDgj+qUdparsEXUOJQV0Oi/LfoD08rJTnKVI1rwd2ULryVajB0jUbATXk5OjsK1l5eXfe0BsfMfO+tZQFoVEbbd3Nzsv2xiGWj9pvXW0aWDx6LluLK4nvexNbofOxH27dtX/Z43bNig6/7880+9Hlx/rPc8gZ7uIF999dVBsExr+jfffKOdEum+QnGEQXaApD94dna2rjMyMjI6lTKwbHRGiq/wsTMW4IkPvkNmbq52uJM3u1qDq5tpaVfMLyzWSQ9sdMaI1laK/smVdTifYoJhZYimJZcgSmDmfpVFH2Kup0sEZe1PUHcUra+HOiZFtwXLOmuJbh8EfoIxXTMsHc7NgZ0OmYdlMWY5hg4dqmnpA83oGfRv7tWr1z+s2EcSofqmm27Cq6++in79+tnXQq3b7GPODoq8PlTt2rXVxeXpp58+Lsu1kZGR0cmSgWWjM06E4dyCQvwyczEC/Lwx6vHbMfaNR3FF/+4KAgTm6hJDx3FI7Sc//B4rN0fB9STEzDU6daLrBS3BDLVGVwZHMRoG3SsOZ112FKGPHebo1sG8HMV7knkRli0fYMItQT0+Pv4gqKVLCH2PKcuqyzknpuXkKLo50CrctGlThVCK5SX8M3KGo2jFJQjTf9kRhOmfTVcOdvRjuDsCP32ZLbglvHPd0XyMe/bsiWeffVZdUSwxLB79qgcNGmRfY7NujxgxQgH6UFZ4IyMjo39bBpaNzjgRYItLSnU0uwZ1aqIJrcqoAU+PA5+oCQz0M2bnP865j5099osAwkE6GC7uoHQO211cXbBw9RZ8/evfOqy2k8CyBU+cM31lWflyoBJL+9dpZ0RZtu9rJTlQFlvnrsr7W7LKuT8PScd9jaomQiJhkRDJCBgEZrpKMCYx4xMfykpMy3JlP2a6SFx11VUKlu+88466HxC0acllZzm6HHTo0AEXXHCBpiekE255XPoLZ2VlKQgzigYjZhzKJYSh3lgm+huzjAxjN2rUKN2XcMvQcbQoWz7OdH9g1A6Wgf7MdH2gqwRD1bVr186es82lhKHjWGZeAwIufZktMUYzrcb0yTYyMjI6E2Vg2eiMU8zeZCxdH4mC4hLk5hfpACLL1m9DTn6hgibZMTY+GTMWr8bPMxbhz/krELU7XgCCUGrPRJSVk4/lG6Pw+7zlGDd9Af6QdJG79ipoMJ/c/AKskLx3JyarRTlmbxIWr9qEbbviBEoqNO2qzdsV3C0x//SsHC1PXFKqfV0NOVaeljM2IRVxAt2/z1sh5VuDvIIiBd5iORcOrT15zjJM/HsRFqzejLTs3IOAmctxiWmYuXQdJsh5TZy5GPNXbUZ2XoHCs9Hxi6DIqBaMKMEOZ8OGDdPIFYwxTPhk7GRHMLZAuTIs829M4GRnNlqRGYaOltPhw4erFZUuEsyfkTMozhklg0DN491+++2alnBLP2LbF5KDj8HoF8z7xhtvxD333KNwzk51/E2YZRm4D/elWwgt10zHcjAyBuM/E5IZUaOy+wMtv/R9Zgg5xowOCwvT9cyLsZxppaZF2sjIyOhMlBmUxOiUq7oGJbFg4PNfZuC1r3/RCBgZObkKlovXbUXPjq1QOyQQC+X3c5+MxZeT/sacFRvwmwAoobZ2cAAa1autIFxYVIzR4/7Ea19NwOS5yzF35UZMEEglsDYID0PT+rWxecduPPDmF1iybpuCeVTsXgHvlcjMzUefzm3w8ufj8fVvs3Fh784I9PVW32Zafeet2og7R34GL083dG/fUi3AyzdF4a6RnyIhJR3zV2/BS5+Nx0op08DuHeDj5YlPJkzHK19MwKQ5SzFzyXr8Lsfh+bVuGqGh7IjCyzdF44XPxuKziTMwd8VGgfuVWLRuM85r3wIRdWqecKSOs3VQEo5exwgWdI1gxze6CRB2OTGsHAfxIJhyPe9BQiNdDuh2wd+WCKgMt8YoGrQE00+ZAEoQJZBzH0vcj+BK6zLvR7o4MHwdh6rmnHlzqGruTxcIDnbSrFkzjePMZ4DuGrQAMxzcI488oh3yLDG/Nm3aaF6E4sTERC0bB1YhKB8qHBw7DtLCTXh/+eWX9ZwpWrDff/99nHvuuQrcJ2Po7v+qzKAkp6f4bJlBSYyOVzWkYjWPsdEpVV7sRkSPugXNr3wELl6+NM/Zt1RNqwQal2yIxHs/TEGgvzduu2wgwkIDMUjAMz41A7e/9AmyBKKfHHEV2glsRgrkvvblRPj7eGPsm4+iWYNwpKRn4dmPfkTdsFD07NAC3p4eWLBmiwLw4J7n4JuXHkCRAPLclZvw818L5MW4ATcO6YNz2zVHQwHTjq0a49bnR2PF5igs+vZNNBYIpxWOQ2ATum985gM8MfwKjLz3egWnaYtW49on3hbw9ULXNs1w2fnd4enuhs6tm6hF+0WB50E9OmLE5QPgJWDzy6zF+Pb3OXjgukskj2EC6Hm4/eWPMX/VJh1BsJvkUVBUgoTUdM2vicD9iQ6UUsPJGSU5aYj+9X1E3PwmgrtcYt9y9oiwSLCkWwUHJ7nkkktw3XXX6eh+xwOKdIegjzD3OZpFllBN9w2r819l0YeZoM0Qb7/++qtG1mA5Ce/H4vPL8GwsD/c7nOj3fOmll6Jt27bqMsLzpzhqIBsNzz33nFq/jQ7oiQ9moqjcRRrLraWhal6zp4v4lW3L9kQsWxuNj58agtqhBzq+GhkdTsYNw+iMU/cOLXHTxf3gL+BZJyQYN1/SDzcP7W+D4WkLELlzD166exjuunowundug1svH4i7rx6Cjdt3Y6EA8T6BWj8fL7z+wE149varMaBnZ/To0k7SDEa3ts2wbmsM0rNypZINxo1Dz8c5rZqqdbhPl7a467qLMECglmZky2+4smjZ4HpHqyMXCSwE4Udvugy3XDEA1wzuhbyCQnz+y99oHlEXbz88HIN7n4ve3Tsq6Hds0QiTBJpTMrKRnp2LbTvjUL92CK4b1EvK2xYXSDmuv7CPWpXNiIJVF6NJEFgpWmIJivTzZWxgWny7d+9+3BZVNpCY17G4LtCifThQriwrUgbzPtbOcXQBORIoU+zYRws0XUksUKZowWZnQF4Do4MV5O+F5NQcFJeVH/SsG5066Z9hXw0kpWYjNNALwfI3MjI6FhlYNjrjRAuurSOTzYeUy/yRkp6NFZui4evtKbUmMHX+Cvw+cwlmLFyF/MIirUjpWsH96C4R6OeD2IQU/L1oFcb/MRs//jkX2XmFKCwusQ9KIgklbx6PUjeHiqoPTMLsOrVsjHbNG6KsqERXbIyKRVxiCurVDsYWgeE/Zi/BnwLIqzZHw8PNFUlpGdiTlKqDozQKr4Vd8Sn45OdpWLsxCnn5BVpGfnY3qrrYaY7+vITj33//HWPHjsWjjz6KCRMm4KKLLlL3hVMt3oPV/ZGQjQT6PNPN4ssvv9TOhwMGDLBvtYmDqXzyySfqWmJ0sC7p0wzFxUVYvm6n9ltgnwLDzKdObLBUVOxD1K5EbN0ej0v7Noeb28EdZY2MDifzFjU6I+WIDbosFWW2wGNmTp5Or301EY+9/y2eHPUdHnl3DL4XEHYX+GRiVqrsFEff53tf/wxPfvAdXv1yIr6ZPFs75dk6yx0GTKrMK/u0I19ooD/cXV3lFyG/AkkZWSgpK1O/6Mfe+0bjRj8u5X76wx+xefsetYAXlZQgJNAPD91wCdo0iVBf6ztHfoJXv/gZm6J374d5o6qJlt2pU6eqX/H//vc/PPbYYxpzmB3z3njjDe3kdypFqzb9ldkpsDp9hhMSErTT4ciRI9V/mmHfatWqZd9qE32h2fmxOo97pqh145q497rO2CFwNmdpJFIycqSRbR/AyJ7G6OSL9Tkbkjm5BViyNgbzl0fh0n7NcEG3RvYURkZHl4Flo7NDanWzkWzt0CA8ddtVGHnvjXj5nhvw8t3X482HhuO7kQ/hlqHna7rf5y/HC5+NR3lZBZ6+/Rr8+PqjGPvWY+jduQ3Kyg4eKOJQYgVtVdKVxVWE4UPJyVleo/Y3KfcnmDPlgG4d8er9N9nKq9P1+OipO/HZs/ehRYO6qBCwZpofXn0YL9w9TPbdhw/HTsWDb32JjdGxaik3qprYSY4h1caPH493331XQ6wxAsRbb72l8YtPtQis7OBHqK3OiBQE8NGjR6sfNMPMHarjn9GRNbBbEzxzR0+41CjD5JnrsGjldqQKNBeWlMkzatUT9sRG1SLrutKSX1pejqzsAqzdGoeJM9YgLj4Fd1zZASMu76T9R4yMjlUGlo3OGgX6+iA00A+lpWXqe3zN4J64emAPmc7T+eUXdEeHlo2RW1CEOcs3okzSvfbATbh2UC90at0E9cJCUFBYtB9mK0vtRXz5yT9CroebC4qKy5An+3CYbU4EZbqDELiP+JKUdMyjdnCQWpo9PVxxWb+uUhZbWVnmKwf0wMV9OiM4wE+H3eYLollEOB65cSj+/OhFjLisP5as34apC1ehvML4TVZV9OklOHJ4Z/rsMg4xB9ZgJIrTQbTqMmIHI1RUjr98IuL5cYQ9nq8VKs7o+NWxeW2pR87HDUNaobAgBzMWbMTfCzdjQ+ReqQvYubJCn82DJ/vORkcULxOvleO144e07NwCRO1Kxvzl0fhj9jrE7U3C+V3qYeS9/XBRr2ZwdTboY3R8MneM0VkhuiKECFT2aNcCKZk5+HbKHKQKtBaXlMnEqBGZGm4tNy9fTb/0O6ZFN7+oWLfn5RdqyLbVW3ccZKVlGg52UlZeLvkyv1J1m2Aki7oC13kFBZpvflEJSssqsCMuCdMXrdJ9WbEfTsyXL9F2zSJ0qO6/lqzDrOXrkV9coscoKC7GusidWLttp6anz/XuxBRkSzlLBPKD/XzQrV1zta4Ul5aqr555/xoZnRp5e7pJA7cN3vnfINx1ZUc0qeONLVF7FJznLovEuq17kJCSLY3rUq1LrOgZByBQf5714nWwrglFI0F5+T6tx1MzcrE5ai8WroyW67oZqzfugJ/HPlwzqAXefPAC3H9dVzSqe2wdZY2MKsvEWTY65aquOMuWWJFyMI9vpszWznxXDegBH09Pm09wkB82bd+NGUvWIjp2L/Ykp2kM5q9/nYVVW6I1rnGgvy92x6doPGQOVpKRnSOgvA6T5y1DgcAzX2gjLrtA4ZtgnZGThz8XrsZeyYsh5/YkpeHc1k0FjsuxcM0mLNsYjeS0TGyI3oXx0xdop8FUAfbzOrREvy5ttQNetBzn578Wawe/QT066TnwRRAk0MvlmcvWqZV4b3Iqonbtxe/zV+GLSX/B38cLPdq3wE6B8Oc++QlL1m7Frr1JUvZN+GHqPP3UeMeVg9GyUf0qdzy0dLbGWTYyqi7xeWwYHohu7eujc6vaCAv2QnZOPnbsTpP6KEWe3TQkpeYgPSsfJQKA8tTpc8vGLi1brMPkQdQ6wTZptmeceF4HztHmUsH6sKS0XMG4sKhE6tA8qffSEb0rCZsi92JbTCISUzPh7+2CXh3Cce3g1rikTwu0bVoLXp6u9pyNjKomA8tGp1wlWUlIX/Ybgpt3hbOHpwLoCUkq1uLSMmzduUfjG/ft3Fatv7TU1goOwDktmwgA5wk0xwrAxupIe3RzuOGivmjfvBFc5IXEYbJp3dksaTbt2IP0nFwMu7AvmkXUgZNsH9rnXO1cxxdZ7dBAtfZGxsZhs6TlICEXdG2vbhsBArsxcYlaFlqV2zatj2sG9UZOXoFCbocWjfRlwFB0hOju7Zqjs4A21/E61BCQbts0Qv2stwtQr4+K1RB38Snp6NSiMYYN6a2dAhlijoOtrNgcrVC+bVc8QgXmn7j1Sgw+7xx52dis1SeiGjWcUVYksLx1CQI6DBRYbmbfYmRkdDwi/AX4eqJ5gxAB53o4v0uENGiD4eFWAwX5hRpyLjY+VUFwx55UabxnIDOnUN26iopKtcHOL1UESCtEZWW4lIWD1tkmC0RlknJwOhnSvK3j7J8OVZ5/TgrFAsQFhSXIyS+SxkQh0jJzpSGRjk1R8dgoYBwZk4A9cn0KCgrg7e6EVg2DcGGvxrjhwrYY3KMJOrasg5AAb7i4mI/nRtUjMyiJ0SlXUUostrw6FGEdL0BI215SYVq8fGK3pi3GMV0qDs6H1hmC857EVKRl5Sj0RtQJlReVDagpVtosxM6EZAXb+gK+IQH+WiJustJRfDExPB2H2aZ/MgclISRb2+iesTcpDX4C0Y1qhwpsO9vykHJZjx+PR59mx3WWbNuc5MWRr6HhSsvKUEfgOSwkUC8RXy7Mr7SkHLuTUpCVmw9vL080Cq8JLw8PBfoTfcz1etRwQmb0KsQv/xNN7v0Cfs262bcaGRlVp1i/xKcIIAok74jLRFxiNjJyipAvoMzqrKxM6gl5Jr093eHj5a6jgdIg4OHuqlF9XAUSXVyc4Sm/ObHjsDzBWnnpnHJcdhDXsbbgI29T5VS61T7XalJ/1pC5bY1d+tueRv/HXzWwT06gqKRUrcOlpeUahpPGDasRwMGU8guLkV9QrPWqi9SL7LDs6e6CQGlghIVKPRoeiCb1g9CgdgDc3EwkFqOTLwPLRqdcFeVl2DPxFWSu+B2h7fogsGknOLt7K1RalezJEN0fCLN8BDROrX29oxS45UXAz6BHe1Rs1p2DIZjiMWj94UvuRMK4EViZD19TLA8h2VFcz3NiOj2nfYRk27YqiScj2sfY0SVFyNm5EambFsKn7fmof9XTcPE0I18ZGf0b4vOclSvPYF4xsvOKpAGej6S0PKRlFkiDvwC5+cX6vOYXlaOgsBRlUj+4SF3g6uoMd1cXBUp+MWMHUBoL6A7Cib9dBKRZb3A9G+ysY2y/bY10m+XaWea2qljdQsr3oVzqF/oLMxJPOesbmZexHpVjE4DLy8pRKr/ZmVknAd+ysgoFZPbroPWY6SR7hXxvDxeBfxcE+LgjOMALoYHeCPBzh7+3BwJ8PXRYas7ZCDAy+rdlYNnotBB9YVMWjEX60klaefqGN4Vv3WZw9QmEi4e3vAdsn9MsS8WJUaDRP2QHY8vWtI8vwqIClOZnITd+B3ITtqO0MB/B512DWn1vsg1LbmRkdEpFCzR9eOmSQRAtkmVabbNyiwWk85FXQCttqawrV6ttpgB3XmEJSgVyIe12pmffCsZ/ZtV6kCWYsi/YqlubZVirCploSab4W788MbHMaBwgiDMaEAf98JI5rcIesuwhcy6zw6OXl6uOoBfs7ynbXHWbu6R151wg38jodJKBZaPTSsUZCUhfNhnZWxaiNCsJ7j7+8A5rAHf/ULj5BcPNJwBOrh62GvpQMrfzkXXQdbO/4Ci5bhWlxQLH2SjOTkNJbhryEnaiKDsVzj4h8G3eHTX7DINnrYa29EZGRv8psWpU664ANh97Ai1XsgYgBtBibEF3Ka3EagnepzBt+10BZzsI0xeY4dd0Lr9tbh8yOR0Yxp8zLtt+2ubWNiOj/5oMLBudliovyEXO9hXI3b4aBXu3oSw7GTUqygSWA+HuGwT3AIFnmbsKPDu7edL/QCpimfitUCtmJ3kJONzaZ9VtzreSfVHERT17umXwM6nMIfPy0hKU5mWiJCddobg0Nx3FuVmokD1c/GvCM6wJfJp2hm+jc+AWVEuvqZGRkZGR0dkmA8tGp73KCHQZiShM3oWC+CgUJu5Aaeou7CstEjh2gbO7B1y9/ODq6SMAHQxX30BZ9oOTiytqOLvASSb5n6RlxzoLqA/WQWDtqP2r/+3HxE67hzHEWO4SjiIE079YgVjnZdhXVgb6hJcV5SkUl+RmoKwwH6VFuTrXdJKXW0gEPGs3gWfdFvCs0xTugWFw9Qux52xkZGRkZHT2ysCy0X9OFSVFKBf4K84UgE6MQUnqHnXfKEmPR2l2CirKigWSneDs6g5nJ1e4uLnDRUCaFmhnD2+F6hpc5uAiBGgCtc5tywrVAuH6W5aFugWy7QcX7bfUHlb/RFlb+gN7OeZxyPzksVToFdDdD76cl9uWKziXSf4ny6VyTYpRWpgr1yUf5cWFMuWjrKRErkUJystK1YrMGNaufqFwC6oL95BwAeR68KjVAO5B4XD29JXr4y6FMdZjIyMjIyMjRxlYNjpjxBu5OGUPSvPSUVFUgJKcFJRmJgtAJ6OsIFeAUiCySOaFeQqcCqmE0NIiCFEKHLsKYLvZ5i6ugEzOLm6QlcLUMrlx7mazVKsvnoClEyNq2OYqfZoO80hZxC2bbVZgRsagW4SAMf0IBYYrym2AS4twuc75W2BYpn2EYv4W8GXZarh6KtDrcAVSBkYQcfby00aBkzQIFIz9a8I1MAxO7h5w8w0VSK6n+xgZGRkZGRkdmwwsG501ImRWFBegvJAuCITnIllXhPLiPJTnZ2vntoqifEljt85ayyUFarmltZqgzME5hHQFXstkTkuvbQJdHioEamWuFmGBWxJ5DSebO8hBk1qsZbLnx98K0LIfw8splHt4woUh9Dy8BHYFhHXyggv9tAnFHr7a2dHJzQPOAscudD2R7U4C/EZGRkZGRkbVIwPLRkaVpfBLNwjLBUJAmHPrUeGc1mB2lCPg8jddJvjbZjaWuX09RSu0DlZLazTpWQlaZnaLtGWltizP/K2uIAcmgvWhfK2NjIyMjIyMTq4MLBsZGRkZGRkZGRkdRsZUZWRkZGRkZGRkZHQYGVg2MjIyMjIyMjIyOoQmT55sYNnIyMjIyMjIyOjs1qpVq+xL/5SBZSMjIyMjIyMjo7NWP/74I2bNmoX09HT7moNlYNnIyMjIyMjIyOisFEE5Li4OQ4cORXBwsH3twTKwbGRkZGRkZGRkdNbJEZTbtGljX/tPGVg2MjIyMjIyMjI6q3SsoEyZOMtGRkZGRkZGRkZnlV5++WV4e3vDx8fHvubQysvLM7BsZGRkZGRkZGR0domwHBgYiHr16tnXHF4Glo2MjIyMjIyMjM4qzZ49G0uWLMF5552HCy64wL720DI+y0ZGRkZGRkZGRmeVCMgEZQIzwflIMrBsZGRkZGRkZGR01ulYgdnAspGRkZGRkZGR0VkpC5hXrlx52EFJjM+ykZGRkZGRkZHRWS2C8uEGJTGwbGRkZGRkZGRkZHQYGTcMIyMjIyMjIyMjo0MK+D+cUWi83iVq/QAAAABJRU5ErkJggg==;" vertex="1" parent="1">
          <mxGeometry x="130" y="-60" width="488.49" height="215.21" as="geometry" />
        </mxCell>
        <mxCell id="z-AKncyKRG6QcuSsVURf-14" style="rounded=0;orthogonalLoop=1;jettySize=auto;html=1;entryX=0;entryY=0.5;entryDx=0;entryDy=0;" edge="1" parent="1" source="z-AKncyKRG6QcuSsVURf-9" target="z-AKncyKRG6QcuSsVURf-10">
          <mxGeometry relative="1" as="geometry" />
        </mxCell>
        <mxCell id="z-AKncyKRG6QcuSsVURf-9" value="&lt;font style=&quot;font-size: 18px;&quot;&gt;模型&lt;/font&gt;" style="rounded=1;whiteSpace=wrap;html=1;" vertex="1" parent="1">
          <mxGeometry x="180" y="220" width="100" height="50" as="geometry" />
        </mxCell>
        <mxCell id="z-AKncyKRG6QcuSsVURf-10" value="&lt;font style=&quot;font-size: 18px;&quot;&gt;预测结果&lt;/font&gt;" style="rounded=1;whiteSpace=wrap;html=1;" vertex="1" parent="1">
          <mxGeometry x="390" y="220" width="100" height="50" as="geometry" />
        </mxCell>
      </root>
    </mxGraphModel>
  </diagram>
</mxfile>
